<svg width="298" height="135" viewBox="0 0 298 135" fill="none" xmlns="http://www.w3.org/2000/svg">
<rect x="0.546875" y="0.5" width="296.047" height="133.188" rx="3.5" fill="white"/>
<path d="M24.7149 27.036L23.5389 24.866H23.4969V33H22.3489V23.228H23.7069L27.2769 29.192L28.4529 31.362H28.4949V23.228H29.6429V33H28.2849L24.7149 27.036ZM36.5873 31.824H36.5313C36.4566 31.992 36.3633 32.16 36.2513 32.328C36.1486 32.4867 36.018 32.6313 35.8593 32.762C35.7006 32.8833 35.5093 32.9813 35.2853 33.056C35.0613 33.1307 34.8 33.168 34.5013 33.168C33.7546 33.168 33.162 32.93 32.7233 32.454C32.2846 31.9687 32.0653 31.2873 32.0653 30.41V25.776H33.1853V30.214C33.1853 31.5113 33.736 32.16 34.8373 32.16C35.0613 32.16 35.276 32.132 35.4813 32.076C35.696 32.02 35.8826 31.936 36.0413 31.824C36.2093 31.712 36.34 31.572 36.4333 31.404C36.536 31.2267 36.5873 31.0167 36.5873 30.774V25.776H37.7073V33H36.5873V31.824ZM40.0923 33V25.776H41.2123V26.952H41.2683C41.3523 26.7653 41.4457 26.5927 41.5483 26.434C41.6603 26.266 41.791 26.1213 41.9403 26C42.099 25.8787 42.281 25.7853 42.4863 25.72C42.6917 25.6453 42.9343 25.608 43.2143 25.608C43.6903 25.608 44.129 25.7247 44.5303 25.958C44.9317 26.182 45.2303 26.5553 45.4263 27.078H45.4543C45.585 26.686 45.8277 26.3453 46.1823 26.056C46.5463 25.7573 47.0363 25.608 47.6523 25.608C48.3897 25.608 48.9637 25.8507 49.3743 26.336C49.7943 26.812 50.0043 27.4887 50.0043 28.366V33H48.8843V28.562C48.8843 27.918 48.7583 27.4327 48.5063 27.106C48.2543 26.7793 47.853 26.616 47.3023 26.616C47.0783 26.616 46.8637 26.644 46.6583 26.7C46.4623 26.756 46.285 26.84 46.1263 26.952C45.9677 27.064 45.8417 27.2087 45.7483 27.386C45.655 27.554 45.6083 27.7547 45.6083 27.988V33H44.4883V28.562C44.4883 27.918 44.3623 27.4327 44.1103 27.106C43.8583 26.7793 43.4663 26.616 42.9343 26.616C42.7103 26.616 42.4957 26.644 42.2903 26.7C42.085 26.756 41.903 26.84 41.7443 26.952C41.5857 27.064 41.455 27.2087 41.3523 27.386C41.259 27.554 41.2123 27.7547 41.2123 27.988V33H40.0923ZM52.315 22.64H53.435V26.952H53.491C53.6777 26.4947 53.9483 26.1587 54.303 25.944C54.667 25.72 55.101 25.608 55.605 25.608C56.053 25.608 56.459 25.6967 56.823 25.874C57.187 26.0513 57.495 26.3033 57.747 26.63C58.0083 26.9567 58.2043 27.3533 58.335 27.82C58.475 28.2867 58.545 28.8093 58.545 29.388C58.545 29.9667 58.475 30.4893 58.335 30.956C58.2043 31.4227 58.0083 31.8193 57.747 32.146C57.495 32.4727 57.187 32.7247 56.823 32.902C56.459 33.0793 56.053 33.168 55.605 33.168C54.625 33.168 53.9203 32.72 53.491 31.824H53.435V33H52.315V22.64ZM55.297 32.16C55.9317 32.16 56.431 31.964 56.795 31.572C57.159 31.1707 57.341 30.648 57.341 30.004V28.772C57.341 28.128 57.159 27.61 56.795 27.218C56.431 26.8167 55.9317 26.616 55.297 26.616C55.045 26.616 54.8023 26.6533 54.569 26.728C54.345 26.7933 54.149 26.8867 53.981 27.008C53.813 27.1293 53.6777 27.2787 53.575 27.456C53.4817 27.624 53.435 27.806 53.435 28.002V30.69C53.435 30.9233 53.4817 31.1333 53.575 31.32C53.6777 31.4973 53.813 31.6513 53.981 31.782C54.149 31.9033 54.345 31.9967 54.569 32.062C54.8023 32.1273 55.045 32.16 55.297 32.16ZM63.1521 33.168C62.6574 33.168 62.2094 33.0793 61.8081 32.902C61.4161 32.7247 61.0754 32.4727 60.7861 32.146C60.5061 31.81 60.2868 31.4133 60.1281 30.956C59.9788 30.4893 59.9041 29.9667 59.9041 29.388C59.9041 28.8187 59.9788 28.3007 60.1281 27.834C60.2868 27.3673 60.5061 26.9707 60.7861 26.644C61.0754 26.308 61.4161 26.0513 61.8081 25.874C62.2094 25.6967 62.6574 25.608 63.1521 25.608C63.6374 25.608 64.0714 25.6967 64.4541 25.874C64.8368 26.0513 65.1634 26.2987 65.4341 26.616C65.7048 26.924 65.9101 27.2927 66.0501 27.722C66.1994 28.1513 66.2741 28.6227 66.2741 29.136V29.668H61.0801V30.004C61.0801 30.312 61.1268 30.6013 61.2201 30.872C61.3228 31.1333 61.4628 31.362 61.6401 31.558C61.8268 31.754 62.0508 31.908 62.3121 32.02C62.5828 32.132 62.8861 32.188 63.2221 32.188C63.6794 32.188 64.0761 32.0807 64.4121 31.866C64.7574 31.6513 65.0234 31.3433 65.2101 30.942L66.0081 31.516C65.7748 32.0107 65.4108 32.412 64.9161 32.72C64.4214 33.0187 63.8334 33.168 63.1521 33.168ZM63.1521 26.546C62.8441 26.546 62.5641 26.602 62.3121 26.714C62.0601 26.8167 61.8408 26.966 61.6541 27.162C61.4768 27.358 61.3368 27.5913 61.2341 27.862C61.1314 28.1233 61.0801 28.4127 61.0801 28.73V28.828H65.0701V28.674C65.0701 28.03 64.8928 27.5167 64.5381 27.134C64.1928 26.742 63.7308 26.546 63.1521 26.546ZM68.1197 33V25.776H69.2397V27.106H69.3097C69.4404 26.7607 69.6737 26.4527 70.0097 26.182C70.3457 25.9113 70.8077 25.776 71.3957 25.776H71.8297V26.896H71.1717C70.565 26.896 70.089 27.0127 69.7437 27.246C69.4077 27.47 69.2397 27.7547 69.2397 28.1V33H68.1197ZM79.2989 33.168C78.8136 33.168 78.3702 33.0793 77.9689 32.902C77.5676 32.7247 77.2222 32.4727 76.9329 32.146C76.6529 31.81 76.4336 31.4133 76.2749 30.956C76.1162 30.4893 76.0369 29.9667 76.0369 29.388C76.0369 28.8187 76.1162 28.3007 76.2749 27.834C76.4336 27.3673 76.6529 26.9707 76.9329 26.644C77.2222 26.308 77.5676 26.0513 77.9689 25.874C78.3702 25.6967 78.8136 25.608 79.2989 25.608C79.7842 25.608 80.2229 25.6967 80.6149 25.874C81.0162 26.0513 81.3616 26.308 81.6509 26.644C81.9402 26.9707 82.1642 27.3673 82.3229 27.834C82.4816 28.3007 82.5609 28.8187 82.5609 29.388C82.5609 29.9667 82.4816 30.4893 82.3229 30.956C82.1642 31.4133 81.9402 31.81 81.6509 32.146C81.3616 32.4727 81.0162 32.7247 80.6149 32.902C80.2229 33.0793 79.7842 33.168 79.2989 33.168ZM79.2989 32.174C79.9056 32.174 80.4002 31.9873 80.7829 31.614C81.1656 31.2407 81.3569 30.6713 81.3569 29.906V28.87C81.3569 28.1047 81.1656 27.5353 80.7829 27.162C80.4002 26.7887 79.9056 26.602 79.2989 26.602C78.6922 26.602 78.1976 26.7887 77.8149 27.162C77.4322 27.5353 77.2409 28.1047 77.2409 28.87V29.906C77.2409 30.6713 77.4322 31.2407 77.8149 31.614C78.1976 31.9873 78.6922 32.174 79.2989 32.174ZM84.7129 26.756H83.5369V25.776H84.7129V24.32C84.7129 23.816 84.8435 23.41 85.1049 23.102C85.3662 22.794 85.7629 22.64 86.2949 22.64H87.3869V23.62H85.8329V25.776H87.3869V26.756H85.8329V33H84.7129V26.756ZM95.5705 24.264V33H94.3945V24.264H91.2865V23.228H98.6785V24.264H95.5705ZM99.5513 33V25.776H100.671V27.106H100.741C100.872 26.7607 101.105 26.4527 101.441 26.182C101.777 25.9113 102.239 25.776 102.827 25.776H103.261V26.896H102.603C101.997 26.896 101.521 27.0127 101.175 27.246C100.839 27.47 100.671 27.7547 100.671 28.1V33H99.5513ZM109.887 33C109.467 33 109.164 32.888 108.977 32.664C108.8 32.44 108.688 32.16 108.641 31.824H108.571C108.413 32.272 108.151 32.608 107.787 32.832C107.423 33.056 106.989 33.168 106.485 33.168C105.72 33.168 105.123 32.972 104.693 32.58C104.273 32.188 104.063 31.656 104.063 30.984C104.063 30.3027 104.311 29.78 104.805 29.416C105.309 29.052 106.089 28.87 107.143 28.87H108.571V28.156C108.571 27.6427 108.431 27.2507 108.151 26.98C107.871 26.7093 107.442 26.574 106.863 26.574C106.425 26.574 106.056 26.672 105.757 26.868C105.468 27.064 105.225 27.3253 105.029 27.652L104.357 27.022C104.553 26.63 104.866 26.2987 105.295 26.028C105.725 25.748 106.266 25.608 106.919 25.608C107.797 25.608 108.478 25.8227 108.963 26.252C109.449 26.6813 109.691 27.2787 109.691 28.044V32.02H110.517V33H109.887ZM106.667 32.216C106.947 32.216 107.204 32.1833 107.437 32.118C107.671 32.0527 107.871 31.9593 108.039 31.838C108.207 31.7167 108.338 31.5767 108.431 31.418C108.525 31.2593 108.571 31.0867 108.571 30.9V29.71H107.087C106.443 29.71 105.972 29.8033 105.673 29.99C105.384 30.1767 105.239 30.4473 105.239 30.802V31.096C105.239 31.4507 105.365 31.726 105.617 31.922C105.879 32.118 106.229 32.216 106.667 32.216ZM116.736 31.824H116.68C116.241 32.72 115.536 33.168 114.566 33.168C114.118 33.168 113.712 33.0793 113.348 32.902C112.984 32.7247 112.671 32.4727 112.41 32.146C112.158 31.8193 111.962 31.4227 111.822 30.956C111.691 30.4893 111.626 29.9667 111.626 29.388C111.626 28.8093 111.691 28.2867 111.822 27.82C111.962 27.3533 112.158 26.9567 112.41 26.63C112.671 26.3033 112.984 26.0513 113.348 25.874C113.712 25.6967 114.118 25.608 114.566 25.608C115.07 25.608 115.499 25.72 115.854 25.944C116.218 26.1587 116.493 26.4947 116.68 26.952H116.736V22.64H117.856V33H116.736V31.824ZM114.874 32.16C115.126 32.16 115.364 32.1273 115.588 32.062C115.821 31.9967 116.022 31.9033 116.19 31.782C116.358 31.6513 116.488 31.4973 116.582 31.32C116.684 31.1333 116.736 30.9233 116.736 30.69V28.002C116.736 27.806 116.684 27.624 116.582 27.456C116.488 27.2787 116.358 27.1293 116.19 27.008C116.022 26.8867 115.821 26.7933 115.588 26.728C115.364 26.6533 115.126 26.616 114.874 26.616C114.239 26.616 113.74 26.8167 113.376 27.218C113.012 27.61 112.83 28.128 112.83 28.772V30.004C112.83 30.648 113.012 31.1707 113.376 31.572C113.74 31.964 114.239 32.16 114.874 32.16ZM122.953 33.168C122.458 33.168 122.01 33.0793 121.609 32.902C121.217 32.7247 120.876 32.4727 120.587 32.146C120.307 31.81 120.088 31.4133 119.929 30.956C119.78 30.4893 119.705 29.9667 119.705 29.388C119.705 28.8187 119.78 28.3007 119.929 27.834C120.088 27.3673 120.307 26.9707 120.587 26.644C120.876 26.308 121.217 26.0513 121.609 25.874C122.01 25.6967 122.458 25.608 122.953 25.608C123.438 25.608 123.872 25.6967 124.255 25.874C124.638 26.0513 124.964 26.2987 125.235 26.616C125.506 26.924 125.711 27.2927 125.851 27.722C126 28.1513 126.075 28.6227 126.075 29.136V29.668H120.881V30.004C120.881 30.312 120.928 30.6013 121.021 30.872C121.124 31.1333 121.264 31.362 121.441 31.558C121.628 31.754 121.852 31.908 122.113 32.02C122.384 32.132 122.687 32.188 123.023 32.188C123.48 32.188 123.877 32.0807 124.213 31.866C124.558 31.6513 124.824 31.3433 125.011 30.942L125.809 31.516C125.576 32.0107 125.212 32.412 124.717 32.72C124.222 33.0187 123.634 33.168 122.953 33.168ZM122.953 26.546C122.645 26.546 122.365 26.602 122.113 26.714C121.861 26.8167 121.642 26.966 121.455 27.162C121.278 27.358 121.138 27.5913 121.035 27.862C120.932 28.1233 120.881 28.4127 120.881 28.73V28.828H124.871V28.674C124.871 28.03 124.694 27.5167 124.339 27.134C123.994 26.742 123.532 26.546 122.953 26.546ZM130.09 33.168C129.418 33.168 128.854 33.042 128.396 32.79C127.948 32.5287 127.561 32.1833 127.234 31.754L128.032 31.11C128.312 31.4647 128.625 31.74 128.97 31.936C129.316 32.1227 129.717 32.216 130.174 32.216C130.65 32.216 131.019 32.1133 131.28 31.908C131.551 31.7027 131.686 31.4133 131.686 31.04C131.686 30.76 131.593 30.522 131.406 30.326C131.229 30.1207 130.902 29.9807 130.426 29.906L129.852 29.822C129.516 29.7753 129.208 29.7053 128.928 29.612C128.648 29.5093 128.401 29.3787 128.186 29.22C127.981 29.052 127.818 28.8467 127.696 28.604C127.584 28.3613 127.528 28.072 127.528 27.736C127.528 27.3813 127.594 27.0733 127.724 26.812C127.855 26.5413 128.032 26.3173 128.256 26.14C128.49 25.9627 128.765 25.832 129.082 25.748C129.4 25.6547 129.74 25.608 130.104 25.608C130.692 25.608 131.182 25.7107 131.574 25.916C131.976 26.1213 132.326 26.406 132.624 26.77L131.882 27.442C131.724 27.218 131.49 27.0173 131.182 26.84C130.874 26.6533 130.487 26.56 130.02 26.56C129.554 26.56 129.199 26.6627 128.956 26.868C128.723 27.064 128.606 27.3347 128.606 27.68C128.606 28.0347 128.723 28.2913 128.956 28.45C129.199 28.6087 129.544 28.7253 129.992 28.8L130.552 28.884C131.355 29.0053 131.924 29.2387 132.26 29.584C132.596 29.92 132.764 30.3633 132.764 30.914C132.764 31.614 132.526 32.1647 132.05 32.566C131.574 32.9673 130.921 33.168 130.09 33.168Z" fill="#74788D"/>
<path d="M27.4099 70.252C26.5699 70.252 25.8209 70.119 25.1629 69.853C24.5049 69.573 23.9449 69.188 23.4829 68.698C23.0209 68.194 22.6709 67.592 22.4329 66.892C22.1949 66.178 22.0759 65.38 22.0759 64.498C22.0759 63.448 22.2299 62.461 22.5379 61.537C22.8599 60.599 23.2729 59.745 23.7769 58.975C24.2809 58.191 24.8409 57.498 25.4569 56.896C26.0869 56.28 26.7099 55.762 27.3259 55.342H31.0639C30.1959 55.958 29.4189 56.553 28.7329 57.127C28.0609 57.701 27.4659 58.282 26.9479 58.87C26.4439 59.458 26.0239 60.074 25.6879 60.718C25.3659 61.348 25.1209 62.034 24.9529 62.776L25.1209 62.818C25.2609 62.538 25.4219 62.272 25.6039 62.02C25.7999 61.754 26.0309 61.523 26.2969 61.327C26.5629 61.117 26.8709 60.956 27.2209 60.844C27.5709 60.718 27.9769 60.655 28.4389 60.655C29.0409 60.655 29.6009 60.76 30.1189 60.97C30.6509 61.18 31.1059 61.488 31.4839 61.894C31.8759 62.286 32.1769 62.762 32.3869 63.322C32.6109 63.882 32.7229 64.505 32.7229 65.191C32.7229 65.933 32.5969 66.612 32.3449 67.228C32.0929 67.844 31.7359 68.376 31.2739 68.824C30.8119 69.272 30.2519 69.622 29.5939 69.874C28.9499 70.126 28.2219 70.252 27.4099 70.252ZM27.4099 68.068C28.1799 68.068 28.7819 67.858 29.2159 67.438C29.6639 67.004 29.8879 66.388 29.8879 65.59V65.275C29.8879 64.477 29.6639 63.868 29.2159 63.448C28.7819 63.014 28.1799 62.797 27.4099 62.797C26.6259 62.797 26.0169 63.014 25.5829 63.448C25.1489 63.868 24.9319 64.477 24.9319 65.275V65.59C24.9319 66.388 25.1489 67.004 25.5829 67.438C26.0169 67.858 26.6259 68.068 27.4099 68.068ZM45.1047 70H34.9407V67.438L39.5397 63.406C40.3237 62.72 40.8977 62.104 41.2617 61.558C41.6257 60.998 41.8077 60.396 41.8077 59.752V59.479C41.8077 58.835 41.5977 58.345 41.1777 58.009C40.7577 57.659 40.2467 57.484 39.6447 57.484C38.8887 57.484 38.3147 57.701 37.9227 58.135C37.5307 58.555 37.2507 59.066 37.0827 59.668L34.6887 58.744C34.8427 58.254 35.0597 57.792 35.3397 57.358C35.6197 56.91 35.9697 56.518 36.3897 56.182C36.8237 55.846 37.3277 55.58 37.9017 55.384C38.4757 55.188 39.1337 55.09 39.8757 55.09C40.6457 55.09 41.3317 55.202 41.9337 55.426C42.5357 55.636 43.0397 55.937 43.4457 56.329C43.8657 56.721 44.1807 57.183 44.3907 57.715C44.6147 58.247 44.7267 58.828 44.7267 59.458C44.7267 60.074 44.6287 60.634 44.4327 61.138C44.2367 61.642 43.9707 62.125 43.6347 62.587C43.2987 63.035 42.9067 63.469 42.4587 63.889C42.0107 64.295 41.5347 64.708 41.0307 65.128L37.9437 67.669H45.1047V70ZM57.0455 57.736H50.4515L50.1155 62.65H50.2625C50.4165 62.342 50.5845 62.055 50.7665 61.789C50.9485 61.523 51.1585 61.299 51.3965 61.117C51.6345 60.935 51.9075 60.795 52.2155 60.697C52.5375 60.585 52.9225 60.529 53.3705 60.529C54.0005 60.529 54.5885 60.634 55.1345 60.844C55.6805 61.054 56.1495 61.362 56.5415 61.768C56.9475 62.16 57.2625 62.643 57.4865 63.217C57.7245 63.791 57.8435 64.442 57.8435 65.17C57.8435 65.912 57.7245 66.591 57.4865 67.207C57.2485 67.823 56.8985 68.362 56.4365 68.824C55.9745 69.272 55.4075 69.622 54.7355 69.874C54.0635 70.126 53.2935 70.252 52.4255 70.252C51.7535 70.252 51.1515 70.175 50.6195 70.021C50.0875 69.881 49.6185 69.685 49.2125 69.433C48.8065 69.181 48.4565 68.894 48.1625 68.572C47.8685 68.236 47.6095 67.886 47.3855 67.522L49.4015 65.968C49.5695 66.248 49.7445 66.514 49.9265 66.766C50.1085 67.004 50.3185 67.214 50.5565 67.396C50.8085 67.578 51.0815 67.725 51.3755 67.837C51.6835 67.935 52.0405 67.984 52.4465 67.984C53.2725 67.984 53.8955 67.753 54.3155 67.291C54.7495 66.829 54.9665 66.199 54.9665 65.401V65.233C54.9665 64.477 54.7495 63.882 54.3155 63.448C53.8815 63.014 53.2795 62.797 52.5095 62.797C51.9075 62.797 51.4175 62.916 51.0395 63.154C50.6615 63.378 50.3605 63.623 50.1365 63.889L47.8685 63.574L48.4145 55.342H57.0455V57.736ZM65.1223 70.252C64.2683 70.252 63.5053 70.147 62.8333 69.937C62.1753 69.713 61.6153 69.412 61.1533 69.034C60.7053 68.656 60.3623 68.208 60.1243 67.69C59.8863 67.172 59.7673 66.605 59.7673 65.989C59.7673 65.037 60.0263 64.267 60.5443 63.679C61.0763 63.077 61.7833 62.657 62.6653 62.419V62.251C61.9373 61.985 61.3423 61.572 60.8803 61.012C60.4323 60.452 60.2083 59.745 60.2083 58.891C60.2083 58.331 60.3133 57.82 60.5233 57.358C60.7473 56.896 61.0693 56.497 61.4893 56.161C61.9093 55.825 62.4203 55.566 63.0223 55.384C63.6383 55.188 64.3383 55.09 65.1223 55.09C65.9063 55.09 66.5993 55.188 67.2013 55.384C67.8173 55.566 68.3353 55.825 68.7553 56.161C69.1753 56.497 69.4903 56.896 69.7003 57.358C69.9243 57.82 70.0363 58.331 70.0363 58.891C70.0363 59.745 69.8053 60.452 69.3433 61.012C68.8953 61.572 68.3073 61.985 67.5793 62.251V62.419C68.4613 62.657 69.1613 63.077 69.6793 63.679C70.2113 64.267 70.4773 65.037 70.4773 65.989C70.4773 66.605 70.3583 67.172 70.1203 67.69C69.8823 68.208 69.5323 68.656 69.0703 69.034C68.6223 69.412 68.0623 69.713 67.3903 69.937C66.7323 70.147 65.9763 70.252 65.1223 70.252ZM65.1223 68.089C65.9203 68.089 66.5293 67.907 66.9493 67.543C67.3833 67.179 67.6003 66.668 67.6003 66.01V65.569C67.6003 64.911 67.3833 64.4 66.9493 64.036C66.5293 63.672 65.9203 63.49 65.1223 63.49C64.3243 63.49 63.7083 63.672 63.2743 64.036C62.8543 64.4 62.6443 64.911 62.6443 65.569V66.01C62.6443 66.668 62.8543 67.179 63.2743 67.543C63.7083 67.907 64.3243 68.089 65.1223 68.089ZM65.1223 61.432C65.8643 61.432 66.4313 61.264 66.8233 60.928C67.2153 60.592 67.4113 60.116 67.4113 59.5V59.164C67.4113 58.562 67.2153 58.093 66.8233 57.757C66.4313 57.421 65.8643 57.253 65.1223 57.253C64.3803 57.253 63.8133 57.421 63.4213 57.757C63.0293 58.093 62.8333 58.562 62.8333 59.164V59.5C62.8333 60.116 63.0293 60.592 63.4213 60.928C63.8133 61.264 64.3803 61.432 65.1223 61.432Z" fill="#495057"/>
<g clip-path="url(#clip0_1_2137)">
<mask id="mask0_1_2137" style="mask-type:luminance" maskUnits="userSpaceOnUse" x="155" y="26" width="125" height="53">
<path d="M279.562 26.5938H155.562V78.5938H279.562V26.5938Z" fill="white"/>
</mask>
<g mask="url(#mask0_1_2137)">
<path d="M158.562 68.2188C161.513 68.2188 164.041 51.3438 166.991 51.3438C169.941 51.3438 172.47 48.2188 175.42 48.2188C178.37 48.2188 180.898 76.3438 183.848 76.3438C186.798 76.3438 189.327 68.8438 192.277 68.8438C195.227 68.8438 197.755 65.7188 200.705 65.7188C203.655 65.7188 206.184 36.9688 209.134 36.9688C212.084 36.9688 214.612 30.7188 217.562 30.7188C220.513 30.7188 223.041 48.2188 225.991 48.2188C228.941 48.2188 231.47 68.2188 234.42 68.2188C237.37 68.2188 239.898 51.3438 242.848 51.3438C245.798 51.3438 248.327 48.2188 251.277 48.2188C254.227 48.2188 256.755 76.3438 259.705 76.3438C262.655 76.3438 265.184 68.8438 268.134 68.8438C271.084 68.8438 273.612 70.0938 276.562 70.0938" stroke="#5156BE" stroke-opacity="0.85" stroke-width="2"/>
</g>
</g>
<rect x="21.0469" y="95.3125" width="60.2031" height="15.75" rx="4" fill="#FD625E" fill-opacity="0.25"/>
<path d="M25.9789 103.323V102.157H28.8874V103.323H25.9789ZM35.2227 105.938H30.2457V104.803L32.5872 102.714C32.9582 102.378 33.2417 102.059 33.4377 101.758C33.6407 101.45 33.7422 101.128 33.7422 100.792V100.656C33.7422 100.299 33.6337 100.019 33.4167 99.816C33.2067 99.613 32.9197 99.5115 32.5557 99.5115C32.3527 99.5115 32.1742 99.543 32.0202 99.606C31.8732 99.662 31.7437 99.7425 31.6317 99.8475C31.5197 99.9525 31.4252 100.075 31.3482 100.215C31.2782 100.355 31.2222 100.505 31.1802 100.666L30.1407 100.267C30.2177 100.036 30.3227 99.816 30.4557 99.606C30.5887 99.389 30.7567 99.1965 30.9597 99.0285C31.1627 98.8605 31.4007 98.7275 31.6737 98.6295C31.9537 98.5315 32.2792 98.4825 32.6502 98.4825C33.0212 98.4825 33.3537 98.5385 33.6477 98.6505C33.9417 98.7555 34.1867 98.906 34.3827 99.102C34.5857 99.291 34.7397 99.5185 34.8447 99.7845C34.9497 100.05 35.0022 100.341 35.0022 100.656C35.0022 100.95 34.9567 101.223 34.8657 101.475C34.7747 101.727 34.6487 101.965 34.4877 102.189C34.3267 102.413 34.1377 102.626 33.9207 102.829C33.7107 103.032 33.4867 103.239 33.2487 103.449L31.5267 104.929H35.2227V105.938ZM41.5501 101.338C41.5501 101.87 41.4696 102.371 41.3086 102.84C41.1476 103.309 40.9411 103.739 40.6891 104.131C40.4371 104.523 40.1536 104.873 39.8386 105.181C39.5306 105.489 39.2261 105.741 38.9251 105.938H37.3501C37.7631 105.636 38.1341 105.346 38.4631 105.066C38.7921 104.786 39.0791 104.499 39.3241 104.205C39.5691 103.911 39.7721 103.599 39.9331 103.27C40.1011 102.941 40.2306 102.581 40.3216 102.189L40.2481 102.168C40.1711 102.315 40.0801 102.455 39.9751 102.588C39.8771 102.714 39.7581 102.826 39.6181 102.924C39.4851 103.022 39.3311 103.099 39.1561 103.155C38.9811 103.211 38.7781 103.239 38.5471 103.239C38.2391 103.239 37.9521 103.186 37.6861 103.081C37.4271 102.976 37.1996 102.826 37.0036 102.63C36.8146 102.427 36.6641 102.189 36.5521 101.916C36.4471 101.636 36.3946 101.321 36.3946 100.971C36.3946 100.607 36.4541 100.271 36.5731 99.963C36.6991 99.655 36.8741 99.3925 37.0981 99.1755C37.3221 98.9585 37.5916 98.7905 37.9066 98.6715C38.2216 98.5455 38.5751 98.4825 38.9671 98.4825C39.3731 98.4825 39.7336 98.549 40.0486 98.682C40.3706 98.815 40.6401 99.0075 40.8571 99.2595C41.0811 99.5045 41.2526 99.802 41.3716 100.152C41.4906 100.502 41.5501 100.897 41.5501 101.338ZM38.9671 102.283C39.3941 102.283 39.7266 102.171 39.9646 101.947C40.2026 101.716 40.3216 101.38 40.3216 100.939V100.792C40.3216 100.351 40.2026 100.019 39.9646 99.795C39.7266 99.564 39.3941 99.4485 38.9671 99.4485C38.5401 99.4485 38.2076 99.564 37.9696 99.795C37.7316 100.019 37.6126 100.351 37.6126 100.792V100.939C37.6126 101.38 37.7316 101.716 37.9696 101.947C38.2076 102.171 38.5401 102.283 38.9671 102.283ZM48.238 99.6585V105.938H47.0515V99.6585H44.8675V98.6085H50.422V99.6585H48.238ZM51.0229 105.938V100.477H52.1674V101.527H52.2199C52.2969 101.247 52.4579 101.002 52.7029 100.792C52.9479 100.582 53.2874 100.477 53.7214 100.477H54.0259V101.58H53.5744C53.1194 101.58 52.7694 101.653 52.5244 101.8C52.2864 101.947 52.1674 102.164 52.1674 102.451V105.938H51.0229ZM58.9609 105.938C58.6599 105.938 58.4289 105.853 58.2679 105.685C58.1069 105.51 58.0089 105.29 57.9739 105.024H57.9214C57.8164 105.367 57.6239 105.626 57.3439 105.801C57.0639 105.976 56.7244 106.064 56.3254 106.064C55.7584 106.064 55.3209 105.916 55.0129 105.622C54.7119 105.328 54.5614 104.933 54.5614 104.436C54.5614 103.89 54.7574 103.48 55.1494 103.207C55.5484 102.934 56.1294 102.798 56.8924 102.798H57.8794V102.336C57.8794 102 57.7884 101.741 57.6064 101.559C57.4244 101.377 57.1409 101.286 56.7559 101.286C56.4339 101.286 56.1714 101.356 55.9684 101.496C55.7654 101.636 55.5939 101.814 55.4539 102.031L54.7714 101.412C54.9534 101.104 55.2089 100.852 55.5379 100.656C55.8669 100.453 56.2974 100.351 56.8294 100.351C57.5364 100.351 58.0789 100.516 58.4569 100.845C58.8349 101.174 59.0239 101.646 59.0239 102.262V105.003H59.6014V105.938H58.9609ZM56.6509 105.192C57.0079 105.192 57.3019 105.115 57.5329 104.961C57.7639 104.8 57.8794 104.586 57.8794 104.32V103.533H56.9134C56.1224 103.533 55.7269 103.778 55.7269 104.268V104.457C55.7269 104.702 55.8074 104.887 55.9684 105.013C56.1364 105.132 56.3639 105.192 56.6509 105.192ZM64.1566 105.034H64.1041C63.9851 105.356 63.7891 105.608 63.5161 105.79C63.2501 105.972 62.9351 106.064 62.5711 106.064C61.8781 106.064 61.3426 105.815 60.9646 105.318C60.5866 104.814 60.3976 104.11 60.3976 103.207C60.3976 102.304 60.5866 101.604 60.9646 101.107C61.3426 100.603 61.8781 100.351 62.5711 100.351C62.9351 100.351 63.2501 100.442 63.5161 100.624C63.7891 100.799 63.9851 101.051 64.1041 101.38H64.1566V98.1675H65.3011V105.938H64.1566V105.034ZM62.9176 105.076C63.2676 105.076 63.5616 104.992 63.7996 104.824C64.0376 104.649 64.1566 104.422 64.1566 104.142V102.273C64.1566 101.993 64.0376 101.769 63.7996 101.601C63.5616 101.426 63.2676 101.338 62.9176 101.338C62.5186 101.338 62.2001 101.468 61.9621 101.727C61.7241 101.979 61.6051 102.315 61.6051 102.735V103.68C61.6051 104.1 61.7241 104.439 61.9621 104.698C62.2001 104.95 62.5186 105.076 62.9176 105.076ZM69.0789 106.064C68.6869 106.064 68.3369 105.997 68.0289 105.864C67.7209 105.731 67.4584 105.542 67.2414 105.297C67.0244 105.045 66.8564 104.744 66.7374 104.394C66.6254 104.037 66.5694 103.641 66.5694 103.207C66.5694 102.773 66.6254 102.381 66.7374 102.031C66.8564 101.674 67.0244 101.373 67.2414 101.128C67.4584 100.876 67.7209 100.684 68.0289 100.551C68.3369 100.418 68.6869 100.351 69.0789 100.351C69.4779 100.351 69.8279 100.421 70.1289 100.561C70.4369 100.701 70.6924 100.897 70.8954 101.149C71.0984 101.394 71.2489 101.681 71.3469 102.01C71.4519 102.339 71.5044 102.693 71.5044 103.071V103.501H67.7559V103.68C67.7559 104.1 67.8784 104.446 68.1234 104.719C68.3754 104.985 68.7324 105.118 69.1944 105.118C69.5304 105.118 69.8139 105.045 70.0449 104.898C70.2759 104.751 70.4719 104.551 70.6329 104.299L71.3049 104.961C71.1019 105.297 70.8079 105.566 70.4229 105.769C70.0379 105.965 69.5899 106.064 69.0789 106.064ZM69.0789 101.244C68.8829 101.244 68.7009 101.279 68.5329 101.349C68.3719 101.419 68.2319 101.517 68.1129 101.643C68.0009 101.769 67.9134 101.919 67.8504 102.094C67.7874 102.269 67.7559 102.462 67.7559 102.672V102.745H70.2969V102.64C70.2969 102.22 70.1884 101.884 69.9714 101.632C69.7544 101.373 69.4569 101.244 69.0789 101.244ZM74.5039 106.064C73.9859 106.064 73.5519 105.972 73.2019 105.79C72.8519 105.608 72.5474 105.356 72.2884 105.034L73.0234 104.362C73.2264 104.607 73.4504 104.8 73.6954 104.94C73.9474 105.073 74.2379 105.139 74.5669 105.139C74.9029 105.139 75.1514 105.076 75.3124 104.95C75.4804 104.817 75.5644 104.635 75.5644 104.404C75.5644 104.229 75.5049 104.082 75.3859 103.963C75.2739 103.837 75.0744 103.757 74.7874 103.722L74.2834 103.659C73.7234 103.589 73.2824 103.428 72.9604 103.176C72.6454 102.917 72.4879 102.535 72.4879 102.031C72.4879 101.765 72.5369 101.531 72.6349 101.328C72.7329 101.118 72.8694 100.943 73.0444 100.803C73.2264 100.656 73.4399 100.544 73.6849 100.467C73.9369 100.39 74.2134 100.351 74.5144 100.351C75.0044 100.351 75.4034 100.428 75.7114 100.582C76.0264 100.736 76.3064 100.95 76.5514 101.223L75.8479 101.895C75.7079 101.727 75.5224 101.583 75.2914 101.464C75.0674 101.338 74.8084 101.275 74.5144 101.275C74.1994 101.275 73.9649 101.338 73.8109 101.464C73.6639 101.59 73.5904 101.755 73.5904 101.958C73.5904 102.168 73.6569 102.325 73.7899 102.43C73.9229 102.535 74.1364 102.612 74.4304 102.661L74.9344 102.724C75.5364 102.815 75.9739 102.994 76.2469 103.26C76.5269 103.519 76.6669 103.869 76.6669 104.31C76.6669 104.576 76.6144 104.817 76.5094 105.034C76.4114 105.244 76.2679 105.426 76.0789 105.58C75.8899 105.734 75.6624 105.853 75.3964 105.938C75.1304 106.022 74.8329 106.064 74.5039 106.064Z" fill="#FD625E"/>
<path d="M92.3195 108.344C91.5828 108.344 90.9545 108.205 90.4345 107.927C89.9145 107.641 89.4725 107.251 89.1085 106.757L89.9145 106.081C90.2352 106.506 90.5905 106.831 90.9805 107.056C91.3705 107.273 91.8298 107.381 92.3585 107.381C93.0085 107.381 93.5025 107.225 93.8405 106.913C94.1872 106.601 94.3605 106.185 94.3605 105.665C94.3605 105.232 94.2305 104.898 93.9705 104.664C93.7105 104.43 93.2815 104.244 92.6835 104.105L91.9425 103.936C91.1105 103.746 90.4735 103.46 90.0315 103.078C89.5982 102.688 89.3815 102.142 89.3815 101.44C89.3815 101.042 89.4552 100.686 89.6025 100.374C89.7498 100.062 89.9535 99.8025 90.2135 99.5945C90.4822 99.3865 90.7985 99.2305 91.1625 99.1265C91.5352 99.0138 91.9425 98.9575 92.3845 98.9575C93.0692 98.9575 93.6542 99.0832 94.1395 99.3345C94.6335 99.5858 95.0495 99.9542 95.3875 100.439L94.5685 101.037C94.3172 100.691 94.0138 100.418 93.6585 100.218C93.3032 100.019 92.8612 99.9195 92.3325 99.9195C91.7518 99.9195 91.2925 100.045 90.9545 100.296C90.6252 100.539 90.4605 100.907 90.4605 101.401C90.4605 101.835 90.5992 102.164 90.8765 102.389C91.1625 102.606 91.5915 102.779 92.1635 102.909L92.9045 103.078C93.7972 103.278 94.4428 103.581 94.8415 103.988C95.2402 104.396 95.4395 104.937 95.4395 105.613C95.4395 106.029 95.3658 106.406 95.2185 106.744C95.0798 107.082 94.8762 107.368 94.6075 107.602C94.3388 107.836 94.0095 108.018 93.6195 108.148C93.2382 108.279 92.8048 108.344 92.3195 108.344ZM97.7412 99.9065C97.5159 99.9065 97.3512 99.8545 97.2472 99.7505C97.1519 99.6378 97.1042 99.4948 97.1042 99.3215V99.1525C97.1042 98.9792 97.1519 98.8405 97.2472 98.7365C97.3512 98.6238 97.5159 98.5675 97.7412 98.5675C97.9665 98.5675 98.1269 98.6238 98.2222 98.7365C98.3262 98.8405 98.3782 98.9792 98.3782 99.1525V99.3215C98.3782 99.4948 98.3262 99.6378 98.2222 99.7505C98.1269 99.8545 97.9665 99.9065 97.7412 99.9065ZM97.2212 101.479H98.2612V108.188H97.2212V101.479ZM100.471 108.188V101.479H101.511V102.571H101.563C101.728 102.19 101.958 101.887 102.252 101.661C102.556 101.436 102.959 101.324 103.461 101.324C104.155 101.324 104.701 101.549 105.099 101.999C105.507 102.441 105.71 103.07 105.71 103.884V108.188H104.67V104.066C104.67 102.862 104.163 102.259 103.149 102.259C102.941 102.259 102.738 102.285 102.538 102.337C102.348 102.389 102.174 102.467 102.018 102.571C101.862 102.675 101.737 102.81 101.641 102.974C101.555 103.13 101.511 103.317 101.511 103.533V108.188H100.471ZM110.356 108.344C109.888 108.344 109.468 108.261 109.095 108.096C108.722 107.932 108.406 107.698 108.146 107.394C107.895 107.091 107.7 106.723 107.561 106.289C107.431 105.856 107.366 105.371 107.366 104.833C107.366 104.296 107.431 103.811 107.561 103.377C107.7 102.944 107.895 102.576 108.146 102.272C108.406 101.969 108.722 101.735 109.095 101.57C109.468 101.406 109.888 101.324 110.356 101.324C111.023 101.324 111.556 101.471 111.955 101.765C112.362 102.051 112.666 102.428 112.865 102.896L111.994 103.338C111.873 102.992 111.673 102.723 111.396 102.532C111.119 102.342 110.772 102.246 110.356 102.246C110.044 102.246 109.771 102.298 109.537 102.402C109.303 102.498 109.108 102.636 108.952 102.818C108.796 102.992 108.679 103.204 108.601 103.455C108.523 103.698 108.484 103.967 108.484 104.261V105.405C108.484 105.995 108.64 106.48 108.952 106.861C109.273 107.234 109.741 107.42 110.356 107.42C111.197 107.42 111.803 107.03 112.176 106.25L112.93 106.757C112.713 107.243 112.388 107.628 111.955 107.914C111.53 108.2 110.997 108.344 110.356 108.344ZM116.844 108.344C116.384 108.344 115.968 108.261 115.596 108.096C115.232 107.932 114.915 107.698 114.647 107.394C114.387 107.082 114.183 106.714 114.036 106.289C113.897 105.856 113.828 105.371 113.828 104.833C113.828 104.305 113.897 103.824 114.036 103.39C114.183 102.957 114.387 102.589 114.647 102.285C114.915 101.973 115.232 101.735 115.596 101.57C115.968 101.406 116.384 101.324 116.844 101.324C117.294 101.324 117.697 101.406 118.053 101.57C118.408 101.735 118.711 101.965 118.963 102.259C119.214 102.545 119.405 102.888 119.535 103.286C119.673 103.685 119.743 104.123 119.743 104.599V105.093H114.92V105.405C114.92 105.691 114.963 105.96 115.05 106.211C115.145 106.454 115.275 106.666 115.44 106.848C115.613 107.03 115.821 107.173 116.064 107.277C116.315 107.381 116.597 107.433 116.909 107.433C117.333 107.433 117.702 107.334 118.014 107.134C118.334 106.935 118.581 106.649 118.755 106.277L119.496 106.809C119.279 107.269 118.941 107.641 118.482 107.927C118.022 108.205 117.476 108.344 116.844 108.344ZM116.844 102.194C116.558 102.194 116.298 102.246 116.064 102.35C115.83 102.446 115.626 102.584 115.453 102.766C115.288 102.948 115.158 103.165 115.063 103.416C114.967 103.659 114.92 103.928 114.92 104.222V104.313H118.625V104.17C118.625 103.572 118.46 103.096 118.131 102.74C117.81 102.376 117.381 102.194 116.844 102.194ZM125.634 108.188C125.27 108.188 124.992 108.088 124.802 107.888C124.62 107.68 124.529 107.42 124.529 107.108V98.5675H125.569V107.277H126.557V108.188H125.634ZM132.946 108.188C132.556 108.188 132.274 108.083 132.101 107.875C131.936 107.667 131.832 107.407 131.789 107.095H131.724C131.576 107.511 131.334 107.823 130.996 108.031C130.658 108.24 130.255 108.344 129.787 108.344C129.076 108.344 128.521 108.161 128.123 107.797C127.733 107.433 127.538 106.939 127.538 106.315C127.538 105.683 127.767 105.197 128.227 104.859C128.695 104.521 129.418 104.352 130.398 104.352H131.724V103.689C131.724 103.213 131.594 102.849 131.334 102.597C131.074 102.346 130.675 102.22 130.138 102.22C129.73 102.22 129.388 102.311 129.111 102.493C128.842 102.675 128.617 102.918 128.435 103.221L127.811 102.636C127.993 102.272 128.283 101.965 128.682 101.713C129.08 101.453 129.583 101.324 130.19 101.324C131.004 101.324 131.637 101.523 132.088 101.921C132.538 102.32 132.764 102.875 132.764 103.585V107.277H133.531V108.188H132.946ZM129.956 107.459C130.216 107.459 130.454 107.429 130.671 107.368C130.887 107.308 131.074 107.221 131.23 107.108C131.386 106.996 131.507 106.866 131.594 106.718C131.68 106.571 131.724 106.411 131.724 106.237V105.132H130.346C129.748 105.132 129.31 105.219 129.033 105.392C128.764 105.566 128.63 105.817 128.63 106.146V106.419C128.63 106.749 128.747 107.004 128.981 107.186C129.223 107.368 129.548 107.459 129.956 107.459ZM137.03 108.344C136.406 108.344 135.882 108.226 135.457 107.992C135.041 107.75 134.681 107.429 134.378 107.03L135.119 106.432C135.379 106.762 135.669 107.017 135.99 107.199C136.311 107.373 136.683 107.459 137.108 107.459C137.55 107.459 137.892 107.364 138.135 107.173C138.386 106.983 138.512 106.714 138.512 106.367C138.512 106.107 138.425 105.886 138.252 105.704C138.087 105.514 137.784 105.384 137.342 105.314L136.809 105.236C136.497 105.193 136.211 105.128 135.951 105.041C135.691 104.946 135.461 104.825 135.262 104.677C135.071 104.521 134.92 104.331 134.807 104.105C134.703 103.88 134.651 103.611 134.651 103.299C134.651 102.97 134.712 102.684 134.833 102.441C134.954 102.19 135.119 101.982 135.327 101.817C135.544 101.653 135.799 101.531 136.094 101.453C136.389 101.367 136.705 101.324 137.043 101.324C137.589 101.324 138.044 101.419 138.408 101.609C138.781 101.8 139.106 102.064 139.383 102.402L138.694 103.026C138.547 102.818 138.33 102.632 138.044 102.467C137.758 102.294 137.398 102.207 136.965 102.207C136.532 102.207 136.202 102.303 135.977 102.493C135.76 102.675 135.652 102.927 135.652 103.247C135.652 103.577 135.76 103.815 135.977 103.962C136.202 104.11 136.523 104.218 136.939 104.287L137.459 104.366C138.204 104.478 138.733 104.695 139.045 105.015C139.357 105.327 139.513 105.739 139.513 106.25C139.513 106.9 139.292 107.412 138.85 107.784C138.408 108.157 137.801 108.344 137.03 108.344ZM142.743 108.188C142.379 108.188 142.102 108.088 141.911 107.888C141.729 107.68 141.638 107.412 141.638 107.082V102.389H140.533V101.479H141.157C141.383 101.479 141.534 101.436 141.612 101.349C141.699 101.254 141.742 101.094 141.742 100.868V99.6205H142.678V101.479H144.147V102.389H142.678V107.277H144.043V108.188H142.743ZM148.189 101.479H149.203L149.918 104.378L150.633 107.316H150.659L151.478 104.378L152.323 101.479H153.246L154.117 104.378L154.949 107.316H154.975L155.664 104.378L156.392 101.479H157.367L155.586 108.188H154.299L153.363 104.963L152.778 102.922H152.752L152.18 104.963L151.244 108.188H149.983L148.189 101.479ZM161.328 108.344C160.869 108.344 160.453 108.261 160.08 108.096C159.716 107.932 159.4 107.698 159.131 107.394C158.871 107.082 158.668 106.714 158.52 106.289C158.382 105.856 158.312 105.371 158.312 104.833C158.312 104.305 158.382 103.824 158.52 103.39C158.668 102.957 158.871 102.589 159.131 102.285C159.4 101.973 159.716 101.735 160.08 101.57C160.453 101.406 160.869 101.324 161.328 101.324C161.779 101.324 162.182 101.406 162.537 101.57C162.893 101.735 163.196 101.965 163.447 102.259C163.699 102.545 163.889 102.888 164.019 103.286C164.158 103.685 164.227 104.123 164.227 104.599V105.093H159.404V105.405C159.404 105.691 159.448 105.96 159.534 106.211C159.63 106.454 159.76 106.666 159.924 106.848C160.098 107.03 160.306 107.173 160.548 107.277C160.8 107.381 161.081 107.433 161.393 107.433C161.818 107.433 162.186 107.334 162.498 107.134C162.819 106.935 163.066 106.649 163.239 106.277L163.98 106.809C163.764 107.269 163.426 107.641 162.966 107.927C162.507 108.205 161.961 108.344 161.328 108.344ZM161.328 102.194C161.042 102.194 160.782 102.246 160.548 102.35C160.314 102.446 160.111 102.584 159.937 102.766C159.773 102.948 159.643 103.165 159.547 103.416C159.452 103.659 159.404 103.928 159.404 104.222V104.313H163.109V104.17C163.109 103.572 162.945 103.096 162.615 102.74C162.295 102.376 161.866 102.194 161.328 102.194ZM168.463 108.344C168.004 108.344 167.588 108.261 167.215 108.096C166.851 107.932 166.535 107.698 166.266 107.394C166.006 107.082 165.802 106.714 165.655 106.289C165.516 105.856 165.447 105.371 165.447 104.833C165.447 104.305 165.516 103.824 165.655 103.39C165.802 102.957 166.006 102.589 166.266 102.285C166.535 101.973 166.851 101.735 167.215 101.57C167.588 101.406 168.004 101.324 168.463 101.324C168.914 101.324 169.317 101.406 169.672 101.57C170.027 101.735 170.331 101.965 170.582 102.259C170.833 102.545 171.024 102.888 171.154 103.286C171.293 103.685 171.362 104.123 171.362 104.599V105.093H166.539V105.405C166.539 105.691 166.582 105.96 166.669 106.211C166.764 106.454 166.894 106.666 167.059 106.848C167.232 107.03 167.44 107.173 167.683 107.277C167.934 107.381 168.216 107.433 168.528 107.433C168.953 107.433 169.321 107.334 169.633 107.134C169.954 106.935 170.201 106.649 170.374 106.277L171.115 106.809C170.898 107.269 170.56 107.641 170.101 107.927C169.642 108.205 169.096 108.344 168.463 108.344ZM168.463 102.194C168.177 102.194 167.917 102.246 167.683 102.35C167.449 102.446 167.245 102.584 167.072 102.766C166.907 102.948 166.777 103.165 166.682 103.416C166.587 103.659 166.539 103.928 166.539 104.222V104.313H170.244V104.17C170.244 103.572 170.079 103.096 169.75 102.74C169.429 102.376 169 102.194 168.463 102.194ZM173.076 98.5675H174.116V104.664H174.168L175.195 103.52L177.093 101.479H178.354L175.871 104.131L178.601 108.188H177.34L175.117 104.768L174.116 105.795V108.188H173.076V98.5675Z" fill="#74788D"/>
<rect x="0.546875" y="0.5" width="296.047" height="133.188" rx="3.5" stroke="#E9E9EF"/>
<defs>
<clipPath id="clip0_1_2137">
<rect width="118" height="50" fill="white" transform="translate(158.562 27.5938)"/>
</clipPath>
</defs>
</svg>
