<svg width="298" height="135" viewBox="0 0 298 135" fill="none" xmlns="http://www.w3.org/2000/svg">
<rect x="0.640625" y="0.5" width="296.047" height="133.188" rx="3.5" fill="white"/>
<path d="M22.4426 33V23.228H26.3346C27.212 23.228 27.884 23.48 28.3506 23.984C28.8266 24.4787 29.0646 25.16 29.0646 26.028C29.0646 26.896 28.8266 27.582 28.3506 28.086C27.884 28.5807 27.212 28.828 26.3346 28.828H23.6186V33H22.4426ZM23.6186 27.792H26.3346C26.8013 27.792 27.1606 27.6707 27.4126 27.428C27.674 27.1853 27.8046 26.84 27.8046 26.392V25.664C27.8046 25.216 27.674 24.8707 27.4126 24.628C27.1606 24.3853 26.8013 24.264 26.3346 24.264H23.6186V27.792ZM30.6841 33V25.776H31.8041V27.106H31.8741C32.0048 26.7607 32.2381 26.4527 32.5741 26.182C32.9101 25.9113 33.3721 25.776 33.9601 25.776H34.3941V26.896H33.7361C33.1295 26.896 32.6535 27.0127 32.3081 27.246C31.9721 27.47 31.8041 27.7547 31.8041 28.1V33H30.6841ZM38.4864 33.168C38.0011 33.168 37.5577 33.0793 37.1564 32.902C36.7551 32.7247 36.4097 32.4727 36.1204 32.146C35.8404 31.81 35.6211 31.4133 35.4624 30.956C35.3037 30.4893 35.2244 29.9667 35.2244 29.388C35.2244 28.8187 35.3037 28.3007 35.4624 27.834C35.6211 27.3673 35.8404 26.9707 36.1204 26.644C36.4097 26.308 36.7551 26.0513 37.1564 25.874C37.5577 25.6967 38.0011 25.608 38.4864 25.608C38.9717 25.608 39.4104 25.6967 39.8024 25.874C40.2037 26.0513 40.5491 26.308 40.8384 26.644C41.1277 26.9707 41.3517 27.3673 41.5104 27.834C41.6691 28.3007 41.7484 28.8187 41.7484 29.388C41.7484 29.9667 41.6691 30.4893 41.5104 30.956C41.3517 31.4133 41.1277 31.81 40.8384 32.146C40.5491 32.4727 40.2037 32.7247 39.8024 32.902C39.4104 33.0793 38.9717 33.168 38.4864 33.168ZM38.4864 32.174C39.0931 32.174 39.5877 31.9873 39.9704 31.614C40.3531 31.2407 40.5444 30.6713 40.5444 29.906V28.87C40.5444 28.1047 40.3531 27.5353 39.9704 27.162C39.5877 26.7887 39.0931 26.602 38.4864 26.602C37.8797 26.602 37.3851 26.7887 37.0024 27.162C36.6197 27.5353 36.4284 28.1047 36.4284 28.87V29.906C36.4284 30.6713 36.6197 31.2407 37.0024 31.614C37.3851 31.9873 37.8797 32.174 38.4864 32.174ZM43.9004 26.756H42.7244V25.776H43.9004V24.32C43.9004 23.816 44.031 23.41 44.2924 23.102C44.5537 22.794 44.9504 22.64 45.4824 22.64H46.5744V23.62H45.0204V25.776H49.0664V33H47.9464V26.756H45.0204V33H43.9004V26.756ZM48.5064 24.082C48.2637 24.082 48.0864 24.026 47.9744 23.914C47.8717 23.7927 47.8204 23.6387 47.8204 23.452V23.27C47.8204 23.0833 47.8717 22.934 47.9744 22.822C48.0864 22.7007 48.2637 22.64 48.5064 22.64C48.749 22.64 48.9217 22.7007 49.0244 22.822C49.1364 22.934 49.1924 23.0833 49.1924 23.27V23.452C49.1924 23.6387 49.1364 23.7927 49.0244 23.914C48.9217 24.026 48.749 24.082 48.5064 24.082ZM53.0477 33C52.6557 33 52.3571 32.8927 52.1517 32.678C51.9557 32.454 51.8577 32.1647 51.8577 31.81V26.756H50.6677V25.776H51.3397C51.5824 25.776 51.7457 25.7293 51.8297 25.636C51.9231 25.5333 51.9697 25.3607 51.9697 25.118V23.774H52.9777V25.776H54.5597V26.756H52.9777V32.02H54.4477V33H53.0477ZM60.9565 33H59.7805V23.228H63.6725C64.5312 23.228 65.1985 23.466 65.6745 23.942C66.1598 24.418 66.4025 25.104 66.4025 26C66.4025 26.7187 66.2345 27.3113 65.8985 27.778C65.5718 28.2353 65.0865 28.5387 64.4425 28.688L66.6825 33H65.3525L63.2385 28.8H60.9565V33ZM63.6725 27.792C64.1392 27.792 64.4985 27.6707 64.7505 27.428C65.0118 27.1853 65.1425 26.84 65.1425 26.392V25.664C65.1425 25.216 65.0118 24.8707 64.7505 24.628C64.4985 24.3853 64.1392 24.264 63.6725 24.264H60.9565V27.792H63.6725ZM73.7369 33C73.3169 33 73.0135 32.888 72.8269 32.664C72.6495 32.44 72.5375 32.16 72.4909 31.824H72.4209C72.2622 32.272 72.0009 32.608 71.6369 32.832C71.2729 33.056 70.8389 33.168 70.3349 33.168C69.5695 33.168 68.9722 32.972 68.5429 32.58C68.1229 32.188 67.9129 31.656 67.9129 30.984C67.9129 30.3027 68.1602 29.78 68.6549 29.416C69.1589 29.052 69.9382 28.87 70.9929 28.87H72.4209V28.156C72.4209 27.6427 72.2809 27.2507 72.0009 26.98C71.7209 26.7093 71.2915 26.574 70.7129 26.574C70.2742 26.574 69.9055 26.672 69.6069 26.868C69.3175 27.064 69.0749 27.3253 68.8789 27.652L68.2069 27.022C68.4029 26.63 68.7155 26.2987 69.1449 26.028C69.5742 25.748 70.1155 25.608 70.7689 25.608C71.6462 25.608 72.3275 25.8227 72.8129 26.252C73.2982 26.6813 73.5409 27.2787 73.5409 28.044V32.02H74.3669V33H73.7369ZM70.5169 32.216C70.7969 32.216 71.0535 32.1833 71.2869 32.118C71.5202 32.0527 71.7209 31.9593 71.8889 31.838C72.0569 31.7167 72.1875 31.5767 72.2809 31.418C72.3742 31.2593 72.4209 31.0867 72.4209 30.9V29.71H70.9369C70.2929 29.71 69.8215 29.8033 69.5229 29.99C69.2335 30.1767 69.0889 30.4473 69.0889 30.802V31.096C69.0889 31.4507 69.2149 31.726 69.4669 31.922C69.7282 32.118 70.0782 32.216 70.5169 32.216ZM77.5614 33C77.1694 33 76.8707 32.8927 76.6654 32.678C76.4694 32.454 76.3714 32.1647 76.3714 31.81V26.756H75.1814V25.776H75.8534C76.0961 25.776 76.2594 25.7293 76.3434 25.636C76.4367 25.5333 76.4834 25.3607 76.4834 25.118V23.774H77.4914V25.776H79.0734V26.756H77.4914V32.02H78.9614V33H77.5614ZM81.4336 24.082C81.1909 24.082 81.0136 24.026 80.9016 23.914C80.7989 23.7927 80.7476 23.6387 80.7476 23.452V23.27C80.7476 23.0833 80.7989 22.934 80.9016 22.822C81.0136 22.7007 81.1909 22.64 81.4336 22.64C81.6763 22.64 81.8489 22.7007 81.9516 22.822C82.0636 22.934 82.1196 23.0833 82.1196 23.27V23.452C82.1196 23.6387 82.0636 23.7927 81.9516 23.914C81.8489 24.026 81.6763 24.082 81.4336 24.082ZM80.8736 25.776H81.9936V33H80.8736V25.776ZM87.1036 33.168C86.6183 33.168 86.1749 33.0793 85.7736 32.902C85.3723 32.7247 85.0269 32.4727 84.7376 32.146C84.4576 31.81 84.2383 31.4133 84.0796 30.956C83.9209 30.4893 83.8416 29.9667 83.8416 29.388C83.8416 28.8187 83.9209 28.3007 84.0796 27.834C84.2383 27.3673 84.4576 26.9707 84.7376 26.644C85.0269 26.308 85.3723 26.0513 85.7736 25.874C86.1749 25.6967 86.6183 25.608 87.1036 25.608C87.5889 25.608 88.0276 25.6967 88.4196 25.874C88.8209 26.0513 89.1663 26.308 89.4556 26.644C89.7449 26.9707 89.9689 27.3673 90.1276 27.834C90.2863 28.3007 90.3656 28.8187 90.3656 29.388C90.3656 29.9667 90.2863 30.4893 90.1276 30.956C89.9689 31.4133 89.7449 31.81 89.4556 32.146C89.1663 32.4727 88.8209 32.7247 88.4196 32.902C88.0276 33.0793 87.5889 33.168 87.1036 33.168ZM87.1036 32.174C87.7103 32.174 88.2049 31.9873 88.5876 31.614C88.9703 31.2407 89.1616 30.6713 89.1616 29.906V28.87C89.1616 28.1047 88.9703 27.5353 88.5876 27.162C88.2049 26.7887 87.7103 26.602 87.1036 26.602C86.4969 26.602 86.0023 26.7887 85.6196 27.162C85.2369 27.5353 85.0456 28.1047 85.0456 28.87V29.906C85.0456 30.6713 85.2369 31.2407 85.6196 31.614C86.0023 31.9873 86.4969 32.174 87.1036 32.174ZM92.2076 33V25.776H93.3276V26.952H93.3836C93.5609 26.5413 93.8082 26.2147 94.1256 25.972C94.4522 25.7293 94.8862 25.608 95.4276 25.608C96.1742 25.608 96.7622 25.8507 97.1916 26.336C97.6302 26.812 97.8496 27.4887 97.8496 28.366V33H96.7296V28.562C96.7296 27.2647 96.1836 26.616 95.0916 26.616C94.8676 26.616 94.6482 26.644 94.4336 26.7C94.2282 26.756 94.0416 26.84 93.8736 26.952C93.7056 27.064 93.5702 27.2087 93.4676 27.386C93.3742 27.554 93.3276 27.7547 93.3276 27.988V33H92.2076Z" fill="#74788D"/>
<path d="M23.0516 70V67.753H27.0836V57.337H26.8946L23.7026 61.117L21.9806 59.668L25.6136 55.342H29.7926V67.753H33.1526V70H23.0516ZM45.1984 70H35.0344V67.438L39.6334 63.406C40.4174 62.72 40.9914 62.104 41.3554 61.558C41.7194 60.998 41.9014 60.396 41.9014 59.752V59.479C41.9014 58.835 41.6914 58.345 41.2714 58.009C40.8514 57.659 40.3404 57.484 39.7384 57.484C38.9824 57.484 38.4084 57.701 38.0164 58.135C37.6244 58.555 37.3444 59.066 37.1764 59.668L34.7824 58.744C34.9364 58.254 35.1534 57.792 35.4334 57.358C35.7134 56.91 36.0634 56.518 36.4834 56.182C36.9174 55.846 37.4214 55.58 37.9954 55.384C38.5694 55.188 39.2274 55.09 39.9694 55.09C40.7394 55.09 41.4254 55.202 42.0274 55.426C42.6294 55.636 43.1334 55.937 43.5394 56.329C43.9594 56.721 44.2744 57.183 44.4844 57.715C44.7084 58.247 44.8204 58.828 44.8204 59.458C44.8204 60.074 44.7224 60.634 44.5264 61.138C44.3304 61.642 44.0644 62.125 43.7284 62.587C43.3924 63.035 43.0004 63.469 42.5524 63.889C42.1044 64.295 41.6284 64.708 41.1244 65.128L38.0374 67.669H45.1984V70ZM49.4532 70.231C48.8792 70.231 48.4522 70.091 48.1722 69.811C47.9062 69.517 47.7732 69.146 47.7732 68.698V68.32C47.7732 67.872 47.9062 67.501 48.1722 67.207C48.4522 66.913 48.8792 66.766 49.4532 66.766C50.0412 66.766 50.4682 66.913 50.7342 67.207C51.0002 67.501 51.1332 67.872 51.1332 68.32V68.698C51.1332 69.146 51.0002 69.517 50.7342 69.811C50.4682 70.091 50.0412 70.231 49.4532 70.231ZM63.3941 57.736H56.8001L56.4641 62.65H56.6111C56.7651 62.342 56.9331 62.055 57.1151 61.789C57.2971 61.523 57.5071 61.299 57.7451 61.117C57.9831 60.935 58.2561 60.795 58.5641 60.697C58.8861 60.585 59.2711 60.529 59.7191 60.529C60.3491 60.529 60.9371 60.634 61.4831 60.844C62.0291 61.054 62.4981 61.362 62.8901 61.768C63.2961 62.16 63.6111 62.643 63.8351 63.217C64.0731 63.791 64.1921 64.442 64.1921 65.17C64.1921 65.912 64.0731 66.591 63.8351 67.207C63.5971 67.823 63.2471 68.362 62.7851 68.824C62.3231 69.272 61.7561 69.622 61.0841 69.874C60.4121 70.126 59.6421 70.252 58.7741 70.252C58.1021 70.252 57.5001 70.175 56.9681 70.021C56.4361 69.881 55.9671 69.685 55.5611 69.433C55.1551 69.181 54.8051 68.894 54.5111 68.572C54.2171 68.236 53.9581 67.886 53.7341 67.522L55.7501 65.968C55.9181 66.248 56.0931 66.514 56.2751 66.766C56.4571 67.004 56.6671 67.214 56.9051 67.396C57.1571 67.578 57.4301 67.725 57.7241 67.837C58.0321 67.935 58.3891 67.984 58.7951 67.984C59.6211 67.984 60.2441 67.753 60.6641 67.291C61.0981 66.829 61.3151 66.199 61.3151 65.401V65.233C61.3151 64.477 61.0981 63.882 60.6641 63.448C60.2301 63.014 59.6281 62.797 58.8581 62.797C58.2561 62.797 57.7661 62.916 57.3881 63.154C57.0101 63.378 56.7091 63.623 56.4851 63.889L54.2171 63.574L54.7631 55.342H63.3941V57.736ZM68.7199 70L73.8229 57.589H68.7619V60.277H66.4099V55.342H76.5739V57.715L71.6179 70H68.7199ZM81.5427 70L91.7067 55.342H94.1427L83.9787 70H81.5427ZM82.5507 63.406C81.3607 63.406 80.4507 63.056 79.8207 62.356C79.2047 61.642 78.8967 60.606 78.8967 59.248C78.8967 57.89 79.2047 56.861 79.8207 56.161C80.4507 55.447 81.3607 55.09 82.5507 55.09C83.7407 55.09 84.6437 55.447 85.2597 56.161C85.8757 56.861 86.1837 57.89 86.1837 59.248C86.1837 60.606 85.8757 61.642 85.2597 62.356C84.6437 63.056 83.7407 63.406 82.5507 63.406ZM82.5507 61.81C83.4187 61.81 83.8527 61.145 83.8527 59.815V58.681C83.8527 57.351 83.4187 56.686 82.5507 56.686C81.6827 56.686 81.2487 57.351 81.2487 58.681V59.815C81.2487 61.145 81.6827 61.81 82.5507 61.81ZM93.1347 70.252C91.9587 70.252 91.0557 69.902 90.4257 69.202C89.8097 68.488 89.5017 67.452 89.5017 66.094C89.5017 64.736 89.8097 63.707 90.4257 63.007C91.0557 62.293 91.9587 61.936 93.1347 61.936C94.3247 61.936 95.2277 62.293 95.8437 63.007C96.4737 63.707 96.7887 64.736 96.7887 66.094C96.7887 67.452 96.4737 68.488 95.8437 69.202C95.2277 69.902 94.3247 70.252 93.1347 70.252ZM93.1347 68.656C94.0027 68.656 94.4367 67.991 94.4367 66.661V65.527C94.4367 64.197 94.0027 63.532 93.1347 63.532C92.2667 63.532 91.8327 64.197 91.8327 65.527V66.661C91.8327 67.991 92.2667 68.656 93.1347 68.656Z" fill="#495057"/>
<g clip-path="url(#clip0_1_2210)">
<mask id="mask0_1_2210" style="mask-type:luminance" maskUnits="userSpaceOnUse" x="155" y="26" width="125" height="53">
<path d="M279.656 26.5938H155.656V78.5938H279.656V26.5938Z" fill="white"/>
</mask>
<g mask="url(#mask0_1_2210)">
<path d="M158.656 70.0938C161.606 70.0938 164.135 68.8438 167.085 68.8438C170.035 68.8438 172.563 76.3438 175.513 76.3438C178.463 76.3438 180.992 48.2188 183.942 48.2188C186.892 48.2188 189.421 51.3438 192.371 51.3438C195.321 51.3438 197.849 68.2188 200.799 68.2188C203.749 68.2188 206.278 48.2188 209.228 48.2188C212.178 48.2188 214.706 30.7188 217.656 30.7188C220.606 30.7188 223.135 36.9688 226.085 36.9688C229.035 36.9688 231.563 65.7188 234.513 65.7188C237.463 65.7188 239.992 68.8438 242.942 68.8438C245.892 68.8438 248.421 76.3438 251.371 76.3438C254.321 76.3438 256.849 48.2188 259.799 48.2188C262.749 48.2188 265.278 51.3438 268.228 51.3438C271.178 51.3438 273.706 68.2188 276.656 68.2188" stroke="#5156BE" stroke-opacity="0.85" stroke-width="2"/>
</g>
</g>
<rect x="21.1406" y="95.3125" width="46.5781" height="15.75" rx="4" fill="#2AB57D" fill-opacity="0.25"/>
<path d="M28.376 105.276V103.197H26.444V102.262H28.376V100.183H29.405V102.262H31.337V103.197H29.405V105.276H28.376ZM37.7169 105.938H32.7399V104.803L35.0814 102.714C35.4524 102.378 35.7359 102.059 35.9319 101.758C36.1349 101.45 36.2364 101.128 36.2364 100.792V100.656C36.2364 100.299 36.1279 100.019 35.9109 99.816C35.7009 99.613 35.4139 99.5115 35.0499 99.5115C34.8469 99.5115 34.6684 99.543 34.5144 99.606C34.3674 99.662 34.2379 99.7425 34.1259 99.8475C34.0139 99.9525 33.9194 100.075 33.8424 100.215C33.7724 100.355 33.7164 100.505 33.6744 100.666L32.6349 100.267C32.7119 100.036 32.8169 99.816 32.9499 99.606C33.0829 99.389 33.2509 99.1965 33.4539 99.0285C33.6569 98.8605 33.8949 98.7275 34.1679 98.6295C34.4479 98.5315 34.7734 98.4825 35.1444 98.4825C35.5154 98.4825 35.8479 98.5385 36.1419 98.6505C36.4359 98.7555 36.6809 98.906 36.8769 99.102C37.0799 99.291 37.2339 99.5185 37.3389 99.7845C37.4439 100.05 37.4964 100.341 37.4964 100.656C37.4964 100.95 37.4509 101.223 37.3599 101.475C37.2689 101.727 37.1429 101.965 36.9819 102.189C36.8209 102.413 36.6319 102.626 36.4149 102.829C36.2049 103.032 35.9809 103.239 35.7429 103.449L34.0209 104.929H37.7169V105.938ZM39.8548 106.064C39.5958 106.064 39.4033 105.997 39.2773 105.864C39.1513 105.724 39.0883 105.552 39.0883 105.349V105.192C39.0883 104.989 39.1513 104.821 39.2773 104.688C39.4033 104.548 39.5958 104.478 39.8548 104.478C40.1138 104.478 40.3063 104.548 40.4323 104.688C40.5583 104.821 40.6213 104.989 40.6213 105.192V105.349C40.6213 105.552 40.5583 105.724 40.4323 105.864C40.3063 105.997 40.1138 106.064 39.8548 106.064ZM47.0897 101.338C47.0897 101.87 47.0092 102.371 46.8482 102.84C46.6872 103.309 46.4807 103.739 46.2287 104.131C45.9767 104.523 45.6932 104.873 45.3782 105.181C45.0702 105.489 44.7657 105.741 44.4647 105.938H42.8897C43.3027 105.636 43.6737 105.346 44.0027 105.066C44.3317 104.786 44.6187 104.499 44.8637 104.205C45.1087 103.911 45.3117 103.599 45.4727 103.27C45.6407 102.941 45.7702 102.581 45.8612 102.189L45.7877 102.168C45.7107 102.315 45.6197 102.455 45.5147 102.588C45.4167 102.714 45.2977 102.826 45.1577 102.924C45.0247 103.022 44.8707 103.099 44.6957 103.155C44.5207 103.211 44.3177 103.239 44.0867 103.239C43.7787 103.239 43.4917 103.186 43.2257 103.081C42.9667 102.976 42.7392 102.826 42.5432 102.63C42.3542 102.427 42.2037 102.189 42.0917 101.916C41.9867 101.636 41.9342 101.321 41.9342 100.971C41.9342 100.607 41.9937 100.271 42.1127 99.963C42.2387 99.655 42.4137 99.3925 42.6377 99.1755C42.8617 98.9585 43.1312 98.7905 43.4462 98.6715C43.7612 98.5455 44.1147 98.4825 44.5067 98.4825C44.9127 98.4825 45.2732 98.549 45.5882 98.682C45.9102 98.815 46.1797 99.0075 46.3967 99.2595C46.6207 99.5045 46.7922 99.802 46.9112 100.152C47.0302 100.502 47.0897 100.897 47.0897 101.338ZM44.5067 102.283C44.9337 102.283 45.2662 102.171 45.5042 101.947C45.7422 101.716 45.8612 101.38 45.8612 100.939V100.792C45.8612 100.351 45.7422 100.019 45.5042 99.795C45.2662 99.564 44.9337 99.4485 44.5067 99.4485C44.0797 99.4485 43.7472 99.564 43.5092 99.795C43.2712 100.019 43.1522 100.351 43.1522 100.792V100.939C43.1522 101.38 43.2712 101.716 43.5092 101.947C43.7472 102.171 44.0797 102.283 44.5067 102.283ZM53.0076 99.6375H49.7526L49.5636 102.231H49.6371C49.7211 102.084 49.8086 101.954 49.8996 101.842C49.9906 101.723 50.0956 101.622 50.2146 101.538C50.3336 101.454 50.4701 101.391 50.6241 101.349C50.7781 101.3 50.9601 101.275 51.1701 101.275C51.4851 101.275 51.7756 101.328 52.0416 101.433C52.3146 101.538 52.5491 101.688 52.7451 101.884C52.9481 102.08 53.1056 102.322 53.2176 102.609C53.3296 102.889 53.3856 103.207 53.3856 103.564C53.3856 103.928 53.3261 104.264 53.2071 104.572C53.0951 104.88 52.9271 105.146 52.7031 105.37C52.4791 105.587 52.2026 105.759 51.8736 105.885C51.5516 106.004 51.1841 106.064 50.7711 106.064C50.4421 106.064 50.1516 106.025 49.8996 105.948C49.6476 105.878 49.4236 105.783 49.2276 105.664C49.0386 105.538 48.8706 105.398 48.7236 105.245C48.5836 105.083 48.4576 104.919 48.3456 104.751L49.2066 104.068C49.2976 104.215 49.3921 104.348 49.4901 104.467C49.5881 104.586 49.7001 104.691 49.8261 104.782C49.9521 104.873 50.0921 104.943 50.2461 104.992C50.4071 105.041 50.5891 105.066 50.7921 105.066C51.2261 105.066 51.5586 104.947 51.7896 104.709C52.0276 104.471 52.1466 104.142 52.1466 103.722V103.596C52.1466 103.176 52.0276 102.847 51.7896 102.609C51.5586 102.371 51.2261 102.252 50.7921 102.252C50.4771 102.252 50.2251 102.311 50.0361 102.43C49.8471 102.549 49.6861 102.682 49.5531 102.829L48.5766 102.693L48.8496 98.6085H53.0076V99.6375ZM55.87 105.938L60.952 98.6085H62.0125L56.9305 105.938H55.87ZM56.3425 102.64C55.7755 102.64 55.3415 102.465 55.0405 102.115C54.7395 101.758 54.589 101.24 54.589 100.561C54.589 99.8825 54.7395 99.368 55.0405 99.018C55.3415 98.661 55.7755 98.4825 56.3425 98.4825C56.9095 98.4825 57.3435 98.661 57.6445 99.018C57.9455 99.368 58.096 99.8825 58.096 100.561C58.096 101.24 57.9455 101.758 57.6445 102.115C57.3435 102.465 56.9095 102.64 56.3425 102.64ZM56.3425 101.937C56.8395 101.937 57.088 101.576 57.088 100.855V100.267C57.088 99.5465 56.8395 99.186 56.3425 99.186C55.8455 99.186 55.597 99.5465 55.597 100.267V100.855C55.597 101.576 55.8455 101.937 56.3425 101.937ZM61.54 106.064C60.973 106.064 60.539 105.888 60.238 105.538C59.937 105.181 59.7865 104.663 59.7865 103.984C59.7865 103.305 59.937 102.791 60.238 102.441C60.539 102.084 60.973 101.905 61.54 101.905C62.107 101.905 62.541 102.084 62.842 102.441C63.143 102.791 63.2935 103.305 63.2935 103.984C63.2935 104.663 63.143 105.181 62.842 105.538C62.541 105.888 62.107 106.064 61.54 106.064ZM61.54 105.36C62.037 105.36 62.2855 104.999 62.2855 104.278V103.69C62.2855 102.969 62.037 102.609 61.54 102.609C61.043 102.609 60.7945 102.969 60.7945 103.69V104.278C60.7945 104.999 61.043 105.36 61.54 105.36Z" fill="#2AB57D"/>
<path d="M78.7883 108.344C78.0516 108.344 77.4233 108.205 76.9033 107.927C76.3833 107.641 75.9413 107.251 75.5773 106.757L76.3833 106.081C76.7039 106.506 77.0593 106.831 77.4493 107.056C77.8393 107.273 78.2986 107.381 78.8273 107.381C79.4773 107.381 79.9713 107.225 80.3093 106.913C80.6559 106.601 80.8293 106.185 80.8293 105.665C80.8293 105.232 80.6993 104.898 80.4393 104.664C80.1793 104.43 79.7503 104.244 79.1523 104.105L78.4113 103.936C77.5793 103.746 76.9423 103.46 76.5003 103.078C76.0669 102.688 75.8503 102.142 75.8503 101.44C75.8503 101.042 75.9239 100.686 76.0713 100.374C76.2186 100.062 76.4223 99.8025 76.6823 99.5945C76.9509 99.3865 77.2673 99.2305 77.6313 99.1265C78.0039 99.0138 78.4113 98.9575 78.8532 98.9575C79.5379 98.9575 80.1229 99.0832 80.6083 99.3345C81.1023 99.5858 81.5183 99.9542 81.8563 100.439L81.0373 101.037C80.7859 100.691 80.4826 100.418 80.1273 100.218C79.7719 100.019 79.3299 99.9195 78.8013 99.9195C78.2206 99.9195 77.7613 100.045 77.4233 100.296C77.0939 100.539 76.9293 100.907 76.9293 101.401C76.9293 101.835 77.0679 102.164 77.3453 102.389C77.6313 102.606 78.0603 102.779 78.6323 102.909L79.3733 103.078C80.2659 103.278 80.9116 103.581 81.3103 103.988C81.7089 104.396 81.9083 104.937 81.9083 105.613C81.9083 106.029 81.8346 106.406 81.6873 106.744C81.5486 107.082 81.3449 107.368 81.0763 107.602C80.8076 107.836 80.4783 108.018 80.0883 108.148C79.7069 108.279 79.2736 108.344 78.7883 108.344ZM84.21 99.9065C83.9846 99.9065 83.82 99.8545 83.716 99.7505C83.6206 99.6378 83.573 99.4948 83.573 99.3215V99.1525C83.573 98.9792 83.6206 98.8405 83.716 98.7365C83.82 98.6238 83.9846 98.5675 84.21 98.5675C84.4353 98.5675 84.5956 98.6238 84.691 98.7365C84.795 98.8405 84.847 98.9792 84.847 99.1525V99.3215C84.847 99.4948 84.795 99.6378 84.691 99.7505C84.5956 99.8545 84.4353 99.9065 84.21 99.9065ZM83.69 101.479H84.73V108.188H83.69V101.479ZM86.94 108.188V101.479H87.98V102.571H88.032C88.1966 102.19 88.4263 101.887 88.721 101.661C89.0243 101.436 89.4273 101.324 89.93 101.324C90.6233 101.324 91.1693 101.549 91.568 101.999C91.9753 102.441 92.179 103.07 92.179 103.884V108.188H91.139V104.066C91.139 102.862 90.632 102.259 89.618 102.259C89.41 102.259 89.2063 102.285 89.007 102.337C88.8163 102.389 88.643 102.467 88.487 102.571C88.331 102.675 88.2053 102.81 88.11 102.974C88.0233 103.13 87.98 103.317 87.98 103.533V108.188H86.94ZM96.8246 108.344C96.3566 108.344 95.9363 108.261 95.5636 108.096C95.191 107.932 94.8746 107.698 94.6146 107.394C94.3633 107.091 94.1683 106.723 94.0296 106.289C93.8996 105.856 93.8346 105.371 93.8346 104.833C93.8346 104.296 93.8996 103.811 94.0296 103.377C94.1683 102.944 94.3633 102.576 94.6146 102.272C94.8746 101.969 95.191 101.735 95.5636 101.57C95.9363 101.406 96.3566 101.324 96.8246 101.324C97.492 101.324 98.025 101.471 98.4236 101.765C98.831 102.051 99.1343 102.428 99.3336 102.896L98.4626 103.338C98.3413 102.992 98.142 102.723 97.8646 102.532C97.5873 102.342 97.2406 102.246 96.8246 102.246C96.5126 102.246 96.2396 102.298 96.0056 102.402C95.7716 102.498 95.5766 102.636 95.4206 102.818C95.2646 102.992 95.1476 103.204 95.0696 103.455C94.9916 103.698 94.9526 103.967 94.9526 104.261V105.405C94.9526 105.995 95.1086 106.48 95.4206 106.861C95.7413 107.234 96.2093 107.42 96.8246 107.42C97.6653 107.42 98.272 107.03 98.6446 106.25L99.3986 106.757C99.182 107.243 98.857 107.628 98.4236 107.914C97.999 108.2 97.466 108.344 96.8246 108.344ZM103.313 108.344C102.853 108.344 102.437 108.261 102.065 108.096C101.701 107.932 101.384 107.698 101.116 107.394C100.856 107.082 100.652 106.714 100.505 106.289C100.366 105.856 100.297 105.371 100.297 104.833C100.297 104.305 100.366 103.824 100.505 103.39C100.652 102.957 100.856 102.589 101.116 102.285C101.384 101.973 101.701 101.735 102.065 101.57C102.437 101.406 102.853 101.324 103.313 101.324C103.763 101.324 104.166 101.406 104.522 101.57C104.877 101.735 105.18 101.965 105.432 102.259C105.683 102.545 105.874 102.888 106.004 103.286C106.142 103.685 106.212 104.123 106.212 104.599V105.093H101.389V105.405C101.389 105.691 101.432 105.96 101.519 106.211C101.614 106.454 101.744 106.666 101.909 106.848C102.082 107.03 102.29 107.173 102.533 107.277C102.784 107.381 103.066 107.433 103.378 107.433C103.802 107.433 104.171 107.334 104.483 107.134C104.803 106.935 105.05 106.649 105.224 106.277L105.965 106.809C105.748 107.269 105.41 107.641 104.951 107.927C104.491 108.205 103.945 108.344 103.313 108.344ZM103.313 102.194C103.027 102.194 102.767 102.246 102.533 102.35C102.299 102.446 102.095 102.584 101.922 102.766C101.757 102.948 101.627 103.165 101.532 103.416C101.436 103.659 101.389 103.928 101.389 104.222V104.313H105.094V104.17C105.094 103.572 104.929 103.096 104.6 102.74C104.279 102.376 103.85 102.194 103.313 102.194ZM112.103 108.188C111.739 108.188 111.461 108.088 111.271 107.888C111.089 107.68 110.998 107.42 110.998 107.108V98.5675H112.038V107.277H113.026V108.188H112.103ZM119.415 108.188C119.025 108.188 118.743 108.083 118.57 107.875C118.405 107.667 118.301 107.407 118.258 107.095H118.193C118.045 107.511 117.803 107.823 117.465 108.031C117.127 108.24 116.724 108.344 116.256 108.344C115.545 108.344 114.99 108.161 114.592 107.797C114.202 107.433 114.007 106.939 114.007 106.315C114.007 105.683 114.236 105.197 114.696 104.859C115.164 104.521 115.887 104.352 116.867 104.352H118.193V103.689C118.193 103.213 118.063 102.849 117.803 102.597C117.543 102.346 117.144 102.22 116.607 102.22C116.199 102.22 115.857 102.311 115.58 102.493C115.311 102.675 115.086 102.918 114.904 103.221L114.28 102.636C114.462 102.272 114.752 101.965 115.151 101.713C115.549 101.453 116.052 101.324 116.659 101.324C117.473 101.324 118.106 101.523 118.557 101.921C119.007 102.32 119.233 102.875 119.233 103.585V107.277H120V108.188H119.415ZM116.425 107.459C116.685 107.459 116.923 107.429 117.14 107.368C117.356 107.308 117.543 107.221 117.699 107.108C117.855 106.996 117.976 106.866 118.063 106.718C118.149 106.571 118.193 106.411 118.193 106.237V105.132H116.815C116.217 105.132 115.779 105.219 115.502 105.392C115.233 105.566 115.099 105.817 115.099 106.146V106.419C115.099 106.749 115.216 107.004 115.45 107.186C115.692 107.368 116.017 107.459 116.425 107.459ZM123.499 108.344C122.875 108.344 122.351 108.226 121.926 107.992C121.51 107.75 121.15 107.429 120.847 107.03L121.588 106.432C121.848 106.762 122.138 107.017 122.459 107.199C122.78 107.373 123.152 107.459 123.577 107.459C124.019 107.459 124.361 107.364 124.604 107.173C124.855 106.983 124.981 106.714 124.981 106.367C124.981 106.107 124.894 105.886 124.721 105.704C124.556 105.514 124.253 105.384 123.811 105.314L123.278 105.236C122.966 105.193 122.68 105.128 122.42 105.041C122.16 104.946 121.93 104.825 121.731 104.677C121.54 104.521 121.389 104.331 121.276 104.105C121.172 103.88 121.12 103.611 121.12 103.299C121.12 102.97 121.181 102.684 121.302 102.441C121.423 102.19 121.588 101.982 121.796 101.817C122.013 101.653 122.268 101.531 122.563 101.453C122.858 101.367 123.174 101.324 123.512 101.324C124.058 101.324 124.513 101.419 124.877 101.609C125.25 101.8 125.575 102.064 125.852 102.402L125.163 103.026C125.016 102.818 124.799 102.632 124.513 102.467C124.227 102.294 123.867 102.207 123.434 102.207C123.001 102.207 122.671 102.303 122.446 102.493C122.229 102.675 122.121 102.927 122.121 103.247C122.121 103.577 122.229 103.815 122.446 103.962C122.671 104.11 122.992 104.218 123.408 104.287L123.928 104.366C124.673 104.478 125.202 104.695 125.514 105.015C125.826 105.327 125.982 105.739 125.982 106.25C125.982 106.9 125.761 107.412 125.319 107.784C124.877 108.157 124.27 108.344 123.499 108.344ZM129.212 108.188C128.848 108.188 128.571 108.088 128.38 107.888C128.198 107.68 128.107 107.412 128.107 107.082V102.389H127.002V101.479H127.626C127.851 101.479 128.003 101.436 128.081 101.349C128.168 101.254 128.211 101.094 128.211 100.868V99.6205H129.147V101.479H130.616V102.389H129.147V107.277H130.512V108.188H129.212ZM134.658 101.479H135.672L136.387 104.378L137.102 107.316H137.128L137.947 104.378L138.792 101.479H139.715L140.586 104.378L141.418 107.316H141.444L142.133 104.378L142.861 101.479H143.836L142.055 108.188H140.768L139.832 104.963L139.247 102.922H139.221L138.649 104.963L137.713 108.188H136.452L134.658 101.479ZM147.797 108.344C147.338 108.344 146.922 108.261 146.549 108.096C146.185 107.932 145.869 107.698 145.6 107.394C145.34 107.082 145.136 106.714 144.989 106.289C144.85 105.856 144.781 105.371 144.781 104.833C144.781 104.305 144.85 103.824 144.989 103.39C145.136 102.957 145.34 102.589 145.6 102.285C145.869 101.973 146.185 101.735 146.549 101.57C146.922 101.406 147.338 101.324 147.797 101.324C148.248 101.324 148.651 101.406 149.006 101.57C149.361 101.735 149.665 101.965 149.916 102.259C150.167 102.545 150.358 102.888 150.488 103.286C150.627 103.685 150.696 104.123 150.696 104.599V105.093H145.873V105.405C145.873 105.691 145.916 105.96 146.003 106.211C146.098 106.454 146.228 106.666 146.393 106.848C146.566 107.03 146.774 107.173 147.017 107.277C147.268 107.381 147.55 107.433 147.862 107.433C148.287 107.433 148.655 107.334 148.967 107.134C149.288 106.935 149.535 106.649 149.708 106.277L150.449 106.809C150.232 107.269 149.894 107.641 149.435 107.927C148.976 108.205 148.43 108.344 147.797 108.344ZM147.797 102.194C147.511 102.194 147.251 102.246 147.017 102.35C146.783 102.446 146.579 102.584 146.406 102.766C146.241 102.948 146.111 103.165 146.016 103.416C145.921 103.659 145.873 103.928 145.873 104.222V104.313H149.578V104.17C149.578 103.572 149.413 103.096 149.084 102.74C148.763 102.376 148.334 102.194 147.797 102.194ZM154.932 108.344C154.472 108.344 154.056 108.261 153.684 108.096C153.32 107.932 153.003 107.698 152.735 107.394C152.475 107.082 152.271 106.714 152.124 106.289C151.985 105.856 151.916 105.371 151.916 104.833C151.916 104.305 151.985 103.824 152.124 103.39C152.271 102.957 152.475 102.589 152.735 102.285C153.003 101.973 153.32 101.735 153.684 101.57C154.056 101.406 154.472 101.324 154.932 101.324C155.382 101.324 155.785 101.406 156.141 101.57C156.496 101.735 156.799 101.965 157.051 102.259C157.302 102.545 157.493 102.888 157.623 103.286C157.761 103.685 157.831 104.123 157.831 104.599V105.093H153.008V105.405C153.008 105.691 153.051 105.96 153.138 106.211C153.233 106.454 153.363 106.666 153.528 106.848C153.701 107.03 153.909 107.173 154.152 107.277C154.403 107.381 154.685 107.433 154.997 107.433C155.421 107.433 155.79 107.334 156.102 107.134C156.422 106.935 156.669 106.649 156.843 106.277L157.584 106.809C157.367 107.269 157.029 107.641 156.57 107.927C156.11 108.205 155.564 108.344 154.932 108.344ZM154.932 102.194C154.646 102.194 154.386 102.246 154.152 102.35C153.918 102.446 153.714 102.584 153.541 102.766C153.376 102.948 153.246 103.165 153.151 103.416C153.055 103.659 153.008 103.928 153.008 104.222V104.313H156.713V104.17C156.713 103.572 156.548 103.096 156.219 102.74C155.898 102.376 155.469 102.194 154.932 102.194ZM159.544 98.5675H160.584V104.664H160.636L161.663 103.52L163.561 101.479H164.822L162.339 104.131L165.069 108.188H163.808L161.585 104.768L160.584 105.795V108.188H159.544V98.5675Z" fill="#74788D"/>
<rect x="0.640625" y="0.5" width="296.047" height="133.188" rx="3.5" stroke="#E9E9EF"/>
<defs>
<clipPath id="clip0_1_2210">
<rect width="118" height="50" fill="white" transform="translate(158.656 27.5938)"/>
</clipPath>
</defs>
</svg>
