<svg width="298" height="135" viewBox="0 0 298 135" fill="none" xmlns="http://www.w3.org/2000/svg">
<rect x="0.59375" y="0.5" width="296.047" height="133.188" rx="3.5" fill="white"/>
<g clip-path="url(#clip0_1_2173)">
<path d="M21.9338 33V32.02H23.3058V24.208H21.9338V23.228H25.8538V24.208H24.4818V32.02H25.8538V33H21.9338ZM27.8892 33V25.776H29.0092V26.952H29.0652C29.2426 26.5413 29.4899 26.2147 29.8072 25.972C30.1339 25.7293 30.5679 25.608 31.1092 25.608C31.8559 25.608 32.4439 25.8507 32.8732 26.336C33.3119 26.812 33.5312 27.4887 33.5312 28.366V33H32.4112V28.562C32.4112 27.2647 31.8652 26.616 30.7732 26.616C30.5492 26.616 30.3299 26.644 30.1152 26.7C29.9099 26.756 29.7232 26.84 29.5552 26.952C29.3872 27.064 29.2519 27.2087 29.1492 27.386C29.0559 27.554 29.0092 27.7547 29.0092 27.988V33H27.8892ZM37.3329 33L34.7989 25.776H35.9189L37.1789 29.36L37.9629 31.824H38.0329L38.8169 29.36L40.1049 25.776H41.1829L38.6349 33H37.3329ZM45.2341 33.168C44.7395 33.168 44.2915 33.0793 43.8901 32.902C43.4981 32.7247 43.1575 32.4727 42.8681 32.146C42.5881 31.81 42.3688 31.4133 42.2101 30.956C42.0608 30.4893 41.9861 29.9667 41.9861 29.388C41.9861 28.8187 42.0608 28.3007 42.2101 27.834C42.3688 27.3673 42.5881 26.9707 42.8681 26.644C43.1575 26.308 43.4981 26.0513 43.8901 25.874C44.2915 25.6967 44.7395 25.608 45.2341 25.608C45.7195 25.608 46.1535 25.6967 46.5361 25.874C46.9188 26.0513 47.2455 26.2987 47.5161 26.616C47.7868 26.924 47.9921 27.2927 48.1321 27.722C48.2815 28.1513 48.3561 28.6227 48.3561 29.136V29.668H43.1621V30.004C43.1621 30.312 43.2088 30.6013 43.3021 30.872C43.4048 31.1333 43.5448 31.362 43.7221 31.558C43.9088 31.754 44.1328 31.908 44.3941 32.02C44.6648 32.132 44.9681 32.188 45.3041 32.188C45.7615 32.188 46.1581 32.0807 46.4941 31.866C46.8395 31.6513 47.1055 31.3433 47.2921 30.942L48.0901 31.516C47.8568 32.0107 47.4928 32.412 46.9981 32.72C46.5035 33.0187 45.9155 33.168 45.2341 33.168ZM45.2341 26.546C44.9261 26.546 44.6461 26.602 44.3941 26.714C44.1421 26.8167 43.9228 26.966 43.7361 27.162C43.5588 27.358 43.4188 27.5913 43.3161 27.862C43.2135 28.1233 43.1621 28.4127 43.1621 28.73V28.828H47.1521V28.674C47.1521 28.03 46.9748 27.5167 46.6201 27.134C46.2748 26.742 45.8128 26.546 45.2341 26.546ZM52.3717 33.168C51.6997 33.168 51.1351 33.042 50.6777 32.79C50.2297 32.5287 49.8424 32.1833 49.5157 31.754L50.3137 31.11C50.5937 31.4647 50.9064 31.74 51.2517 31.936C51.5971 32.1227 51.9984 32.216 52.4557 32.216C52.9317 32.216 53.3004 32.1133 53.5617 31.908C53.8324 31.7027 53.9677 31.4133 53.9677 31.04C53.9677 30.76 53.8744 30.522 53.6877 30.326C53.5104 30.1207 53.1837 29.9807 52.7077 29.906L52.1337 29.822C51.7977 29.7753 51.4897 29.7053 51.2097 29.612C50.9297 29.5093 50.6824 29.3787 50.4677 29.22C50.2624 29.052 50.0991 28.8467 49.9777 28.604C49.8657 28.3613 49.8097 28.072 49.8097 27.736C49.8097 27.3813 49.8751 27.0733 50.0057 26.812C50.1364 26.5413 50.3137 26.3173 50.5377 26.14C50.7711 25.9627 51.0464 25.832 51.3637 25.748C51.6811 25.6547 52.0217 25.608 52.3857 25.608C52.9737 25.608 53.4637 25.7107 53.8557 25.916C54.2571 26.1213 54.6071 26.406 54.9057 26.77L54.1637 27.442C54.0051 27.218 53.7717 27.0173 53.4637 26.84C53.1557 26.6533 52.7684 26.56 52.3017 26.56C51.8351 26.56 51.4804 26.6627 51.2377 26.868C51.0044 27.064 50.8877 27.3347 50.8877 27.68C50.8877 28.0347 51.0044 28.2913 51.2377 28.45C51.4804 28.6087 51.8257 28.7253 52.2737 28.8L52.8337 28.884C53.6364 29.0053 54.2057 29.2387 54.5417 29.584C54.8777 29.92 55.0457 30.3633 55.0457 30.914C55.0457 31.614 54.8077 32.1647 54.3317 32.566C53.8557 32.9673 53.2024 33.168 52.3717 33.168ZM58.5243 33C58.1323 33 57.8336 32.8927 57.6283 32.678C57.4323 32.454 57.3343 32.1647 57.3343 31.81V26.756H56.1443V25.776H56.8163C57.0589 25.776 57.2223 25.7293 57.3063 25.636C57.3996 25.5333 57.4463 25.3607 57.4463 25.118V23.774H58.4543V25.776H60.0363V26.756H58.4543V32.02H59.9243V33H58.5243ZM64.4978 33.168C64.0031 33.168 63.5551 33.0793 63.1538 32.902C62.7618 32.7247 62.4211 32.4727 62.1318 32.146C61.8518 31.81 61.6325 31.4133 61.4738 30.956C61.3245 30.4893 61.2498 29.9667 61.2498 29.388C61.2498 28.8187 61.3245 28.3007 61.4738 27.834C61.6325 27.3673 61.8518 26.9707 62.1318 26.644C62.4211 26.308 62.7618 26.0513 63.1538 25.874C63.5551 25.6967 64.0031 25.608 64.4978 25.608C64.9831 25.608 65.4171 25.6967 65.7998 25.874C66.1825 26.0513 66.5091 26.2987 66.7798 26.616C67.0505 26.924 67.2558 27.2927 67.3958 27.722C67.5451 28.1513 67.6198 28.6227 67.6198 29.136V29.668H62.4258V30.004C62.4258 30.312 62.4725 30.6013 62.5658 30.872C62.6685 31.1333 62.8085 31.362 62.9858 31.558C63.1725 31.754 63.3965 31.908 63.6578 32.02C63.9285 32.132 64.2318 32.188 64.5678 32.188C65.0251 32.188 65.4218 32.0807 65.7578 31.866C66.1031 31.6513 66.3691 31.3433 66.5558 30.942L67.3538 31.516C67.1205 32.0107 66.7565 32.412 66.2618 32.72C65.7671 33.0187 65.1791 33.168 64.4978 33.168ZM64.4978 26.546C64.1898 26.546 63.9098 26.602 63.6578 26.714C63.4058 26.8167 63.1865 26.966 62.9998 27.162C62.8225 27.358 62.6825 27.5913 62.5798 27.862C62.4771 28.1233 62.4258 28.4127 62.4258 28.73V28.828H66.4158V28.674C66.4158 28.03 66.2385 27.5167 65.8838 27.134C65.5385 26.742 65.0765 26.546 64.4978 26.546ZM74.0854 31.824H74.0294C73.5907 32.72 72.8861 33.168 71.9154 33.168C71.4674 33.168 71.0614 33.0793 70.6974 32.902C70.3334 32.7247 70.0207 32.4727 69.7594 32.146C69.5074 31.8193 69.3114 31.4227 69.1714 30.956C69.0407 30.4893 68.9754 29.9667 68.9754 29.388C68.9754 28.8093 69.0407 28.2867 69.1714 27.82C69.3114 27.3533 69.5074 26.9567 69.7594 26.63C70.0207 26.3033 70.3334 26.0513 70.6974 25.874C71.0614 25.6967 71.4674 25.608 71.9154 25.608C72.4194 25.608 72.8487 25.72 73.2034 25.944C73.5674 26.1587 73.8427 26.4947 74.0294 26.952H74.0854V22.64H75.2054V33H74.0854V31.824ZM72.2234 32.16C72.4754 32.16 72.7134 32.1273 72.9374 32.062C73.1707 31.9967 73.3714 31.9033 73.5394 31.782C73.7074 31.6513 73.8381 31.4973 73.9314 31.32C74.0341 31.1333 74.0854 30.9233 74.0854 30.69V28.002C74.0854 27.806 74.0341 27.624 73.9314 27.456C73.8381 27.2787 73.7074 27.1293 73.5394 27.008C73.3714 26.8867 73.1707 26.7933 72.9374 26.728C72.7134 26.6533 72.4754 26.616 72.2234 26.616C71.5887 26.616 71.0894 26.8167 70.7254 27.218C70.3614 27.61 70.1794 28.128 70.1794 28.772V30.004C70.1794 30.648 70.3614 31.1707 70.7254 31.572C71.0894 31.964 71.5887 32.16 72.2234 32.16ZM87.1251 33L86.1451 30.116H82.1971L81.2171 33H80.0271L83.4431 23.228H84.9411L88.3571 33H87.1251ZM84.1991 24.32H84.1291L82.4771 29.08H85.8511L84.1991 24.32ZM89.8638 33V25.776H90.9838V26.952H91.0398C91.1238 26.7653 91.2172 26.5927 91.3198 26.434C91.4318 26.266 91.5625 26.1213 91.7118 26C91.8705 25.8787 92.0525 25.7853 92.2578 25.72C92.4632 25.6453 92.7058 25.608 92.9858 25.608C93.4618 25.608 93.9005 25.7247 94.3018 25.958C94.7032 26.182 95.0018 26.5553 95.1978 27.078H95.2258C95.3565 26.686 95.5992 26.3453 95.9538 26.056C96.3178 25.7573 96.8078 25.608 97.4238 25.608C98.1612 25.608 98.7352 25.8507 99.1458 26.336C99.5658 26.812 99.7758 27.4887 99.7758 28.366V33H98.6558V28.562C98.6558 27.918 98.5298 27.4327 98.2778 27.106C98.0258 26.7793 97.6245 26.616 97.0738 26.616C96.8498 26.616 96.6352 26.644 96.4298 26.7C96.2338 26.756 96.0565 26.84 95.8978 26.952C95.7392 27.064 95.6132 27.2087 95.5198 27.386C95.4265 27.554 95.3798 27.7547 95.3798 27.988V33H94.2598V28.562C94.2598 27.918 94.1338 27.4327 93.8818 27.106C93.6298 26.7793 93.2378 26.616 92.7058 26.616C92.4818 26.616 92.2672 26.644 92.0618 26.7C91.8565 26.756 91.6745 26.84 91.5158 26.952C91.3572 27.064 91.2265 27.2087 91.1238 27.386C91.0305 27.554 90.9838 27.7547 90.9838 27.988V33H89.8638ZM104.816 33.168C104.331 33.168 103.888 33.0793 103.486 32.902C103.085 32.7247 102.74 32.4727 102.45 32.146C102.17 31.81 101.951 31.4133 101.792 30.956C101.634 30.4893 101.554 29.9667 101.554 29.388C101.554 28.8187 101.634 28.3007 101.792 27.834C101.951 27.3673 102.17 26.9707 102.45 26.644C102.74 26.308 103.085 26.0513 103.486 25.874C103.888 25.6967 104.331 25.608 104.816 25.608C105.302 25.608 105.74 25.6967 106.132 25.874C106.534 26.0513 106.879 26.308 107.168 26.644C107.458 26.9707 107.682 27.3673 107.84 27.834C107.999 28.3007 108.078 28.8187 108.078 29.388C108.078 29.9667 107.999 30.4893 107.84 30.956C107.682 31.4133 107.458 31.81 107.168 32.146C106.879 32.4727 106.534 32.7247 106.132 32.902C105.74 33.0793 105.302 33.168 104.816 33.168ZM104.816 32.174C105.423 32.174 105.918 31.9873 106.3 31.614C106.683 31.2407 106.874 30.6713 106.874 29.906V28.87C106.874 28.1047 106.683 27.5353 106.3 27.162C105.918 26.7887 105.423 26.602 104.816 26.602C104.21 26.602 103.715 26.7887 103.332 27.162C102.95 27.5353 102.758 28.1047 102.758 28.87V29.906C102.758 30.6713 102.95 31.2407 103.332 31.614C103.715 31.9873 104.21 32.174 104.816 32.174ZM114.372 31.824H114.316C114.242 31.992 114.148 32.16 114.036 32.328C113.934 32.4867 113.803 32.6313 113.644 32.762C113.486 32.8833 113.294 32.9813 113.07 33.056C112.846 33.1307 112.585 33.168 112.286 33.168C111.54 33.168 110.947 32.93 110.508 32.454C110.07 31.9687 109.85 31.2873 109.85 30.41V25.776H110.97V30.214C110.97 31.5113 111.521 32.16 112.622 32.16C112.846 32.16 113.061 32.132 113.266 32.076C113.481 32.02 113.668 31.936 113.826 31.824C113.994 31.712 114.125 31.572 114.218 31.404C114.321 31.2267 114.372 31.0167 114.372 30.774V25.776H115.492V33H114.372V31.824ZM117.878 33V25.776H118.998V26.952H119.054C119.231 26.5413 119.478 26.2147 119.796 25.972C120.122 25.7293 120.556 25.608 121.098 25.608C121.844 25.608 122.432 25.8507 122.862 26.336C123.3 26.812 123.52 27.4887 123.52 28.366V33H122.4V28.562C122.4 27.2647 121.854 26.616 120.762 26.616C120.538 26.616 120.318 26.644 120.104 26.7C119.898 26.756 119.712 26.84 119.544 26.952C119.376 27.064 119.24 27.2087 119.138 27.386C119.044 27.554 118.998 27.7547 118.998 27.988V33H117.878ZM127.431 33C127.039 33 126.74 32.8927 126.535 32.678C126.339 32.454 126.241 32.1647 126.241 31.81V26.756H125.051V25.776H125.723C125.965 25.776 126.129 25.7293 126.213 25.636C126.306 25.5333 126.353 25.3607 126.353 25.118V23.774H127.361V25.776H128.943V26.756H127.361V32.02H128.831V33H127.431Z" fill="#74788D"/>
</g>
<path d="M26.4698 71.722V69.853C25.4058 69.769 24.5098 69.524 23.7818 69.118C23.0538 68.698 22.4238 68.18 21.8918 67.564L23.5928 66.01C23.9988 66.486 24.4538 66.878 24.9578 67.186C25.4618 67.48 26.0288 67.669 26.6588 67.753V63.49C25.1188 63.168 24.0058 62.678 23.3198 62.02C22.6478 61.348 22.3118 60.494 22.3118 59.458C22.3118 58.338 22.6758 57.442 23.4038 56.77C24.1318 56.084 25.1538 55.664 26.4698 55.51V53.62H28.5488V55.51C29.4308 55.608 30.1868 55.825 30.8168 56.161C31.4608 56.497 32.0208 56.959 32.4968 57.547L30.7748 59.038C30.4948 58.702 30.1588 58.408 29.7668 58.156C29.3888 57.904 28.9198 57.722 28.3598 57.61V61.516C29.8578 61.866 30.9568 62.356 31.6568 62.986C32.3568 63.602 32.7068 64.456 32.7068 65.548C32.7068 66.626 32.3568 67.557 31.6568 68.341C30.9568 69.111 29.9208 69.594 28.5488 69.79V71.722H26.4698ZM24.8528 59.353C24.8528 59.843 24.9928 60.221 25.2728 60.487C25.5668 60.753 26.0288 60.97 26.6588 61.138V57.589C25.4548 57.799 24.8528 58.387 24.8528 59.353ZM30.1868 65.737C30.1868 65.317 30.0538 64.953 29.7878 64.645C29.5358 64.323 29.0598 64.064 28.3598 63.868V67.732C28.9478 67.606 29.3958 67.368 29.7038 67.018C30.0258 66.654 30.1868 66.227 30.1868 65.737ZM40.9935 70V67.165H34.3575V64.813L40.1955 55.342H43.6185V65.023H45.5295V67.165H43.6185V70H40.9935ZM36.6255 65.023H40.9935V58.03H40.8255L36.6255 65.023ZM49.4063 70.231C48.8323 70.231 48.4053 70.091 48.1253 69.811C47.8593 69.517 47.7263 69.146 47.7263 68.698V68.32C47.7263 67.872 47.8593 67.501 48.1253 67.207C48.4053 66.913 48.8323 66.766 49.4063 66.766C49.9943 66.766 50.4213 66.913 50.6873 67.207C50.9533 67.501 51.0863 67.872 51.0863 68.32V68.698C51.0863 69.146 50.9533 69.517 50.6873 69.811C50.4213 70.091 49.9943 70.231 49.4063 70.231ZM58.0342 61.264C58.8742 61.264 59.4902 61.096 59.8822 60.76C60.2882 60.41 60.4912 59.969 60.4912 59.437V59.29C60.4912 58.688 60.2952 58.219 59.9032 57.883C59.5252 57.533 59.0002 57.358 58.3282 57.358C57.6842 57.358 57.1102 57.512 56.6062 57.82C56.1162 58.128 55.6892 58.562 55.3252 59.122L53.5612 57.526C53.8132 57.19 54.0862 56.875 54.3802 56.581C54.6882 56.273 55.0382 56.014 55.4302 55.804C55.8222 55.58 56.2632 55.405 56.7532 55.279C57.2432 55.153 57.7962 55.09 58.4122 55.09C59.1542 55.09 59.8262 55.181 60.4282 55.363C61.0442 55.531 61.5692 55.783 62.0032 56.119C62.4512 56.455 62.7942 56.861 63.0322 57.337C63.2702 57.799 63.3892 58.324 63.3892 58.912C63.3892 59.388 63.3122 59.815 63.1582 60.193C63.0182 60.571 62.8152 60.9 62.5492 61.18C62.2972 61.46 61.9962 61.691 61.6462 61.873C61.3102 62.041 60.9532 62.167 60.5752 62.251V62.377C60.9952 62.461 61.3942 62.594 61.7722 62.776C62.1502 62.958 62.4722 63.203 62.7382 63.511C63.0182 63.805 63.2352 64.155 63.3892 64.561C63.5572 64.967 63.6412 65.429 63.6412 65.947C63.6412 66.591 63.5082 67.179 63.2422 67.711C62.9902 68.243 62.6262 68.698 62.1502 69.076C61.6742 69.454 61.1072 69.748 60.4492 69.958C59.7912 70.154 59.0562 70.252 58.2442 70.252C57.5302 70.252 56.9002 70.175 56.3542 70.021C55.8082 69.881 55.3252 69.685 54.9052 69.433C54.4992 69.181 54.1422 68.894 53.8342 68.572C53.5262 68.236 53.2602 67.886 53.0362 67.522L55.0732 65.968C55.2412 66.262 55.4232 66.535 55.6192 66.787C55.8152 67.025 56.0392 67.235 56.2912 67.417C56.5432 67.599 56.8302 67.739 57.1522 67.837C57.4742 67.935 57.8382 67.984 58.2442 67.984C59.0562 67.984 59.6792 67.788 60.1132 67.396C60.5472 67.004 60.7642 66.465 60.7642 65.779V65.632C60.7642 64.96 60.5262 64.449 60.0502 64.099C59.5882 63.749 58.9162 63.574 58.0342 63.574H56.5852V61.264H58.0342ZM76.59 70H66.426V67.438L71.025 63.406C71.809 62.72 72.383 62.104 72.747 61.558C73.111 60.998 73.293 60.396 73.293 59.752V59.479C73.293 58.835 73.083 58.345 72.663 58.009C72.243 57.659 71.732 57.484 71.13 57.484C70.374 57.484 69.8 57.701 69.408 58.135C69.016 58.555 68.736 59.066 68.568 59.668L66.174 58.744C66.328 58.254 66.545 57.792 66.825 57.358C67.105 56.91 67.455 56.518 67.875 56.182C68.309 55.846 68.813 55.58 69.387 55.384C69.961 55.188 70.619 55.09 71.361 55.09C72.131 55.09 72.817 55.202 73.419 55.426C74.021 55.636 74.525 55.937 74.931 56.329C75.351 56.721 75.666 57.183 75.876 57.715C76.1 58.247 76.212 58.828 76.212 59.458C76.212 60.074 76.114 60.634 75.918 61.138C75.722 61.642 75.456 62.125 75.12 62.587C74.784 63.035 74.392 63.469 73.944 63.889C73.496 64.295 73.02 64.708 72.516 65.128L69.429 67.669H76.59V70ZM90.5048 59.479H90.4208L89.2868 61.81L86.2838 67.354L83.2808 61.81L82.1468 59.479H82.0628V70H79.4378V55.342H82.5668L86.3258 62.503H86.4098L90.1268 55.342H93.1298V70H90.5048V59.479Z" fill="#495057"/>
<g clip-path="url(#clip1_1_2173)">
<mask id="mask0_1_2173" style="mask-type:luminance" maskUnits="userSpaceOnUse" x="155" y="26" width="125" height="53">
<path d="M279.609 26.5938H155.609V78.5938H279.609V26.5938Z" fill="white"/>
</mask>
<g mask="url(#mask0_1_2173)">
<path d="M158.609 48.2188C161.559 48.2188 164.088 68.2188 167.038 68.2188C169.988 68.2188 172.517 76.3438 175.467 76.3438C178.417 76.3438 180.945 35.7188 183.895 35.7188C186.845 35.7188 189.374 63.8438 192.324 63.8438C195.274 63.8438 197.802 65.0938 200.752 65.0938C203.702 65.0938 206.231 55.0938 209.181 55.0938C212.131 55.0938 214.659 40.0938 217.609 40.0938C220.559 40.0938 223.088 40.0938 226.038 40.0938C228.988 40.0938 231.517 58.8438 234.467 58.8438C237.417 58.8438 239.945 46.3438 242.895 46.3438C245.845 46.3438 248.374 70.7188 251.324 70.7188C254.274 70.7188 256.802 70.0938 259.752 70.0938C262.702 70.0938 265.231 75.7188 268.181 75.7188C271.131 75.7188 273.659 72.5938 276.609 72.5938" stroke="#5156BE" stroke-opacity="0.85" stroke-width="2"/>
</g>
</g>
<rect x="21.0938" y="95.3125" width="44.8438" height="15.75" rx="4" fill="#2AB57D" fill-opacity="0.25"/>
<path d="M28.1956 105.276V103.197H26.2636V102.262H28.1956V100.183H29.2246V102.262H31.1566V103.197H29.2246V105.276H28.1956ZM37.0779 106.799V105.895C36.5459 105.853 36.0979 105.724 35.7339 105.507C35.3699 105.29 35.0549 105.024 34.7889 104.709L35.5554 104.016C35.7724 104.282 36.0069 104.495 36.2589 104.656C36.5179 104.817 36.8154 104.919 37.1514 104.961V102.609C36.3954 102.448 35.8494 102.206 35.5134 101.884C35.1774 101.555 35.0094 101.125 35.0094 100.593C35.0094 100.033 35.1949 99.5885 35.5659 99.2595C35.9369 98.9305 36.4409 98.731 37.0779 98.661V97.7475H37.9704V98.661C38.4184 98.703 38.8069 98.815 39.1359 98.997C39.4719 99.179 39.7624 99.4275 40.0074 99.7425L39.2304 100.383C39.0764 100.18 38.8909 100.012 38.6739 99.879C38.4639 99.739 38.2084 99.6445 37.9074 99.5955V101.748C38.3204 101.839 38.6634 101.947 38.9364 102.073C39.2094 102.199 39.4299 102.343 39.5979 102.504C39.7729 102.658 39.8989 102.84 39.9759 103.05C40.0529 103.253 40.0914 103.491 40.0914 103.764C40.0914 104.331 39.9059 104.803 39.5349 105.181C39.1709 105.559 38.6494 105.79 37.9704 105.874V106.799H37.0779ZM38.9889 103.837C38.9889 103.571 38.9119 103.354 38.7579 103.186C38.6039 103.011 38.3204 102.871 37.9074 102.766V104.95C38.2504 104.894 38.5164 104.768 38.7054 104.572C38.8944 104.376 38.9889 104.131 38.9889 103.837ZM36.1014 100.541C36.1014 100.834 36.1854 101.058 36.3534 101.212C36.5284 101.359 36.7944 101.482 37.1514 101.58V99.585C36.8154 99.634 36.5564 99.739 36.3744 99.9C36.1924 100.061 36.1014 100.274 36.1014 100.541ZM46.3035 105.938H41.3265V104.803L43.668 102.714C44.039 102.378 44.3225 102.059 44.5185 101.758C44.7215 101.45 44.823 101.128 44.823 100.792V100.656C44.823 100.299 44.7145 100.019 44.4975 99.816C44.2875 99.613 44.0005 99.5115 43.6365 99.5115C43.4335 99.5115 43.255 99.543 43.101 99.606C42.954 99.662 42.8245 99.7425 42.7125 99.8475C42.6005 99.9525 42.506 100.075 42.429 100.215C42.359 100.355 42.303 100.505 42.261 100.666L41.2215 100.267C41.2985 100.036 41.4035 99.816 41.5365 99.606C41.6695 99.389 41.8375 99.1965 42.0405 99.0285C42.2435 98.8605 42.4815 98.7275 42.7545 98.6295C43.0345 98.5315 43.36 98.4825 43.731 98.4825C44.102 98.4825 44.4345 98.5385 44.7285 98.6505C45.0225 98.7555 45.2675 98.906 45.4635 99.102C45.6665 99.291 45.8205 99.5185 45.9255 99.7845C46.0305 100.05 46.083 100.341 46.083 100.656C46.083 100.95 46.0375 101.223 45.9465 101.475C45.8555 101.727 45.7295 101.965 45.5685 102.189C45.4075 102.413 45.2185 102.626 45.0015 102.829C44.7915 103.032 44.5675 103.239 44.3295 103.449L42.6075 104.929H46.3035V105.938ZM48.4414 106.064C48.1824 106.064 47.9899 105.997 47.8639 105.864C47.7379 105.724 47.6749 105.552 47.6749 105.349V105.192C47.6749 104.989 47.7379 104.821 47.8639 104.688C47.9899 104.548 48.1824 104.478 48.4414 104.478C48.7004 104.478 48.8929 104.548 49.0189 104.688C49.1449 104.821 49.2079 104.989 49.2079 105.192V105.349C49.2079 105.552 49.1449 105.724 49.0189 105.864C48.8929 105.997 48.7004 106.064 48.4414 106.064ZM53.1144 106.064C52.6874 106.064 52.3094 106.011 51.9804 105.906C51.6584 105.794 51.3854 105.643 51.1614 105.454C50.9444 105.265 50.7764 105.041 50.6574 104.782C50.5454 104.523 50.4894 104.243 50.4894 103.942C50.4894 103.452 50.6224 103.06 50.8884 102.766C51.1614 102.465 51.5184 102.255 51.9594 102.136V102.052C51.5814 101.919 51.2769 101.709 51.0459 101.422C50.8219 101.135 50.7099 100.782 50.7099 100.362C50.7099 100.082 50.7624 99.8265 50.8674 99.5955C50.9794 99.3645 51.1369 99.1685 51.3399 99.0075C51.5429 98.8395 51.7949 98.71 52.0959 98.619C52.3969 98.528 52.7364 98.4825 53.1144 98.4825C53.4924 98.4825 53.8319 98.528 54.1329 98.619C54.4339 98.71 54.6859 98.8395 54.8889 99.0075C55.0919 99.1685 55.2459 99.3645 55.3509 99.5955C55.4629 99.8265 55.5189 100.082 55.5189 100.362C55.5189 100.782 55.4034 101.135 55.1724 101.422C54.9484 101.709 54.6474 101.919 54.2694 102.052V102.136C54.7104 102.255 55.0639 102.465 55.3299 102.766C55.6029 103.06 55.7394 103.452 55.7394 103.942C55.7394 104.243 55.6799 104.523 55.5609 104.782C55.4489 105.041 55.2809 105.265 55.0569 105.454C54.8399 105.643 54.5669 105.794 54.2379 105.906C53.9159 106.011 53.5414 106.064 53.1144 106.064ZM53.1144 105.108C53.5554 105.108 53.8949 105.006 54.1329 104.803C54.3779 104.6 54.5004 104.317 54.5004 103.953V103.743C54.5004 103.379 54.3779 103.095 54.1329 102.892C53.8949 102.689 53.5554 102.588 53.1144 102.588C52.6734 102.588 52.3304 102.689 52.0854 102.892C51.8474 103.095 51.7284 103.379 51.7284 103.743V103.953C51.7284 104.317 51.8474 104.6 52.0854 104.803C52.3304 105.006 52.6734 105.108 53.1144 105.108ZM53.1144 101.674C53.5204 101.674 53.8284 101.587 54.0384 101.412C54.2554 101.237 54.3639 100.981 54.3639 100.645V100.467C54.3639 100.131 54.2554 99.8755 54.0384 99.7005C53.8284 99.5255 53.5204 99.438 53.1144 99.438C52.7084 99.438 52.3969 99.5255 52.1799 99.7005C51.9699 99.8755 51.8649 100.131 51.8649 100.467V100.645C51.8649 100.981 51.9699 101.237 52.1799 101.412C52.3969 101.587 52.7084 101.674 53.1144 101.674ZM57.0793 98.1675H58.2238V102.934H58.2763L59.0323 101.958L60.3448 100.477H61.6783L59.7673 102.588L61.9093 105.938H60.5443L58.9798 103.333L58.2238 104.152V105.938H57.0793V98.1675Z" fill="#2AB57D"/>
<path d="M77.007 108.344C76.2703 108.344 75.642 108.205 75.122 107.927C74.602 107.641 74.16 107.251 73.796 106.757L74.602 106.081C74.9227 106.506 75.278 106.831 75.668 107.056C76.058 107.273 76.5173 107.381 77.046 107.381C77.696 107.381 78.19 107.225 78.528 106.913C78.8747 106.601 79.048 106.185 79.048 105.665C79.048 105.232 78.918 104.898 78.658 104.664C78.398 104.43 77.969 104.244 77.371 104.105L76.63 103.936C75.798 103.746 75.161 103.46 74.719 103.078C74.2857 102.688 74.069 102.142 74.069 101.44C74.069 101.042 74.1427 100.686 74.29 100.374C74.4373 100.062 74.641 99.8025 74.901 99.5945C75.1697 99.3865 75.486 99.2305 75.85 99.1265C76.2227 99.0138 76.63 98.9575 77.072 98.9575C77.7567 98.9575 78.3417 99.0832 78.827 99.3345C79.321 99.5858 79.737 99.9542 80.075 100.439L79.256 101.037C79.0047 100.691 78.7013 100.418 78.346 100.218C77.9907 100.019 77.5487 99.9195 77.02 99.9195C76.4393 99.9195 75.98 100.045 75.642 100.296C75.3127 100.539 75.148 100.907 75.148 101.401C75.148 101.835 75.2867 102.164 75.564 102.389C75.85 102.606 76.279 102.779 76.851 102.909L77.592 103.078C78.4847 103.278 79.1303 103.581 79.529 103.988C79.9277 104.396 80.127 104.937 80.127 105.613C80.127 106.029 80.0533 106.406 79.906 106.744C79.7673 107.082 79.5637 107.368 79.295 107.602C79.0263 107.836 78.697 108.018 78.307 108.148C77.9257 108.279 77.4923 108.344 77.007 108.344ZM82.4287 99.9065C82.2034 99.9065 82.0387 99.8545 81.9347 99.7505C81.8394 99.6378 81.7917 99.4948 81.7917 99.3215V99.1525C81.7917 98.9792 81.8394 98.8405 81.9347 98.7365C82.0387 98.6238 82.2034 98.5675 82.4287 98.5675C82.654 98.5675 82.8144 98.6238 82.9097 98.7365C83.0137 98.8405 83.0657 98.9792 83.0657 99.1525V99.3215C83.0657 99.4948 83.0137 99.6378 82.9097 99.7505C82.8144 99.8545 82.654 99.9065 82.4287 99.9065ZM81.9087 101.479H82.9487V108.188H81.9087V101.479ZM85.1587 108.188V101.479H86.1987V102.571H86.2507C86.4154 102.19 86.645 101.887 86.9397 101.661C87.243 101.436 87.646 101.324 88.1487 101.324C88.842 101.324 89.388 101.549 89.7867 101.999C90.194 102.441 90.3977 103.07 90.3977 103.884V108.188H89.3577V104.066C89.3577 102.862 88.8507 102.259 87.8367 102.259C87.6287 102.259 87.425 102.285 87.2257 102.337C87.035 102.389 86.8617 102.467 86.7057 102.571C86.5497 102.675 86.424 102.81 86.3287 102.974C86.242 103.13 86.1987 103.317 86.1987 103.533V108.188H85.1587ZM95.0434 108.344C94.5754 108.344 94.155 108.261 93.7824 108.096C93.4097 107.932 93.0934 107.698 92.8334 107.394C92.582 107.091 92.387 106.723 92.2484 106.289C92.1184 105.856 92.0534 105.371 92.0534 104.833C92.0534 104.296 92.1184 103.811 92.2484 103.377C92.387 102.944 92.582 102.576 92.8334 102.272C93.0934 101.969 93.4097 101.735 93.7824 101.57C94.155 101.406 94.5754 101.324 95.0434 101.324C95.7107 101.324 96.2437 101.471 96.6424 101.765C97.0497 102.051 97.353 102.428 97.5524 102.896L96.6814 103.338C96.56 102.992 96.3607 102.723 96.0834 102.532C95.806 102.342 95.4594 102.246 95.0434 102.246C94.7314 102.246 94.4584 102.298 94.2244 102.402C93.9904 102.498 93.7954 102.636 93.6394 102.818C93.4834 102.992 93.3664 103.204 93.2884 103.455C93.2104 103.698 93.1714 103.967 93.1714 104.261V105.405C93.1714 105.995 93.3274 106.48 93.6394 106.861C93.96 107.234 94.428 107.42 95.0434 107.42C95.884 107.42 96.4907 107.03 96.8634 106.25L97.6174 106.757C97.4007 107.243 97.0757 107.628 96.6424 107.914C96.2177 108.2 95.6847 108.344 95.0434 108.344ZM101.531 108.344C101.072 108.344 100.656 108.261 100.283 108.096C99.9193 107.932 99.603 107.698 99.3343 107.394C99.0743 107.082 98.8706 106.714 98.7233 106.289C98.5846 105.856 98.5153 105.371 98.5153 104.833C98.5153 104.305 98.5846 103.824 98.7233 103.39C98.8706 102.957 99.0743 102.589 99.3343 102.285C99.603 101.973 99.9193 101.735 100.283 101.57C100.656 101.406 101.072 101.324 101.531 101.324C101.982 101.324 102.385 101.406 102.74 101.57C103.096 101.735 103.399 101.965 103.65 102.259C103.902 102.545 104.092 102.888 104.222 103.286C104.361 103.685 104.43 104.123 104.43 104.599V105.093H99.6073V105.405C99.6073 105.691 99.6506 105.96 99.7373 106.211C99.8326 106.454 99.9626 106.666 100.127 106.848C100.301 107.03 100.509 107.173 100.751 107.277C101.003 107.381 101.284 107.433 101.596 107.433C102.021 107.433 102.389 107.334 102.701 107.134C103.022 106.935 103.269 106.649 103.442 106.277L104.183 106.809C103.967 107.269 103.629 107.641 103.169 107.927C102.71 108.205 102.164 108.344 101.531 108.344ZM101.531 102.194C101.245 102.194 100.985 102.246 100.751 102.35C100.517 102.446 100.314 102.584 100.14 102.766C99.9756 102.948 99.8456 103.165 99.7503 103.416C99.655 103.659 99.6073 103.928 99.6073 104.222V104.313H103.312V104.17C103.312 103.572 103.148 103.096 102.818 102.74C102.498 102.376 102.069 102.194 101.531 102.194ZM110.321 108.188C109.957 108.188 109.68 108.088 109.489 107.888C109.307 107.68 109.216 107.42 109.216 107.108V98.5675H110.256V107.277H111.244V108.188H110.321ZM117.633 108.188C117.243 108.188 116.962 108.083 116.788 107.875C116.624 107.667 116.52 107.407 116.476 107.095H116.411C116.264 107.511 116.021 107.823 115.683 108.031C115.345 108.24 114.942 108.344 114.474 108.344C113.764 108.344 113.209 108.161 112.81 107.797C112.42 107.433 112.225 106.939 112.225 106.315C112.225 105.683 112.455 105.197 112.914 104.859C113.382 104.521 114.106 104.352 115.085 104.352H116.411V103.689C116.411 103.213 116.281 102.849 116.021 102.597C115.761 102.346 115.363 102.22 114.825 102.22C114.418 102.22 114.076 102.311 113.798 102.493C113.53 102.675 113.304 102.918 113.122 103.221L112.498 102.636C112.68 102.272 112.971 101.965 113.369 101.713C113.768 101.453 114.271 101.324 114.877 101.324C115.692 101.324 116.325 101.523 116.775 101.921C117.226 102.32 117.451 102.875 117.451 103.585V107.277H118.218V108.188H117.633ZM114.643 107.459C114.903 107.459 115.142 107.429 115.358 107.368C115.575 107.308 115.761 107.221 115.917 107.108C116.073 106.996 116.195 106.866 116.281 106.718C116.368 106.571 116.411 106.411 116.411 106.237V105.132H115.033C114.435 105.132 113.998 105.219 113.72 105.392C113.452 105.566 113.317 105.817 113.317 106.146V106.419C113.317 106.749 113.434 107.004 113.668 107.186C113.911 107.368 114.236 107.459 114.643 107.459ZM121.718 108.344C121.094 108.344 120.569 108.226 120.145 107.992C119.729 107.75 119.369 107.429 119.066 107.03L119.807 106.432C120.067 106.762 120.357 107.017 120.678 107.199C120.998 107.373 121.371 107.459 121.796 107.459C122.238 107.459 122.58 107.364 122.823 107.173C123.074 106.983 123.2 106.714 123.2 106.367C123.2 106.107 123.113 105.886 122.94 105.704C122.775 105.514 122.472 105.384 122.03 105.314L121.497 105.236C121.185 105.193 120.899 105.128 120.639 105.041C120.379 104.946 120.149 104.825 119.95 104.677C119.759 104.521 119.607 104.331 119.495 104.105C119.391 103.88 119.339 103.611 119.339 103.299C119.339 102.97 119.399 102.684 119.521 102.441C119.642 102.19 119.807 101.982 120.015 101.817C120.231 101.653 120.487 101.531 120.782 101.453C121.076 101.367 121.393 101.324 121.731 101.324C122.277 101.324 122.732 101.419 123.096 101.609C123.468 101.8 123.793 102.064 124.071 102.402L123.382 103.026C123.234 102.818 123.018 102.632 122.732 102.467C122.446 102.294 122.086 102.207 121.653 102.207C121.219 102.207 120.89 102.303 120.665 102.493C120.448 102.675 120.34 102.927 120.34 103.247C120.34 103.577 120.448 103.815 120.665 103.962C120.89 104.11 121.211 104.218 121.627 104.287L122.147 104.366C122.892 104.478 123.421 104.695 123.733 105.015C124.045 105.327 124.201 105.739 124.201 106.25C124.201 106.9 123.98 107.412 123.538 107.784C123.096 108.157 122.489 108.344 121.718 108.344ZM127.431 108.188C127.067 108.188 126.789 108.088 126.599 107.888C126.417 107.68 126.326 107.412 126.326 107.082V102.389H125.221V101.479H125.845C126.07 101.479 126.222 101.436 126.3 101.349C126.386 101.254 126.43 101.094 126.43 100.868V99.6205H127.366V101.479H128.835V102.389H127.366V107.277H128.731V108.188H127.431ZM132.877 101.479H133.891L134.606 104.378L135.321 107.316H135.347L136.166 104.378L137.011 101.479H137.934L138.805 104.378L139.637 107.316H139.663L140.352 104.378L141.08 101.479H142.055L140.274 108.188H138.987L138.051 104.963L137.466 102.922H137.44L136.868 104.963L135.932 108.188H134.671L132.877 101.479ZM146.016 108.344C145.556 108.344 145.14 108.261 144.768 108.096C144.404 107.932 144.087 107.698 143.819 107.394C143.559 107.082 143.355 106.714 143.208 106.289C143.069 105.856 143 105.371 143 104.833C143 104.305 143.069 103.824 143.208 103.39C143.355 102.957 143.559 102.589 143.819 102.285C144.087 101.973 144.404 101.735 144.768 101.57C145.14 101.406 145.556 101.324 146.016 101.324C146.466 101.324 146.869 101.406 147.225 101.57C147.58 101.735 147.883 101.965 148.135 102.259C148.386 102.545 148.577 102.888 148.707 103.286C148.845 103.685 148.915 104.123 148.915 104.599V105.093H144.092V105.405C144.092 105.691 144.135 105.96 144.222 106.211C144.317 106.454 144.447 106.666 144.612 106.848C144.785 107.03 144.993 107.173 145.236 107.277C145.487 107.381 145.769 107.433 146.081 107.433C146.505 107.433 146.874 107.334 147.186 107.134C147.506 106.935 147.753 106.649 147.927 106.277L148.668 106.809C148.451 107.269 148.113 107.641 147.654 107.927C147.194 108.205 146.648 108.344 146.016 108.344ZM146.016 102.194C145.73 102.194 145.47 102.246 145.236 102.35C145.002 102.446 144.798 102.584 144.625 102.766C144.46 102.948 144.33 103.165 144.235 103.416C144.139 103.659 144.092 103.928 144.092 104.222V104.313H147.797V104.17C147.797 103.572 147.632 103.096 147.303 102.74C146.982 102.376 146.553 102.194 146.016 102.194ZM153.15 108.344C152.691 108.344 152.275 108.261 151.902 108.096C151.538 107.932 151.222 107.698 150.953 107.394C150.693 107.082 150.49 106.714 150.342 106.289C150.204 105.856 150.134 105.371 150.134 104.833C150.134 104.305 150.204 103.824 150.342 103.39C150.49 102.957 150.693 102.589 150.953 102.285C151.222 101.973 151.538 101.735 151.902 101.57C152.275 101.406 152.691 101.324 153.15 101.324C153.601 101.324 154.004 101.406 154.359 101.57C154.715 101.735 155.018 101.965 155.269 102.259C155.521 102.545 155.711 102.888 155.841 103.286C155.98 103.685 156.049 104.123 156.049 104.599V105.093H151.226V105.405C151.226 105.691 151.27 105.96 151.356 106.211C151.452 106.454 151.582 106.666 151.746 106.848C151.92 107.03 152.128 107.173 152.37 107.277C152.622 107.381 152.903 107.433 153.215 107.433C153.64 107.433 154.008 107.334 154.32 107.134C154.641 106.935 154.888 106.649 155.061 106.277L155.802 106.809C155.586 107.269 155.248 107.641 154.788 107.927C154.329 108.205 153.783 108.344 153.15 108.344ZM153.15 102.194C152.864 102.194 152.604 102.246 152.37 102.35C152.136 102.446 151.933 102.584 151.759 102.766C151.595 102.948 151.465 103.165 151.369 103.416C151.274 103.659 151.226 103.928 151.226 104.222V104.313H154.931V104.17C154.931 103.572 154.767 103.096 154.437 102.74C154.117 102.376 153.688 102.194 153.15 102.194ZM157.763 98.5675H158.803V104.664H158.855L159.882 103.52L161.78 101.479H163.041L160.558 104.131L163.288 108.188H162.027L159.804 104.768L158.803 105.795V108.188H157.763V98.5675Z" fill="#74788D"/>
<rect x="0.59375" y="0.5" width="296.047" height="133.188" rx="3.5" stroke="#E9E9EF"/>
<defs>
<clipPath id="clip0_1_2173">
<rect width="117.516" height="14" fill="white" transform="translate(21.0938 21)"/>
</clipPath>
<clipPath id="clip1_1_2173">
<rect width="118" height="50" fill="white" transform="translate(158.609 27.5938)"/>
</clipPath>
</defs>
</svg>
