<svg width="298" height="135" viewBox="0 0 298 135" fill="none" xmlns="http://www.w3.org/2000/svg">
<rect x="0.5" y="0.5" width="296.047" height="133.188" rx="3.5" fill="white"/>
<g clip-path="url(#clip0_1_2100)">
<path d="M29.918 24.768H29.848L29.022 26.406L26.684 30.662L24.346 26.406L23.52 24.768H23.45V33H22.302V23.228H23.87L26.67 28.492H26.74L29.554 23.228H31.066V33H29.918V24.768ZM38.0033 25.776H39.1093L35.8753 34.68C35.7913 34.8947 35.7073 35.072 35.6233 35.212C35.5393 35.3613 35.4367 35.478 35.3153 35.562C35.194 35.646 35.04 35.7067 34.8533 35.744C34.676 35.7813 34.4567 35.8 34.1953 35.8H33.6213V34.82H34.7553L35.3013 33.28L32.5993 25.776H33.7193L35.4553 30.69L35.7913 31.866H35.8613L36.2533 30.69L38.0033 25.776ZM45.3163 33L42.9363 23.228H44.1823L45.2323 27.932L46.0443 31.586H46.0723L46.9823 27.932L48.2143 23.228H49.5583L50.7483 27.932L51.6583 31.572H51.7003L52.5403 27.932L53.6463 23.228H54.8503L52.3443 33H51.0423L49.7683 28.128L48.8723 24.544H48.8443L47.9203 28.128L46.6183 33H45.3163ZM61.4283 33C61.0083 33 60.7049 32.888 60.5183 32.664C60.3409 32.44 60.2289 32.16 60.1823 31.824H60.1123C59.9536 32.272 59.6923 32.608 59.3283 32.832C58.9643 33.056 58.5303 33.168 58.0263 33.168C57.2609 33.168 56.6636 32.972 56.2343 32.58C55.8143 32.188 55.6043 31.656 55.6043 30.984C55.6043 30.3027 55.8516 29.78 56.3463 29.416C56.8503 29.052 57.6296 28.87 58.6843 28.87H60.1123V28.156C60.1123 27.6427 59.9723 27.2507 59.6923 26.98C59.4123 26.7093 58.9829 26.574 58.4043 26.574C57.9656 26.574 57.5969 26.672 57.2983 26.868C57.0089 27.064 56.7663 27.3253 56.5703 27.652L55.8983 27.022C56.0943 26.63 56.4069 26.2987 56.8363 26.028C57.2656 25.748 57.8069 25.608 58.4603 25.608C59.3376 25.608 60.0189 25.8227 60.5043 26.252C60.9896 26.6813 61.2323 27.2787 61.2323 28.044V32.02H62.0583V33H61.4283ZM58.2083 32.216C58.4883 32.216 58.7449 32.1833 58.9783 32.118C59.2116 32.0527 59.4123 31.9593 59.5803 31.838C59.7483 31.7167 59.8789 31.5767 59.9723 31.418C60.0656 31.2593 60.1123 31.0867 60.1123 30.9V29.71H58.6283C57.9843 29.71 57.5129 29.8033 57.2143 29.99C56.9249 30.1767 56.7803 30.4473 56.7803 30.802V31.096C56.7803 31.4507 56.9063 31.726 57.1583 31.922C57.4196 32.118 57.7696 32.216 58.2083 32.216ZM64.8468 33C64.4548 33 64.1561 32.8927 63.9508 32.678C63.7548 32.454 63.6568 32.174 63.6568 31.838V22.64H64.7768V32.02H65.8408V33H64.8468ZM68.5929 33C68.2009 33 67.9022 32.8927 67.6969 32.678C67.5009 32.454 67.4029 32.174 67.4029 31.838V22.64H68.5229V32.02H69.5869V33H68.5929ZM73.9333 33.168C73.4387 33.168 72.9907 33.0793 72.5893 32.902C72.1973 32.7247 71.8567 32.4727 71.5673 32.146C71.2873 31.81 71.068 31.4133 70.9093 30.956C70.76 30.4893 70.6853 29.9667 70.6853 29.388C70.6853 28.8187 70.76 28.3007 70.9093 27.834C71.068 27.3673 71.2873 26.9707 71.5673 26.644C71.8567 26.308 72.1973 26.0513 72.5893 25.874C72.9907 25.6967 73.4387 25.608 73.9333 25.608C74.4187 25.608 74.8527 25.6967 75.2353 25.874C75.618 26.0513 75.9447 26.2987 76.2153 26.616C76.486 26.924 76.6913 27.2927 76.8313 27.722C76.9807 28.1513 77.0553 28.6227 77.0553 29.136V29.668H71.8613V30.004C71.8613 30.312 71.908 30.6013 72.0013 30.872C72.104 31.1333 72.244 31.362 72.4213 31.558C72.608 31.754 72.832 31.908 73.0933 32.02C73.364 32.132 73.6673 32.188 74.0033 32.188C74.4607 32.188 74.8573 32.0807 75.1933 31.866C75.5387 31.6513 75.8047 31.3433 75.9913 30.942L76.7893 31.516C76.556 32.0107 76.192 32.412 75.6973 32.72C75.2027 33.0187 74.6147 33.168 73.9333 33.168ZM73.9333 26.546C73.6253 26.546 73.3453 26.602 73.0933 26.714C72.8413 26.8167 72.622 26.966 72.4353 27.162C72.258 27.358 72.118 27.5913 72.0153 27.862C71.9127 28.1233 71.8613 28.4127 71.8613 28.73V28.828H75.8513V28.674C75.8513 28.03 75.674 27.5167 75.3193 27.134C74.974 26.742 74.512 26.546 73.9333 26.546ZM80.4969 33C80.1049 33 79.8063 32.8927 79.6009 32.678C79.4049 32.454 79.3069 32.1647 79.3069 31.81V26.756H78.1169V25.776H78.7889C79.0316 25.776 79.1949 25.7293 79.2789 25.636C79.3723 25.5333 79.4189 25.3607 79.4189 25.118V23.774H80.4269V25.776H82.0089V26.756H80.4269V32.02H81.8969V33H80.4969Z" fill="#74788D"/>
</g>
<path d="M26.376 71.722V69.853C25.312 69.769 24.416 69.524 23.688 69.118C22.96 68.698 22.33 68.18 21.798 67.564L23.499 66.01C23.905 66.486 24.36 66.878 24.864 67.186C25.368 67.48 25.935 67.669 26.565 67.753V63.49C25.025 63.168 23.912 62.678 23.226 62.02C22.554 61.348 22.218 60.494 22.218 59.458C22.218 58.338 22.582 57.442 23.31 56.77C24.038 56.084 25.06 55.664 26.376 55.51V53.62H28.455V55.51C29.337 55.608 30.093 55.825 30.723 56.161C31.367 56.497 31.927 56.959 32.403 57.547L30.681 59.038C30.401 58.702 30.065 58.408 29.673 58.156C29.295 57.904 28.826 57.722 28.266 57.61V61.516C29.764 61.866 30.863 62.356 31.563 62.986C32.263 63.602 32.613 64.456 32.613 65.548C32.613 66.626 32.263 67.557 31.563 68.341C30.863 69.111 29.827 69.594 28.455 69.79V71.722H26.376ZM24.759 59.353C24.759 59.843 24.899 60.221 25.179 60.487C25.473 60.753 25.935 60.97 26.565 61.138V57.589C25.361 57.799 24.759 58.387 24.759 59.353ZM30.093 65.737C30.093 65.317 29.96 64.953 29.694 64.645C29.442 64.323 28.966 64.064 28.266 63.868V67.732C28.854 67.606 29.302 67.368 29.61 67.018C29.932 66.654 30.093 66.227 30.093 65.737ZM39.8918 70.252C39.0378 70.252 38.2748 70.147 37.6028 69.937C36.9448 69.713 36.3848 69.412 35.9228 69.034C35.4748 68.656 35.1318 68.208 34.8938 67.69C34.6558 67.172 34.5368 66.605 34.5368 65.989C34.5368 65.037 34.7958 64.267 35.3138 63.679C35.8458 63.077 36.5528 62.657 37.4348 62.419V62.251C36.7068 61.985 36.1118 61.572 35.6498 61.012C35.2018 60.452 34.9778 59.745 34.9778 58.891C34.9778 58.331 35.0828 57.82 35.2928 57.358C35.5168 56.896 35.8388 56.497 36.2588 56.161C36.6788 55.825 37.1898 55.566 37.7918 55.384C38.4078 55.188 39.1078 55.09 39.8918 55.09C40.6758 55.09 41.3688 55.188 41.9708 55.384C42.5868 55.566 43.1048 55.825 43.5248 56.161C43.9448 56.497 44.2598 56.896 44.4698 57.358C44.6938 57.82 44.8058 58.331 44.8058 58.891C44.8058 59.745 44.5748 60.452 44.1128 61.012C43.6648 61.572 43.0768 61.985 42.3488 62.251V62.419C43.2308 62.657 43.9308 63.077 44.4488 63.679C44.9808 64.267 45.2468 65.037 45.2468 65.989C45.2468 66.605 45.1278 67.172 44.8898 67.69C44.6518 68.208 44.3018 68.656 43.8398 69.034C43.3918 69.412 42.8318 69.713 42.1598 69.937C41.5018 70.147 40.7458 70.252 39.8918 70.252ZM39.8918 68.089C40.6898 68.089 41.2988 67.907 41.7188 67.543C42.1528 67.179 42.3698 66.668 42.3698 66.01V65.569C42.3698 64.911 42.1528 64.4 41.7188 64.036C41.2988 63.672 40.6898 63.49 39.8918 63.49C39.0938 63.49 38.4778 63.672 38.0438 64.036C37.6238 64.4 37.4138 64.911 37.4138 65.569V66.01C37.4138 66.668 37.6238 67.179 38.0438 67.543C38.4778 67.907 39.0938 68.089 39.8918 68.089ZM39.8918 61.432C40.6338 61.432 41.2008 61.264 41.5928 60.928C41.9848 60.592 42.1808 60.116 42.1808 59.5V59.164C42.1808 58.562 41.9848 58.093 41.5928 57.757C41.2008 57.421 40.6338 57.253 39.8918 57.253C39.1498 57.253 38.5828 57.421 38.1908 57.757C37.7988 58.093 37.6028 58.562 37.6028 59.164V59.5C37.6028 60.116 37.7988 60.592 38.1908 60.928C38.5828 61.264 39.1498 61.432 39.8918 61.432ZM52.5466 70.252C51.7066 70.252 50.9576 70.119 50.2996 69.853C49.6416 69.573 49.0816 69.188 48.6196 68.698C48.1576 68.194 47.8076 67.592 47.5696 66.892C47.3316 66.178 47.2126 65.38 47.2126 64.498C47.2126 63.448 47.3666 62.461 47.6746 61.537C47.9966 60.599 48.4096 59.745 48.9136 58.975C49.4176 58.191 49.9776 57.498 50.5936 56.896C51.2236 56.28 51.8466 55.762 52.4626 55.342H56.2006C55.3326 55.958 54.5556 56.553 53.8696 57.127C53.1976 57.701 52.6026 58.282 52.0846 58.87C51.5806 59.458 51.1606 60.074 50.8246 60.718C50.5026 61.348 50.2576 62.034 50.0896 62.776L50.2576 62.818C50.3976 62.538 50.5586 62.272 50.7406 62.02C50.9366 61.754 51.1676 61.523 51.4336 61.327C51.6996 61.117 52.0076 60.956 52.3576 60.844C52.7076 60.718 53.1136 60.655 53.5756 60.655C54.1776 60.655 54.7376 60.76 55.2556 60.97C55.7876 61.18 56.2426 61.488 56.6206 61.894C57.0126 62.286 57.3136 62.762 57.5236 63.322C57.7476 63.882 57.8596 64.505 57.8596 65.191C57.8596 65.933 57.7336 66.612 57.4816 67.228C57.2296 67.844 56.8726 68.376 56.4106 68.824C55.9486 69.272 55.3886 69.622 54.7306 69.874C54.0866 70.126 53.3586 70.252 52.5466 70.252ZM52.5466 68.068C53.3166 68.068 53.9186 67.858 54.3526 67.438C54.8006 67.004 55.0246 66.388 55.0246 65.59V65.275C55.0246 64.477 54.8006 63.868 54.3526 63.448C53.9186 63.014 53.3166 62.797 52.5466 62.797C51.7626 62.797 51.1536 63.014 50.7196 63.448C50.2856 63.868 50.0686 64.477 50.0686 65.275V65.59C50.0686 66.388 50.2856 67.004 50.7196 67.438C51.1536 67.858 51.7626 68.068 52.5466 68.068ZM69.5904 57.736H62.9964L62.6604 62.65H62.8074C62.9614 62.342 63.1294 62.055 63.3114 61.789C63.4934 61.523 63.7034 61.299 63.9414 61.117C64.1794 60.935 64.4524 60.795 64.7604 60.697C65.0824 60.585 65.4674 60.529 65.9154 60.529C66.5454 60.529 67.1334 60.634 67.6794 60.844C68.2254 61.054 68.6944 61.362 69.0864 61.768C69.4924 62.16 69.8074 62.643 70.0314 63.217C70.2694 63.791 70.3884 64.442 70.3884 65.17C70.3884 65.912 70.2694 66.591 70.0314 67.207C69.7934 67.823 69.4434 68.362 68.9814 68.824C68.5194 69.272 67.9524 69.622 67.2804 69.874C66.6084 70.126 65.8384 70.252 64.9704 70.252C64.2984 70.252 63.6964 70.175 63.1644 70.021C62.6324 69.881 62.1634 69.685 61.7574 69.433C61.3514 69.181 61.0014 68.894 60.7074 68.572C60.4134 68.236 60.1544 67.886 59.9304 67.522L61.9464 65.968C62.1144 66.248 62.2894 66.514 62.4714 66.766C62.6534 67.004 62.8634 67.214 63.1014 67.396C63.3534 67.578 63.6264 67.725 63.9204 67.837C64.2284 67.935 64.5854 67.984 64.9914 67.984C65.8174 67.984 66.4404 67.753 66.8604 67.291C67.2944 66.829 67.5114 66.199 67.5114 65.401V65.233C67.5114 64.477 67.2944 63.882 66.8604 63.448C66.4264 63.014 65.8244 62.797 65.0544 62.797C64.4524 62.797 63.9624 62.916 63.5844 63.154C63.2064 63.378 62.9054 63.623 62.6814 63.889L60.4134 63.574L60.9594 55.342H69.5904V57.736ZM74.4962 70.231C73.9222 70.231 73.4952 70.091 73.2152 69.811C72.9492 69.517 72.8162 69.146 72.8162 68.698V68.32C72.8162 67.872 72.9492 67.501 73.2152 67.207C73.4952 66.913 73.9222 66.766 74.4962 66.766C75.0842 66.766 75.5112 66.913 75.7772 67.207C76.0432 67.501 76.1762 67.872 76.1762 68.32V68.698C76.1762 69.146 76.0432 69.517 75.7772 69.811C75.5112 70.091 75.0842 70.231 74.4962 70.231ZM89.0881 70H78.9241V67.438L83.5231 63.406C84.3071 62.72 84.8811 62.104 85.2451 61.558C85.6091 60.998 85.7911 60.396 85.7911 59.752V59.479C85.7911 58.835 85.5811 58.345 85.1611 58.009C84.7411 57.659 84.2301 57.484 83.6281 57.484C82.8721 57.484 82.2981 57.701 81.9061 58.135C81.5141 58.555 81.2341 59.066 81.0661 59.668L78.6721 58.744C78.8261 58.254 79.0431 57.792 79.3231 57.358C79.6031 56.91 79.9531 56.518 80.3731 56.182C80.8071 55.846 81.3111 55.58 81.8851 55.384C82.4591 55.188 83.1171 55.09 83.8591 55.09C84.6291 55.09 85.3151 55.202 85.9171 55.426C86.5191 55.636 87.0231 55.937 87.4291 56.329C87.8491 56.721 88.1641 57.183 88.3741 57.715C88.5981 58.247 88.7101 58.828 88.7101 59.458C88.7101 60.074 88.6121 60.634 88.4161 61.138C88.2201 61.642 87.9541 62.125 87.6181 62.587C87.2821 63.035 86.8901 63.469 86.4421 63.889C85.9941 64.295 85.5181 64.708 85.0141 65.128L81.9271 67.669H89.0881V70ZM91.7679 54.46H94.4559V63.826H94.5609L96.0099 61.852L98.4669 59.038H101.512L97.7319 63.28L101.911 70H98.7189L95.9049 65.086L94.4559 66.661V70H91.7679V54.46Z" fill="#495057"/>
<g clip-path="url(#clip1_1_2100)">
<mask id="mask0_1_2100" style="mask-type:luminance" maskUnits="userSpaceOnUse" x="155" y="26" width="125" height="53">
<path d="M279.516 26.5938H155.516V78.5938H279.516V26.5938Z" fill="white"/>
</mask>
<g mask="url(#mask0_1_2100)">
<path d="M158.516 76.3438C161.466 76.3438 163.994 71.3438 166.944 71.3438C169.894 71.3438 172.423 66.3438 175.373 66.3438C178.323 66.3438 180.851 63.8438 183.801 63.8438C186.751 63.8438 189.28 55.0938 192.23 55.0938C195.18 55.0938 197.708 68.2188 200.658 68.2188C203.608 68.2188 206.137 48.2188 209.087 48.2188C212.037 48.2188 214.566 30.7188 217.516 30.7188C220.466 30.7188 222.994 36.9688 225.944 36.9688C228.894 36.9688 231.423 65.7188 234.373 65.7188C237.323 65.7188 239.851 68.8438 242.801 68.8438C245.751 68.8438 248.28 76.3438 251.23 76.3438C254.18 76.3438 256.708 48.2188 259.658 48.2188C262.608 48.2188 265.137 51.3438 268.087 51.3438C271.037 51.3438 273.566 68.2188 276.516 68.2188" stroke="#5156BE" stroke-opacity="0.85" stroke-width="2"/>
</g>
</g>
<rect x="21" y="95.3125" width="48.6562" height="15.75" rx="4" fill="#2AB57D" fill-opacity="0.25"/>
<path d="M28.1946 105.276V103.197H26.2626V102.262H28.1946V100.183H29.2236V102.262H31.1556V103.197H29.2236V105.276H28.1946ZM34.5955 106.799V105.895C34.0635 105.853 33.6155 105.724 33.2515 105.507C32.8875 105.29 32.5725 105.024 32.3065 104.709L33.073 104.016C33.29 104.282 33.5245 104.495 33.7765 104.656C34.0355 104.817 34.333 104.919 34.669 104.961V102.609C33.913 102.448 33.367 102.206 33.031 101.884C32.695 101.555 32.527 101.125 32.527 100.593C32.527 100.033 32.7125 99.5885 33.0835 99.2595C33.4545 98.9305 33.9585 98.731 34.5955 98.661V97.7475H35.488V98.661C35.936 98.703 36.3245 98.815 36.6535 98.997C36.9895 99.179 37.28 99.4275 37.525 99.7425L36.748 100.383C36.594 100.18 36.4085 100.012 36.1915 99.879C35.9815 99.739 35.726 99.6445 35.425 99.5955V101.748C35.838 101.839 36.181 101.947 36.454 102.073C36.727 102.199 36.9475 102.343 37.1155 102.504C37.2905 102.658 37.4165 102.84 37.4935 103.05C37.5705 103.253 37.609 103.491 37.609 103.764C37.609 104.331 37.4235 104.803 37.0525 105.181C36.6885 105.559 36.167 105.79 35.488 105.874V106.799H34.5955ZM36.5065 103.837C36.5065 103.571 36.4295 103.354 36.2755 103.186C36.1215 103.011 35.838 102.871 35.425 102.766V104.95C35.768 104.894 36.034 104.768 36.223 104.572C36.412 104.376 36.5065 104.131 36.5065 103.837ZM33.619 100.541C33.619 100.834 33.703 101.058 33.871 101.212C34.046 101.359 34.312 101.482 34.669 101.58V99.585C34.333 99.634 34.074 99.739 33.892 99.9C33.71 100.061 33.619 100.274 33.619 100.541ZM43.8211 105.938H38.8441V104.803L41.1856 102.714C41.5566 102.378 41.8401 102.059 42.0361 101.758C42.2391 101.45 42.3406 101.128 42.3406 100.792V100.656C42.3406 100.299 42.2321 100.019 42.0151 99.816C41.8051 99.613 41.5181 99.5115 41.1541 99.5115C40.9511 99.5115 40.7726 99.543 40.6186 99.606C40.4716 99.662 40.3421 99.7425 40.2301 99.8475C40.1181 99.9525 40.0236 100.075 39.9466 100.215C39.8766 100.355 39.8206 100.505 39.7786 100.666L38.7391 100.267C38.8161 100.036 38.9211 99.816 39.0541 99.606C39.1871 99.389 39.3551 99.1965 39.5581 99.0285C39.7611 98.8605 39.9991 98.7275 40.2721 98.6295C40.5521 98.5315 40.8776 98.4825 41.2486 98.4825C41.6196 98.4825 41.9521 98.5385 42.2461 98.6505C42.5401 98.7555 42.7851 98.906 42.9811 99.102C43.1841 99.291 43.3381 99.5185 43.4431 99.7845C43.5481 100.05 43.6006 100.341 43.6006 100.656C43.6006 100.95 43.5551 101.223 43.4641 101.475C43.3731 101.727 43.2471 101.965 43.0861 102.189C42.9251 102.413 42.7361 102.626 42.5191 102.829C42.3091 103.032 42.0851 103.239 41.8471 103.449L40.1251 104.929H43.8211V105.938ZM47.5865 106.064C47.1315 106.064 46.736 105.98 46.4 105.811C46.064 105.636 45.7875 105.388 45.5705 105.066C45.3535 104.744 45.1925 104.348 45.0875 103.879C44.9825 103.41 44.93 102.875 44.93 102.273C44.93 101.678 44.9825 101.146 45.0875 100.677C45.1925 100.201 45.3535 99.802 45.5705 99.48C45.7875 99.158 46.064 98.913 46.4 98.745C46.736 98.57 47.1315 98.4825 47.5865 98.4825C48.4965 98.4825 49.165 98.815 49.592 99.48C50.026 100.145 50.243 101.076 50.243 102.273C50.243 103.47 50.026 104.401 49.592 105.066C49.165 105.731 48.4965 106.064 47.5865 106.064ZM47.5865 105.055C47.8385 105.055 48.052 105.006 48.227 104.908C48.409 104.803 48.556 104.656 48.668 104.467C48.78 104.278 48.8605 104.054 48.9095 103.795C48.9585 103.529 48.983 103.235 48.983 102.913V101.632C48.983 101.31 48.9585 101.02 48.9095 100.761C48.8605 100.495 48.78 100.267 48.668 100.078C48.556 99.8895 48.409 99.746 48.227 99.648C48.052 99.543 47.8385 99.4905 47.5865 99.4905C47.3345 99.4905 47.1175 99.543 46.9355 99.648C46.7605 99.746 46.617 99.8895 46.505 100.078C46.393 100.267 46.3125 100.495 46.2635 100.761C46.2145 101.02 46.19 101.31 46.19 101.632V102.913C46.19 103.235 46.2145 103.529 46.2635 103.795C46.3125 104.054 46.393 104.278 46.505 104.467C46.617 104.656 46.7605 104.803 46.9355 104.908C47.1175 105.006 47.3345 105.055 47.5865 105.055ZM52.2549 106.064C51.9959 106.064 51.8034 105.997 51.6774 105.864C51.5514 105.724 51.4884 105.552 51.4884 105.349V105.192C51.4884 104.989 51.5514 104.821 51.6774 104.688C51.8034 104.548 51.9959 104.478 52.2549 104.478C52.5139 104.478 52.7064 104.548 52.8324 104.688C52.9584 104.821 53.0214 104.989 53.0214 105.192V105.349C53.0214 105.552 52.9584 105.724 52.8324 105.864C52.7064 105.997 52.5139 106.064 52.2549 106.064ZM59.4898 101.338C59.4898 101.87 59.4093 102.371 59.2483 102.84C59.0873 103.309 58.8808 103.739 58.6288 104.131C58.3768 104.523 58.0933 104.873 57.7783 105.181C57.4703 105.489 57.1658 105.741 56.8648 105.938H55.2898C55.7028 105.636 56.0738 105.346 56.4028 105.066C56.7318 104.786 57.0188 104.499 57.2638 104.205C57.5088 103.911 57.7118 103.599 57.8728 103.27C58.0408 102.941 58.1703 102.581 58.2613 102.189L58.1878 102.168C58.1108 102.315 58.0198 102.455 57.9148 102.588C57.8168 102.714 57.6978 102.826 57.5578 102.924C57.4248 103.022 57.2708 103.099 57.0958 103.155C56.9208 103.211 56.7178 103.239 56.4868 103.239C56.1788 103.239 55.8918 103.186 55.6258 103.081C55.3668 102.976 55.1393 102.826 54.9433 102.63C54.7543 102.427 54.6038 102.189 54.4918 101.916C54.3868 101.636 54.3343 101.321 54.3343 100.971C54.3343 100.607 54.3938 100.271 54.5128 99.963C54.6388 99.655 54.8138 99.3925 55.0378 99.1755C55.2618 98.9585 55.5313 98.7905 55.8463 98.6715C56.1613 98.5455 56.5148 98.4825 56.9068 98.4825C57.3128 98.4825 57.6733 98.549 57.9883 98.682C58.3103 98.815 58.5798 99.0075 58.7968 99.2595C59.0208 99.5045 59.1923 99.802 59.3113 100.152C59.4303 100.502 59.4898 100.897 59.4898 101.338ZM56.9068 102.283C57.3338 102.283 57.6663 102.171 57.9043 101.947C58.1423 101.716 58.2613 101.38 58.2613 100.939V100.792C58.2613 100.351 58.1423 100.019 57.9043 99.795C57.6663 99.564 57.3338 99.4485 56.9068 99.4485C56.4798 99.4485 56.1473 99.564 55.9093 99.795C55.6713 100.019 55.5523 100.351 55.5523 100.792V100.939C55.5523 101.38 55.6713 101.716 55.9093 101.947C56.1473 102.171 56.4798 102.283 56.9068 102.283ZM60.8927 98.1675H62.0372V102.934H62.0897L62.8457 101.958L64.1582 100.477H65.4917L63.5807 102.588L65.7227 105.938H64.3577L62.7932 103.333L62.0372 104.152V105.938H60.8927V98.1675Z" fill="#2AB57D"/>
<path d="M80.7258 108.344C79.9891 108.344 79.3608 108.205 78.8408 107.927C78.3208 107.641 77.8788 107.251 77.5148 106.757L78.3208 106.081C78.6414 106.506 78.9968 106.831 79.3868 107.056C79.7768 107.273 80.2361 107.381 80.7648 107.381C81.4148 107.381 81.9088 107.225 82.2468 106.913C82.5934 106.601 82.7668 106.185 82.7668 105.665C82.7668 105.232 82.6368 104.898 82.3768 104.664C82.1168 104.43 81.6878 104.244 81.0898 104.105L80.3488 103.936C79.5168 103.746 78.8798 103.46 78.4378 103.078C78.0044 102.688 77.7878 102.142 77.7878 101.44C77.7878 101.042 77.8614 100.686 78.0088 100.374C78.1561 100.062 78.3598 99.8025 78.6198 99.5945C78.8884 99.3865 79.2048 99.2305 79.5688 99.1265C79.9414 99.0138 80.3488 98.9575 80.7907 98.9575C81.4754 98.9575 82.0604 99.0832 82.5458 99.3345C83.0398 99.5858 83.4558 99.9542 83.7938 100.439L82.9748 101.037C82.7234 100.691 82.4201 100.418 82.0648 100.218C81.7094 100.019 81.2674 99.9195 80.7388 99.9195C80.1581 99.9195 79.6988 100.045 79.3608 100.296C79.0314 100.539 78.8668 100.907 78.8668 101.401C78.8668 101.835 79.0054 102.164 79.2828 102.389C79.5688 102.606 79.9978 102.779 80.5698 102.909L81.3108 103.078C82.2034 103.278 82.8491 103.581 83.2478 103.988C83.6464 104.396 83.8458 104.937 83.8458 105.613C83.8458 106.029 83.7721 106.406 83.6248 106.744C83.4861 107.082 83.2824 107.368 83.0138 107.602C82.7451 107.836 82.4158 108.018 82.0258 108.148C81.6444 108.279 81.2111 108.344 80.7258 108.344ZM86.1475 99.9065C85.9221 99.9065 85.7575 99.8545 85.6535 99.7505C85.5581 99.6378 85.5105 99.4948 85.5105 99.3215V99.1525C85.5105 98.9792 85.5581 98.8405 85.6535 98.7365C85.7575 98.6238 85.9221 98.5675 86.1475 98.5675C86.3728 98.5675 86.5331 98.6238 86.6285 98.7365C86.7325 98.8405 86.7845 98.9792 86.7845 99.1525V99.3215C86.7845 99.4948 86.7325 99.6378 86.6285 99.7505C86.5331 99.8545 86.3728 99.9065 86.1475 99.9065ZM85.6275 101.479H86.6675V108.188H85.6275V101.479ZM88.8775 108.188V101.479H89.9175V102.571H89.9695C90.1341 102.19 90.3638 101.887 90.6585 101.661C90.9618 101.436 91.3648 101.324 91.8675 101.324C92.5608 101.324 93.1068 101.549 93.5055 101.999C93.9128 102.441 94.1165 103.07 94.1165 103.884V108.188H93.0765V104.066C93.0765 102.862 92.5695 102.259 91.5555 102.259C91.3475 102.259 91.1438 102.285 90.9445 102.337C90.7538 102.389 90.5805 102.467 90.4245 102.571C90.2685 102.675 90.1428 102.81 90.0475 102.974C89.9608 103.13 89.9175 103.317 89.9175 103.533V108.188H88.8775ZM98.7621 108.344C98.2941 108.344 97.8738 108.261 97.5011 108.096C97.1285 107.932 96.8121 107.698 96.5521 107.394C96.3008 107.091 96.1058 106.723 95.9671 106.289C95.8371 105.856 95.7721 105.371 95.7721 104.833C95.7721 104.296 95.8371 103.811 95.9671 103.377C96.1058 102.944 96.3008 102.576 96.5521 102.272C96.8121 101.969 97.1285 101.735 97.5011 101.57C97.8738 101.406 98.2941 101.324 98.7621 101.324C99.4295 101.324 99.9625 101.471 100.361 101.765C100.768 102.051 101.072 102.428 101.271 102.896L100.4 103.338C100.279 102.992 100.079 102.723 99.8021 102.532C99.5248 102.342 99.1781 102.246 98.7621 102.246C98.4501 102.246 98.1771 102.298 97.9431 102.402C97.7091 102.498 97.5141 102.636 97.3581 102.818C97.2021 102.992 97.0851 103.204 97.0071 103.455C96.9291 103.698 96.8901 103.967 96.8901 104.261V105.405C96.8901 105.995 97.0461 106.48 97.3581 106.861C97.6788 107.234 98.1468 107.42 98.7621 107.42C99.6028 107.42 100.209 107.03 100.582 106.25L101.336 106.757C101.119 107.243 100.794 107.628 100.361 107.914C99.9365 108.2 99.4035 108.344 98.7621 108.344ZM105.25 108.344C104.791 108.344 104.375 108.261 104.002 108.096C103.638 107.932 103.322 107.698 103.053 107.394C102.793 107.082 102.589 106.714 102.442 106.289C102.303 105.856 102.234 105.371 102.234 104.833C102.234 104.305 102.303 103.824 102.442 103.39C102.589 102.957 102.793 102.589 103.053 102.285C103.322 101.973 103.638 101.735 104.002 101.57C104.375 101.406 104.791 101.324 105.25 101.324C105.701 101.324 106.104 101.406 106.459 101.57C106.814 101.735 107.118 101.965 107.369 102.259C107.62 102.545 107.811 102.888 107.941 103.286C108.08 103.685 108.149 104.123 108.149 104.599V105.093H103.326V105.405C103.326 105.691 103.369 105.96 103.456 106.211C103.551 106.454 103.681 106.666 103.846 106.848C104.019 107.03 104.227 107.173 104.47 107.277C104.721 107.381 105.003 107.433 105.315 107.433C105.74 107.433 106.108 107.334 106.42 107.134C106.741 106.935 106.988 106.649 107.161 106.277L107.902 106.809C107.685 107.269 107.347 107.641 106.888 107.927C106.429 108.205 105.883 108.344 105.25 108.344ZM105.25 102.194C104.964 102.194 104.704 102.246 104.47 102.35C104.236 102.446 104.032 102.584 103.859 102.766C103.694 102.948 103.564 103.165 103.469 103.416C103.374 103.659 103.326 103.928 103.326 104.222V104.313H107.031V104.17C107.031 103.572 106.866 103.096 106.537 102.74C106.216 102.376 105.787 102.194 105.25 102.194ZM114.04 108.188C113.676 108.188 113.399 108.088 113.208 107.888C113.026 107.68 112.935 107.42 112.935 107.108V98.5675H113.975V107.277H114.963V108.188H114.04ZM121.352 108.188C120.962 108.188 120.68 108.083 120.507 107.875C120.342 107.667 120.238 107.407 120.195 107.095H120.13C119.983 107.511 119.74 107.823 119.402 108.031C119.064 108.24 118.661 108.344 118.193 108.344C117.482 108.344 116.928 108.161 116.529 107.797C116.139 107.433 115.944 106.939 115.944 106.315C115.944 105.683 116.174 105.197 116.633 104.859C117.101 104.521 117.825 104.352 118.804 104.352H120.13V103.689C120.13 103.213 120 102.849 119.74 102.597C119.48 102.346 119.081 102.22 118.544 102.22C118.137 102.22 117.794 102.311 117.517 102.493C117.248 102.675 117.023 102.918 116.841 103.221L116.217 102.636C116.399 102.272 116.689 101.965 117.088 101.713C117.487 101.453 117.989 101.324 118.596 101.324C119.411 101.324 120.043 101.523 120.494 101.921C120.945 102.32 121.17 102.875 121.17 103.585V107.277H121.937V108.188H121.352ZM118.362 107.459C118.622 107.459 118.86 107.429 119.077 107.368C119.294 107.308 119.48 107.221 119.636 107.108C119.792 106.996 119.913 106.866 120 106.718C120.087 106.571 120.13 106.411 120.13 106.237V105.132H118.752C118.154 105.132 117.716 105.219 117.439 105.392C117.17 105.566 117.036 105.817 117.036 106.146V106.419C117.036 106.749 117.153 107.004 117.387 107.186C117.63 107.368 117.955 107.459 118.362 107.459ZM125.436 108.344C124.812 108.344 124.288 108.226 123.863 107.992C123.447 107.75 123.088 107.429 122.784 107.03L123.525 106.432C123.785 106.762 124.076 107.017 124.396 107.199C124.717 107.373 125.09 107.459 125.514 107.459C125.956 107.459 126.299 107.364 126.541 107.173C126.793 106.983 126.918 106.714 126.918 106.367C126.918 106.107 126.832 105.886 126.658 105.704C126.494 105.514 126.19 105.384 125.748 105.314L125.215 105.236C124.903 105.193 124.617 105.128 124.357 105.041C124.097 104.946 123.868 104.825 123.668 104.677C123.478 104.521 123.326 104.331 123.213 104.105C123.109 103.88 123.057 103.611 123.057 103.299C123.057 102.97 123.118 102.684 123.239 102.441C123.361 102.19 123.525 101.982 123.733 101.817C123.95 101.653 124.206 101.531 124.5 101.453C124.795 101.367 125.111 101.324 125.449 101.324C125.995 101.324 126.45 101.419 126.814 101.609C127.187 101.8 127.512 102.064 127.789 102.402L127.1 103.026C126.953 102.818 126.736 102.632 126.45 102.467C126.164 102.294 125.805 102.207 125.371 102.207C124.938 102.207 124.609 102.303 124.383 102.493C124.167 102.675 124.058 102.927 124.058 103.247C124.058 103.577 124.167 103.815 124.383 103.962C124.609 104.11 124.929 104.218 125.345 104.287L125.865 104.366C126.611 104.478 127.139 104.695 127.451 105.015C127.763 105.327 127.919 105.739 127.919 106.25C127.919 106.9 127.698 107.412 127.256 107.784C126.814 108.157 126.208 108.344 125.436 108.344ZM131.15 108.188C130.786 108.188 130.508 108.088 130.318 107.888C130.136 107.68 130.045 107.412 130.045 107.082V102.389H128.94V101.479H129.564C129.789 101.479 129.941 101.436 130.019 101.349C130.105 101.254 130.149 101.094 130.149 100.868V99.6205H131.085V101.479H132.554V102.389H131.085V107.277H132.45V108.188H131.15ZM136.595 101.479H137.609L138.324 104.378L139.039 107.316H139.065L139.884 104.378L140.729 101.479H141.652L142.523 104.378L143.355 107.316H143.381L144.07 104.378L144.798 101.479H145.773L143.992 108.188H142.705L141.769 104.963L141.184 102.922H141.158L140.586 104.963L139.65 108.188H138.389L136.595 101.479ZM149.734 108.344C149.275 108.344 148.859 108.261 148.486 108.096C148.122 107.932 147.806 107.698 147.537 107.394C147.277 107.082 147.074 106.714 146.926 106.289C146.788 105.856 146.718 105.371 146.718 104.833C146.718 104.305 146.788 103.824 146.926 103.39C147.074 102.957 147.277 102.589 147.537 102.285C147.806 101.973 148.122 101.735 148.486 101.57C148.859 101.406 149.275 101.324 149.734 101.324C150.185 101.324 150.588 101.406 150.943 101.57C151.299 101.735 151.602 101.965 151.853 102.259C152.105 102.545 152.295 102.888 152.425 103.286C152.564 103.685 152.633 104.123 152.633 104.599V105.093H147.81V105.405C147.81 105.691 147.854 105.96 147.94 106.211C148.036 106.454 148.166 106.666 148.33 106.848C148.504 107.03 148.712 107.173 148.954 107.277C149.206 107.381 149.487 107.433 149.799 107.433C150.224 107.433 150.592 107.334 150.904 107.134C151.225 106.935 151.472 106.649 151.645 106.277L152.386 106.809C152.17 107.269 151.832 107.641 151.372 107.927C150.913 108.205 150.367 108.344 149.734 108.344ZM149.734 102.194C149.448 102.194 149.188 102.246 148.954 102.35C148.72 102.446 148.517 102.584 148.343 102.766C148.179 102.948 148.049 103.165 147.953 103.416C147.858 103.659 147.81 103.928 147.81 104.222V104.313H151.515V104.17C151.515 103.572 151.351 103.096 151.021 102.74C150.701 102.376 150.272 102.194 149.734 102.194ZM156.869 108.344C156.41 108.344 155.994 108.261 155.621 108.096C155.257 107.932 154.941 107.698 154.672 107.394C154.412 107.082 154.209 106.714 154.061 106.289C153.923 105.856 153.853 105.371 153.853 104.833C153.853 104.305 153.923 103.824 154.061 103.39C154.209 102.957 154.412 102.589 154.672 102.285C154.941 101.973 155.257 101.735 155.621 101.57C155.994 101.406 156.41 101.324 156.869 101.324C157.32 101.324 157.723 101.406 158.078 101.57C158.434 101.735 158.737 101.965 158.988 102.259C159.24 102.545 159.43 102.888 159.56 103.286C159.699 103.685 159.768 104.123 159.768 104.599V105.093H154.945V105.405C154.945 105.691 154.989 105.96 155.075 106.211C155.171 106.454 155.301 106.666 155.465 106.848C155.639 107.03 155.847 107.173 156.089 107.277C156.341 107.381 156.622 107.433 156.934 107.433C157.359 107.433 157.727 107.334 158.039 107.134C158.36 106.935 158.607 106.649 158.78 106.277L159.521 106.809C159.305 107.269 158.967 107.641 158.507 107.927C158.048 108.205 157.502 108.344 156.869 108.344ZM156.869 102.194C156.583 102.194 156.323 102.246 156.089 102.35C155.855 102.446 155.652 102.584 155.478 102.766C155.314 102.948 155.184 103.165 155.088 103.416C154.993 103.659 154.945 103.928 154.945 104.222V104.313H158.65V104.17C158.65 103.572 158.486 103.096 158.156 102.74C157.836 102.376 157.407 102.194 156.869 102.194ZM161.482 98.5675H162.522V104.664H162.574L163.601 103.52L165.499 101.479H166.76L164.277 104.131L167.007 108.188H165.746L163.523 104.768L162.522 105.795V108.188H161.482V98.5675Z" fill="#74788D"/>
<rect x="0.5" y="0.5" width="296.047" height="133.188" rx="3.5" stroke="#E9E9EF"/>
<defs>
<clipPath id="clip0_1_2100">
<rect width="117.516" height="14" fill="white" transform="translate(21 21)"/>
</clipPath>
<clipPath id="clip1_1_2100">
<rect width="118" height="50" fill="white" transform="translate(158.516 27.5938)"/>
</clipPath>
</defs>
</svg>
