<svg width="306" height="505" viewBox="0 0 306 505" fill="none" xmlns="http://www.w3.org/2000/svg">
<rect x="0.5" y="0.5" width="305" height="504" rx="7.5" fill="white"/>
<path d="M22.136 37.41V26.21H25.992C26.8773 26.21 27.6027 26.3593 28.168 26.658C28.744 26.9566 29.1707 27.362 29.448 27.874C29.7253 28.3753 29.864 28.9353 29.864 29.554C29.864 30.2473 29.6773 30.8766 29.304 31.442C28.9413 32.0073 28.3707 32.4126 27.592 32.658L29.976 37.41H28.008L25.832 32.898H23.832V37.41H22.136ZM23.832 31.618H25.896C26.664 31.618 27.224 31.4313 27.576 31.058C27.9387 30.6846 28.12 30.1993 28.12 29.602C28.12 29.0046 27.944 28.53 27.592 28.178C27.24 27.8153 26.6693 27.634 25.88 27.634H23.832V31.618ZM35.034 37.602C34.2553 37.602 33.562 37.4313 32.954 37.09C32.3567 36.738 31.8873 36.2526 31.546 35.634C31.2047 35.0153 31.034 34.2953 31.034 33.474C31.034 32.642 31.1993 31.9113 31.53 31.282C31.8713 30.6526 32.3407 30.162 32.938 29.81C33.546 29.458 34.25 29.282 35.05 29.282C35.8287 29.282 36.506 29.458 37.082 29.81C37.658 30.1513 38.106 30.61 38.426 31.186C38.746 31.762 38.906 32.3966 38.906 33.09C38.906 33.1966 38.9007 33.314 38.89 33.442C38.89 33.5593 38.8847 33.6926 38.874 33.842H32.698C32.7513 34.61 33.002 35.1966 33.45 35.602C33.9087 35.9966 34.4367 36.194 35.034 36.194C35.514 36.194 35.914 36.0873 36.234 35.874C36.5647 35.65 36.81 35.3513 36.97 34.978H38.666C38.4527 35.7246 38.026 36.3486 37.386 36.85C36.7567 37.3513 35.9727 37.602 35.034 37.602ZM35.034 30.674C34.4687 30.674 33.9673 30.8446 33.53 31.186C33.0927 31.5166 32.826 32.018 32.73 32.69H37.21C37.178 32.0713 36.9593 31.5806 36.554 31.218C36.1487 30.8553 35.642 30.674 35.034 30.674ZM43.7906 37.41C43.012 37.41 42.3933 37.2233 41.9346 36.85C41.476 36.466 41.2466 35.7886 41.2466 34.818V30.898H39.8866V29.474H41.2466L41.4546 27.458H42.9426V29.474H45.1826V30.898H42.9426V34.818C42.9426 35.2553 43.0333 35.5593 43.2146 35.73C43.4066 35.89 43.732 35.97 44.1906 35.97H45.1026V37.41H43.7906ZM49.8594 37.602C48.8994 37.602 48.142 37.3033 47.5874 36.706C47.0434 36.1086 46.7714 35.218 46.7714 34.034V29.474H48.4674V33.858C48.4674 35.394 49.0967 36.162 50.3554 36.162C50.9847 36.162 51.502 35.938 51.9074 35.49C52.3127 35.042 52.5154 34.402 52.5154 33.57V29.474H54.2114V37.41H52.7074L52.5794 36.018C52.334 36.5086 51.9714 36.898 51.4914 37.186C51.022 37.4633 50.478 37.602 49.8594 37.602ZM56.3689 37.41V29.474H57.8889L58.0329 30.978C58.3102 30.4553 58.6942 30.0446 59.1849 29.746C59.6862 29.4366 60.2889 29.282 60.9929 29.282V31.058H60.5289C60.0595 31.058 59.6382 31.138 59.2649 31.298C58.9022 31.4473 58.6089 31.7086 58.3849 32.082C58.1715 32.4446 58.0649 32.9513 58.0649 33.602V37.41H56.3689ZM62.447 37.41V29.474H63.951L64.079 30.866C64.3243 30.3753 64.6817 29.9913 65.151 29.714C65.631 29.426 66.1803 29.282 66.799 29.282C67.759 29.282 68.511 29.5806 69.055 30.178C69.6097 30.7753 69.887 31.666 69.887 32.85V37.41H68.207V33.026C68.207 31.49 67.5777 30.722 66.319 30.722C65.6897 30.722 65.167 30.946 64.751 31.394C64.3457 31.842 64.143 32.482 64.143 33.314V37.41H62.447ZM72.8445 27.97C72.5245 27.97 72.2578 27.874 72.0445 27.682C71.8418 27.4793 71.7405 27.2286 71.7405 26.93C71.7405 26.6313 71.8418 26.386 72.0445 26.194C72.2578 25.9913 72.5245 25.89 72.8445 25.89C73.1645 25.89 73.4258 25.9913 73.6285 26.194C73.8418 26.386 73.9485 26.6313 73.9485 26.93C73.9485 27.2286 73.8418 27.4793 73.6285 27.682C73.4258 27.874 73.1645 27.97 72.8445 27.97ZM71.9965 37.41V29.474H73.6925V37.41H71.9965ZM75.9314 37.41V29.474H77.4354L77.5634 30.866C77.8087 30.3753 78.166 29.9913 78.6354 29.714C79.1154 29.426 79.6647 29.282 80.2834 29.282C81.2434 29.282 81.9954 29.5806 82.5394 30.178C83.094 30.7753 83.3714 31.666 83.3714 32.85V37.41H81.6914V33.026C81.6914 31.49 81.062 30.722 79.8034 30.722C79.174 30.722 78.6514 30.946 78.2354 31.394C77.83 31.842 77.6274 32.482 77.6274 33.314V37.41H75.9314ZM88.6169 34.978C88.2009 34.978 87.8169 34.93 87.4649 34.834L86.7769 35.506C86.8942 35.5806 87.0382 35.6446 87.2089 35.698C87.3795 35.7513 87.6195 35.7993 87.9289 35.842C88.2382 35.8846 88.6595 35.9273 89.1929 35.97C90.2489 36.066 91.0115 36.322 91.4809 36.738C91.9502 37.1433 92.1849 37.6873 92.1849 38.37C92.1849 38.8393 92.0569 39.282 91.8009 39.698C91.5555 40.1246 91.1662 40.466 90.6329 40.722C90.1102 40.9886 89.4382 41.122 88.6169 41.122C87.5075 41.122 86.6062 40.9086 85.9129 40.482C85.2302 40.066 84.8889 39.4313 84.8889 38.578C84.8889 38.2473 84.9742 37.9166 85.1449 37.586C85.3262 37.266 85.6089 36.962 85.9929 36.674C85.7689 36.578 85.5715 36.4766 85.4009 36.37C85.2409 36.2526 85.0969 36.1353 84.9689 36.018V35.634L86.3449 34.226C85.7262 33.6926 85.4169 32.994 85.4169 32.13C85.4169 31.6073 85.5395 31.1326 85.7849 30.706C86.0409 30.2686 86.4089 29.922 86.8889 29.666C87.3689 29.41 87.9449 29.282 88.6169 29.282C89.0649 29.282 89.4809 29.346 89.8649 29.474H92.8249V30.594L91.4169 30.674C91.6729 31.1113 91.8009 31.5966 91.8009 32.13C91.8009 32.6633 91.6729 33.1433 91.4169 33.57C91.1715 33.9966 90.8089 34.338 90.3289 34.594C89.8595 34.85 89.2889 34.978 88.6169 34.978ZM88.6169 33.65C89.1075 33.65 89.5022 33.522 89.8009 33.266C90.1102 32.9993 90.2649 32.626 90.2649 32.146C90.2649 31.6553 90.1102 31.282 89.8009 31.026C89.5022 30.77 89.1075 30.642 88.6169 30.642C88.1155 30.642 87.7102 30.77 87.4009 31.026C87.1022 31.282 86.9529 31.6553 86.9529 32.146C86.9529 32.626 87.1022 32.9993 87.4009 33.266C87.7102 33.522 88.1155 33.65 88.6169 33.65ZM86.4889 38.418C86.4889 38.8766 86.6915 39.218 87.0969 39.442C87.5022 39.6766 88.0089 39.794 88.6169 39.794C89.2035 39.794 89.6782 39.666 90.0409 39.41C90.4035 39.1646 90.5849 38.834 90.5849 38.418C90.5849 38.1086 90.4622 37.842 90.2169 37.618C89.9715 37.4046 89.5075 37.2713 88.8249 37.218C88.3129 37.186 87.8595 37.138 87.4649 37.074C87.0915 37.2766 86.8355 37.4953 86.6969 37.73C86.5582 37.9646 86.4889 38.194 86.4889 38.418ZM103.425 37.602C102.316 37.602 101.356 37.362 100.545 36.882C99.7449 36.3913 99.1262 35.714 98.6889 34.85C98.2515 33.9753 98.0329 32.9673 98.0329 31.826C98.0329 30.674 98.2515 29.666 98.6889 28.802C99.1262 27.9273 99.7449 27.2446 100.545 26.754C101.356 26.2633 102.316 26.018 103.425 26.018C104.737 26.018 105.809 26.338 106.641 26.978C107.473 27.618 108.001 28.514 108.225 29.666H106.337C106.188 29.0153 105.868 28.498 105.377 28.114C104.886 27.73 104.23 27.538 103.409 27.538C102.289 27.538 101.404 27.922 100.753 28.69C100.102 29.4473 99.7769 30.4926 99.7769 31.826C99.7769 33.1486 100.102 34.1886 100.753 34.946C101.404 35.7033 102.289 36.082 103.409 36.082C104.23 36.082 104.886 35.9006 105.377 35.538C105.868 35.1753 106.188 34.6793 106.337 34.05H108.225C108.001 35.1593 107.473 36.0286 106.641 36.658C105.809 37.2873 104.737 37.602 103.425 37.602ZM112.953 37.602C111.993 37.602 111.236 37.3033 110.681 36.706C110.137 36.1086 109.865 35.218 109.865 34.034V29.474H111.561V33.858C111.561 35.394 112.19 36.162 113.449 36.162C114.078 36.162 114.596 35.938 115.001 35.49C115.406 35.042 115.609 34.402 115.609 33.57V29.474H117.305V37.41H115.801L115.673 36.018C115.428 36.5086 115.065 36.898 114.585 37.186C114.116 37.4633 113.572 37.602 112.953 37.602ZM122.631 37.602C121.628 37.602 120.801 37.3566 120.151 36.866C119.5 36.3753 119.127 35.7246 119.031 34.914H120.743C120.828 35.2766 121.031 35.5913 121.351 35.858C121.671 36.114 122.092 36.242 122.615 36.242C123.127 36.242 123.5 36.1353 123.735 35.922C123.969 35.7086 124.087 35.4633 124.087 35.186C124.087 34.7806 123.921 34.5086 123.591 34.37C123.271 34.2206 122.823 34.0873 122.247 33.97C121.799 33.874 121.351 33.746 120.903 33.586C120.465 33.426 120.097 33.202 119.799 32.914C119.511 32.6153 119.367 32.2153 119.367 31.714C119.367 31.0206 119.633 30.4446 120.167 29.986C120.7 29.5166 121.447 29.282 122.407 29.282C123.292 29.282 124.007 29.4953 124.551 29.922C125.105 30.3486 125.431 30.9513 125.527 31.73H123.895C123.841 31.3886 123.681 31.122 123.415 30.93C123.159 30.738 122.812 30.642 122.375 30.642C121.948 30.642 121.617 30.7326 121.383 30.914C121.148 31.0846 121.031 31.3086 121.031 31.586C121.031 31.8633 121.191 32.082 121.511 32.242C121.841 32.402 122.273 32.546 122.807 32.674C123.34 32.7913 123.831 32.93 124.279 33.09C124.737 33.2393 125.105 33.4633 125.383 33.762C125.66 34.0606 125.799 34.498 125.799 35.074C125.809 35.7993 125.527 36.402 124.951 36.882C124.385 37.362 123.612 37.602 122.631 37.602ZM130.681 37.41C129.903 37.41 129.284 37.2233 128.825 36.85C128.367 36.466 128.137 35.7886 128.137 34.818V30.898H126.777V29.474H128.137L128.345 27.458H129.833V29.474H132.073V30.898H129.833V34.818C129.833 35.2553 129.924 35.5593 130.105 35.73C130.297 35.89 130.623 35.97 131.081 35.97H131.993V37.41H130.681ZM137.331 37.602C136.574 37.602 135.891 37.4313 135.283 37.09C134.686 36.738 134.211 36.2526 133.859 35.634C133.507 35.0046 133.331 34.274 133.331 33.442C133.331 32.61 133.507 31.8846 133.859 31.266C134.222 30.6366 134.707 30.1513 135.315 29.81C135.923 29.458 136.6 29.282 137.347 29.282C138.104 29.282 138.782 29.458 139.379 29.81C139.987 30.1513 140.467 30.6366 140.819 31.266C141.182 31.8846 141.363 32.61 141.363 33.442C141.363 34.274 141.182 35.0046 140.819 35.634C140.467 36.2526 139.987 36.738 139.379 37.09C138.771 37.4313 138.088 37.602 137.331 37.602ZM137.331 36.146C137.736 36.146 138.11 36.0446 138.451 35.842C138.803 35.6393 139.086 35.3406 139.299 34.946C139.512 34.5406 139.619 34.0393 139.619 33.442C139.619 32.8446 139.512 32.3486 139.299 31.954C139.096 31.5486 138.819 31.2446 138.467 31.042C138.126 30.8393 137.752 30.738 137.347 30.738C136.942 30.738 136.563 30.8393 136.211 31.042C135.87 31.2446 135.592 31.5486 135.379 31.954C135.166 32.3486 135.059 32.8446 135.059 33.442C135.059 34.0393 135.166 34.5406 135.379 34.946C135.592 35.3406 135.87 35.6393 136.211 35.842C136.552 36.0446 136.926 36.146 137.331 36.146ZM143.197 37.41V29.474H144.701L144.845 30.594C145.101 30.1886 145.437 29.8686 145.853 29.634C146.28 29.3993 146.77 29.282 147.325 29.282C148.584 29.282 149.458 29.778 149.949 30.77C150.237 30.3113 150.621 29.9486 151.101 29.682C151.592 29.4153 152.12 29.282 152.685 29.282C153.677 29.282 154.456 29.5806 155.021 30.178C155.586 30.7753 155.869 31.666 155.869 32.85V37.41H154.173V33.026C154.173 31.49 153.586 30.722 152.413 30.722C151.816 30.722 151.325 30.946 150.941 31.394C150.568 31.842 150.381 32.482 150.381 33.314V37.41H148.685V33.026C148.685 31.49 148.093 30.722 146.909 30.722C146.322 30.722 145.837 30.946 145.453 31.394C145.08 31.842 144.893 32.482 144.893 33.314V37.41H143.197ZM161.565 37.602C160.787 37.602 160.093 37.4313 159.485 37.09C158.888 36.738 158.419 36.2526 158.077 35.634C157.736 35.0153 157.565 34.2953 157.565 33.474C157.565 32.642 157.731 31.9113 158.061 31.282C158.403 30.6526 158.872 30.162 159.469 29.81C160.077 29.458 160.781 29.282 161.581 29.282C162.36 29.282 163.037 29.458 163.613 29.81C164.189 30.1513 164.637 30.61 164.957 31.186C165.277 31.762 165.437 32.3966 165.437 33.09C165.437 33.1966 165.432 33.314 165.421 33.442C165.421 33.5593 165.416 33.6926 165.405 33.842H159.229C159.283 34.61 159.533 35.1966 159.981 35.602C160.44 35.9966 160.968 36.194 161.565 36.194C162.045 36.194 162.445 36.0873 162.765 35.874C163.096 35.65 163.341 35.3513 163.501 34.978H165.197C164.984 35.7246 164.557 36.3486 163.917 36.85C163.288 37.3513 162.504 37.602 161.565 37.602ZM161.565 30.674C161 30.674 160.499 30.8446 160.061 31.186C159.624 31.5166 159.357 32.018 159.261 32.69H163.741C163.709 32.0713 163.491 31.5806 163.085 31.218C162.68 30.8553 162.173 30.674 161.565 30.674ZM167.197 37.41V29.474H168.717L168.861 30.978C169.138 30.4553 169.522 30.0446 170.013 29.746C170.514 29.4366 171.117 29.282 171.821 29.282V31.058H171.357C170.888 31.058 170.466 31.138 170.093 31.298C169.73 31.4473 169.437 31.7086 169.213 32.082C169 32.4446 168.893 32.9513 168.893 33.602V37.41H167.197ZM176.443 37.602C175.44 37.602 174.614 37.3566 173.963 36.866C173.312 36.3753 172.939 35.7246 172.843 34.914H174.555C174.64 35.2766 174.843 35.5913 175.163 35.858C175.483 36.114 175.904 36.242 176.427 36.242C176.939 36.242 177.312 36.1353 177.547 35.922C177.782 35.7086 177.899 35.4633 177.899 35.186C177.899 34.7806 177.734 34.5086 177.403 34.37C177.083 34.2206 176.635 34.0873 176.059 33.97C175.611 33.874 175.163 33.746 174.715 33.586C174.278 33.426 173.91 33.202 173.611 32.914C173.323 32.6153 173.179 32.2153 173.179 31.714C173.179 31.0206 173.446 30.4446 173.979 29.986C174.512 29.5166 175.259 29.282 176.219 29.282C177.104 29.282 177.819 29.4953 178.363 29.922C178.918 30.3486 179.243 30.9513 179.339 31.73H177.707C177.654 31.3886 177.494 31.122 177.227 30.93C176.971 30.738 176.624 30.642 176.187 30.642C175.76 30.642 175.43 30.7326 175.195 30.914C174.96 31.0846 174.843 31.3086 174.843 31.586C174.843 31.8633 175.003 32.082 175.323 32.242C175.654 32.402 176.086 32.546 176.619 32.674C177.152 32.7913 177.643 32.93 178.091 33.09C178.55 33.2393 178.918 33.4633 179.195 33.762C179.472 34.0606 179.611 34.498 179.611 35.074C179.622 35.7993 179.339 36.402 178.763 36.882C178.198 37.362 177.424 37.602 176.443 37.602Z" fill="#262A2E"/>
<g clip-path="url(#clip0_1_434)">
<path d="M266 32.6666C266.368 32.6666 266.667 32.3682 266.667 32C266.667 31.6318 266.368 31.3333 266 31.3333C265.632 31.3333 265.333 31.6318 265.333 32C265.333 32.3682 265.632 32.6666 266 32.6666Z" stroke="#262A2E" stroke-width="1.33333" stroke-linecap="round" stroke-linejoin="round"/>
<path d="M266 28C266.368 28 266.667 27.7015 266.667 27.3334C266.667 26.9652 266.368 26.6667 266 26.6667C265.632 26.6667 265.333 26.9652 265.333 27.3334C265.333 27.7015 265.632 28 266 28Z" stroke="#262A2E" stroke-width="1.33333" stroke-linecap="round" stroke-linejoin="round"/>
<path d="M266 37.3333C266.368 37.3333 266.667 37.0349 266.667 36.6667C266.667 36.2985 266.368 36 266 36C265.632 36 265.333 36.2985 265.333 36.6667C265.333 37.0349 265.632 37.3333 266 37.3333Z" stroke="#262A2E" stroke-width="1.33333" stroke-linecap="round" stroke-linejoin="round"/>
</g>
<path d="M1 1H305H1ZM305 65H1V63H305V65ZM1 64V1V64ZM305 1V64V1Z" fill="#EAEAEA" mask="url(#path-2-inside-1_1_434)"/>
<g clip-path="url(#clip1_1_434)">
<path d="M154 114.321C176.59 114.321 198.255 123.295 214.23 139.268C230.204 155.242 239.178 176.907 239.179 199.497C239.18 222.088 230.208 243.753 214.235 259.728C198.262 275.703 176.598 284.679 154.007 284.681C131.417 284.683 109.751 275.711 93.7757 259.739C77.8002 243.767 68.8237 222.103 68.8207 199.512C68.8178 176.922 77.7887 155.255 93.76 139.279C109.731 123.302 131.395 114.325 153.985 114.321" stroke="#F2F2F2" stroke-opacity="0.85" stroke-width="10.6724" stroke-linecap="round"/>
<path d="M154 130.323C172.346 130.323 189.941 137.611 202.914 150.584C215.887 163.557 223.176 181.151 223.177 199.498C223.178 217.844 215.891 235.44 202.919 248.413C189.947 261.387 172.352 268.677 154.006 268.678C135.66 268.68 118.064 261.394 105.09 248.422C92.1157 235.451 84.8256 217.856 84.8232 199.51C84.8208 181.163 92.1063 163.567 105.077 150.592C118.048 137.618 135.642 130.327 153.988 130.323" stroke="#F2F2F2" stroke-opacity="0.85" stroke-width="10.6724" stroke-linecap="round"/>
<path d="M154 114.321C171.988 114.321 189.514 120.016 204.067 130.589C218.62 141.162 229.452 156.071 235.01 173.179C240.569 190.287 240.569 208.715 235.01 225.823C229.452 242.931 218.62 257.84 204.067 268.413C189.514 278.986 171.988 284.681 154 284.681C136.012 284.681 118.486 278.986 103.933 268.413C89.3802 257.84 78.5483 242.931 72.9897 225.823C67.4311 208.715 67.4311 190.287 72.9897 173.179" stroke="#007D88" stroke-opacity="0.85" stroke-width="11.0024" stroke-linecap="round"/>
<path d="M154 130.323C167.682 130.323 181.057 134.381 192.433 141.982C203.809 149.583 212.675 160.387 217.911 173.028C223.147 185.668 224.517 199.578 221.848 212.997C219.178 226.416 212.59 238.742 202.915 248.417C193.241 258.091 180.915 264.68 167.496 267.349C154.077 270.018 140.168 268.648 127.527 263.412C114.887 258.177 104.083 249.31 96.4816 237.934C88.8803 226.558 84.8232 213.183 84.8232 199.501" stroke="#25CBA1" stroke-opacity="0.85" stroke-width="11.0024" stroke-linecap="round"/>
<path d="M118.614 217.046V191.592H120.244V217.046H118.614ZM124.102 199.228C123.983 198.221 123.499 197.438 122.651 196.882C121.802 196.325 120.761 196.046 119.528 196.046C118.627 196.046 117.838 196.192 117.162 196.484C116.492 196.775 115.969 197.177 115.591 197.687C115.22 198.197 115.034 198.777 115.034 199.427C115.034 199.971 115.163 200.438 115.422 200.829C115.687 201.213 116.025 201.535 116.436 201.793C116.847 202.045 117.278 202.254 117.729 202.42C118.179 202.579 118.594 202.708 118.972 202.808L121.04 203.364C121.57 203.504 122.16 203.696 122.81 203.941C123.466 204.186 124.092 204.521 124.689 204.945C125.292 205.363 125.789 205.9 126.18 206.556C126.571 207.213 126.767 208.018 126.767 208.972C126.767 210.073 126.479 211.067 125.902 211.955C125.332 212.844 124.497 213.55 123.396 214.073C122.303 214.597 120.973 214.859 119.409 214.859C117.951 214.859 116.688 214.623 115.621 214.153C114.56 213.682 113.725 213.026 113.115 212.184C112.512 211.342 112.17 210.364 112.091 209.251H114.636C114.703 210.02 114.961 210.656 115.412 211.16C115.869 211.657 116.446 212.028 117.142 212.274C117.845 212.512 118.6 212.632 119.409 212.632C120.35 212.632 121.196 212.479 121.945 212.174C122.694 211.863 123.287 211.432 123.724 210.882C124.162 210.325 124.381 209.675 124.381 208.933C124.381 208.257 124.192 207.706 123.814 207.282C123.436 206.858 122.939 206.513 122.322 206.248C121.706 205.983 121.04 205.751 120.324 205.552L117.818 204.836C116.227 204.379 114.968 203.726 114.04 202.877C113.112 202.029 112.648 200.918 112.648 199.546C112.648 198.406 112.956 197.412 113.572 196.563C114.196 195.708 115.031 195.045 116.078 194.575C117.132 194.097 118.309 193.859 119.608 193.859C120.92 193.859 122.087 194.094 123.108 194.565C124.129 195.029 124.938 195.665 125.534 196.474C126.137 197.283 126.455 198.201 126.489 199.228H124.102ZM130.463 214.501V212.711L137.185 205.353C137.974 204.491 138.623 203.742 139.134 203.106C139.644 202.463 140.022 201.86 140.267 201.296C140.519 200.726 140.645 200.13 140.645 199.507C140.645 198.791 140.473 198.171 140.128 197.647C139.79 197.123 139.326 196.719 138.736 196.434C138.146 196.149 137.483 196.007 136.748 196.007C135.965 196.007 135.283 196.169 134.699 196.494C134.123 196.812 133.675 197.259 133.357 197.836C133.045 198.413 132.89 199.089 132.89 199.864H130.543C130.543 198.671 130.818 197.624 131.368 196.722C131.918 195.821 132.667 195.118 133.615 194.614C134.57 194.111 135.641 193.859 136.827 193.859C138.02 193.859 139.078 194.111 139.999 194.614C140.92 195.118 141.643 195.798 142.167 196.653C142.69 197.508 142.952 198.459 142.952 199.507C142.952 200.256 142.816 200.988 142.544 201.704C142.279 202.413 141.815 203.205 141.152 204.08C140.496 204.949 139.585 206.009 138.418 207.262L133.844 212.154V212.313H143.31V214.501H130.463ZM147.417 214.501V212.711L154.138 205.353C154.927 204.491 155.577 203.742 156.087 203.106C156.597 202.463 156.975 201.86 157.221 201.296C157.472 200.726 157.598 200.13 157.598 199.507C157.598 198.791 157.426 198.171 157.081 197.647C156.743 197.123 156.279 196.719 155.689 196.434C155.099 196.149 154.436 196.007 153.701 196.007C152.918 196.007 152.236 196.169 151.652 196.494C151.076 196.812 150.628 197.259 150.31 197.836C149.998 198.413 149.843 199.089 149.843 199.864H147.496C147.496 198.671 147.771 197.624 148.321 196.722C148.872 195.821 149.621 195.118 150.569 194.614C151.523 194.111 152.594 193.859 153.78 193.859C154.973 193.859 156.031 194.111 156.952 194.614C157.873 195.118 158.596 195.798 159.12 196.653C159.643 197.508 159.905 198.459 159.905 199.507C159.905 200.256 159.769 200.988 159.498 201.704C159.232 202.413 158.768 203.205 158.105 204.08C157.449 204.949 156.538 206.009 155.371 207.262L150.797 212.154V212.313H160.263V214.501H147.417ZM163.455 210.325V208.296L172.404 194.137H173.875V197.279H172.881L166.12 207.978V208.137H178.171V210.325H163.455ZM173.04 214.501V209.708V208.764V194.137H175.387V214.501H173.04ZM188.38 193.859C189.215 193.865 190.05 194.025 190.886 194.336C191.721 194.648 192.483 195.165 193.173 195.887C193.862 196.603 194.415 197.581 194.833 198.82C195.251 200.06 195.46 201.614 195.46 203.484C195.46 205.293 195.287 206.901 194.942 208.306C194.604 209.705 194.114 210.885 193.471 211.846C192.835 212.807 192.059 213.536 191.144 214.034C190.236 214.531 189.209 214.779 188.062 214.779C186.922 214.779 185.904 214.554 185.009 214.103C184.121 213.646 183.392 213.013 182.822 212.204C182.258 211.389 181.897 210.444 181.738 209.37H184.164C184.383 210.305 184.817 211.077 185.467 211.687C186.123 212.29 186.988 212.592 188.062 212.592C189.633 212.592 190.872 211.906 191.781 210.534C192.695 209.161 193.153 207.222 193.153 204.717H192.994C192.622 205.274 192.182 205.754 191.671 206.159C191.161 206.563 190.594 206.874 189.971 207.093C189.348 207.312 188.685 207.421 187.982 207.421C186.816 207.421 185.745 207.133 184.771 206.556C183.803 205.973 183.027 205.174 182.444 204.16C181.867 203.139 181.579 201.972 181.579 200.66C181.579 199.414 181.857 198.274 182.414 197.239C182.978 196.199 183.766 195.37 184.781 194.754C185.801 194.137 187.001 193.839 188.38 193.859ZM188.38 196.046C187.545 196.046 186.792 196.255 186.123 196.673C185.46 197.084 184.933 197.641 184.542 198.343C184.157 199.039 183.965 199.811 183.965 200.66C183.965 201.508 184.151 202.281 184.522 202.977C184.9 203.666 185.414 204.216 186.063 204.627C186.719 205.032 187.465 205.234 188.3 205.234C188.93 205.234 189.517 205.111 190.06 204.866C190.604 204.614 191.078 204.273 191.482 203.842C191.893 203.404 192.215 202.91 192.447 202.36C192.679 201.803 192.795 201.223 192.795 200.62C192.795 199.825 192.603 199.079 192.218 198.383C191.84 197.687 191.317 197.123 190.647 196.693C189.984 196.262 189.228 196.046 188.38 196.046Z" fill="#6F6F6F"/>
</g>
<rect x="119.595" y="346.72" width="8" height="8" rx="4" fill="#007D88"/>
<path d="M141.426 354.858C140.464 354.858 139.62 354.648 138.892 354.228C138.173 353.799 137.608 353.201 137.198 352.436C136.796 351.671 136.596 350.789 136.596 349.79C136.596 348.791 136.796 347.914 137.198 347.158C137.608 346.393 138.173 345.795 138.892 345.366C139.62 344.937 140.464 344.722 141.426 344.722C142.396 344.722 143.241 344.937 143.96 345.366C144.688 345.795 145.252 346.393 145.654 347.158C146.055 347.914 146.256 348.791 146.256 349.79C146.256 350.789 146.055 351.671 145.654 352.436C145.252 353.201 144.688 353.799 143.96 354.228C143.241 354.648 142.396 354.858 141.426 354.858ZM141.426 353.822C142.144 353.822 142.774 353.663 143.316 353.346C143.866 353.019 144.291 352.557 144.59 351.96C144.898 351.353 145.052 350.63 145.052 349.79C145.052 348.95 144.898 348.231 144.59 347.634C144.291 347.037 143.866 346.579 143.316 346.262C142.774 345.935 142.144 345.772 141.426 345.772C140.707 345.772 140.072 345.935 139.522 346.262C138.98 346.579 138.556 347.037 138.248 347.634C137.949 348.231 137.8 348.95 137.8 349.79C137.8 350.63 137.949 351.353 138.248 351.96C138.556 352.557 138.98 353.019 139.522 353.346C140.072 353.663 140.707 353.822 141.426 353.822ZM147.882 354.69V347.746H148.946L149.044 349.076C149.259 348.619 149.585 348.255 150.024 347.984C150.463 347.713 151.004 347.578 151.648 347.578V348.81H151.326C150.915 348.81 150.537 348.885 150.192 349.034C149.847 349.174 149.571 349.417 149.366 349.762C149.161 350.107 149.058 350.583 149.058 351.19V354.69H147.882ZM155.548 352.506C155.156 352.506 154.797 352.455 154.47 352.352L153.77 353.01C153.873 353.085 153.999 353.15 154.148 353.206C154.307 353.253 154.531 353.299 154.82 353.346C155.109 353.383 155.515 353.425 156.038 353.472C156.971 353.537 157.639 353.752 158.04 354.116C158.441 354.48 158.642 354.956 158.642 355.544C158.642 355.945 158.53 356.328 158.306 356.692C158.091 357.056 157.755 357.355 157.298 357.588C156.85 357.821 156.271 357.938 155.562 357.938C154.937 357.938 154.381 357.854 153.896 357.686C153.411 357.527 153.033 357.28 152.762 356.944C152.491 356.617 152.356 356.202 152.356 355.698C152.356 355.437 152.426 355.152 152.566 354.844C152.706 354.545 152.967 354.261 153.35 353.99C153.145 353.906 152.967 353.817 152.818 353.724C152.678 353.621 152.547 353.509 152.426 353.388V353.066L153.616 351.89C153.065 351.423 152.79 350.807 152.79 350.042C152.79 349.585 152.897 349.169 153.112 348.796C153.327 348.423 153.639 348.129 154.05 347.914C154.461 347.69 154.96 347.578 155.548 347.578C155.949 347.578 156.313 347.634 156.64 347.746H159.202V348.628L157.9 348.684C158.171 349.076 158.306 349.529 158.306 350.042C158.306 350.499 158.194 350.915 157.97 351.288C157.755 351.661 157.443 351.96 157.032 352.184C156.631 352.399 156.136 352.506 155.548 352.506ZM155.548 351.54C156.043 351.54 156.435 351.414 156.724 351.162C157.023 350.901 157.172 350.527 157.172 350.042C157.172 349.566 157.023 349.202 156.724 348.95C156.435 348.689 156.043 348.558 155.548 348.558C155.044 348.558 154.643 348.689 154.344 348.95C154.055 349.202 153.91 349.566 153.91 350.042C153.91 350.527 154.055 350.901 154.344 351.162C154.643 351.414 155.044 351.54 155.548 351.54ZM153.504 355.586C153.504 356.053 153.7 356.398 154.092 356.622C154.484 356.855 154.974 356.972 155.562 356.972C156.141 356.972 156.603 356.846 156.948 356.594C157.303 356.342 157.48 356.006 157.48 355.586C157.48 355.287 157.359 355.026 157.116 354.802C156.873 354.587 156.425 354.461 155.772 354.424C155.259 354.387 154.815 354.34 154.442 354.284C154.059 354.489 153.807 354.709 153.686 354.942C153.565 355.185 153.504 355.399 153.504 355.586ZM162.839 354.858C162.26 354.858 161.779 354.76 161.397 354.564C161.014 354.368 160.729 354.107 160.543 353.78C160.356 353.453 160.263 353.099 160.263 352.716C160.263 352.007 160.533 351.461 161.075 351.078C161.616 350.695 162.353 350.504 163.287 350.504H165.163V350.42C165.163 349.813 165.004 349.356 164.687 349.048C164.369 348.731 163.945 348.572 163.413 348.572C162.955 348.572 162.559 348.689 162.223 348.922C161.896 349.146 161.691 349.477 161.607 349.916H160.403C160.449 349.412 160.617 348.987 160.907 348.642C161.205 348.297 161.574 348.035 162.013 347.858C162.451 347.671 162.918 347.578 163.413 347.578C164.383 347.578 165.111 347.839 165.597 348.362C166.091 348.875 166.339 349.561 166.339 350.42V354.69H165.289L165.219 353.444C165.023 353.836 164.733 354.172 164.351 354.452C163.977 354.723 163.473 354.858 162.839 354.858ZM163.021 353.864C163.469 353.864 163.851 353.747 164.169 353.514C164.495 353.281 164.743 352.977 164.911 352.604C165.079 352.231 165.163 351.839 165.163 351.428V351.414H163.385C162.694 351.414 162.204 351.535 161.915 351.778C161.635 352.011 161.495 352.305 161.495 352.66C161.495 353.024 161.625 353.318 161.887 353.542C162.157 353.757 162.535 353.864 163.021 353.864ZM168.103 354.69V347.746H169.167L169.237 348.992C169.461 348.553 169.783 348.208 170.203 347.956C170.623 347.704 171.099 347.578 171.631 347.578C172.452 347.578 173.105 347.83 173.591 348.334C174.085 348.829 174.333 349.594 174.333 350.63V354.69H173.157V350.756C173.157 349.309 172.559 348.586 171.365 348.586C170.767 348.586 170.268 348.805 169.867 349.244C169.475 349.673 169.279 350.289 169.279 351.092V354.69H168.103ZM176.828 346.206C176.595 346.206 176.399 346.131 176.24 345.982C176.091 345.823 176.016 345.627 176.016 345.394C176.016 345.17 176.091 344.983 176.24 344.834C176.399 344.685 176.595 344.61 176.828 344.61C177.052 344.61 177.244 344.685 177.402 344.834C177.561 344.983 177.64 345.17 177.64 345.394C177.64 345.627 177.561 345.823 177.402 345.982C177.244 346.131 177.052 346.206 176.828 346.206ZM176.24 354.69V347.746H177.416V354.69H176.24ZM182.656 354.858C181.993 354.858 181.396 354.709 180.864 354.41C180.341 354.102 179.926 353.677 179.618 353.136C179.319 352.585 179.17 351.946 179.17 351.218C179.17 350.49 179.319 349.855 179.618 349.314C179.926 348.763 180.341 348.339 180.864 348.04C181.396 347.732 181.993 347.578 182.656 347.578C183.477 347.578 184.168 347.793 184.728 348.222C185.297 348.651 185.657 349.225 185.806 349.944H184.602C184.509 349.515 184.28 349.183 183.916 348.95C183.552 348.707 183.127 348.586 182.642 348.586C182.25 348.586 181.881 348.684 181.536 348.88C181.191 349.076 180.911 349.37 180.696 349.762C180.481 350.154 180.374 350.639 180.374 351.218C180.374 351.797 180.481 352.282 180.696 352.674C180.911 353.066 181.191 353.365 181.536 353.57C181.881 353.766 182.25 353.864 182.642 353.864C183.127 353.864 183.552 353.747 183.916 353.514C184.28 353.271 184.509 352.931 184.602 352.492H185.806C185.666 353.192 185.311 353.761 184.742 354.2C184.173 354.639 183.477 354.858 182.656 354.858Z" fill="#6F6F6F"/>
<path d="M119.225 385.43V383.89C117.919 383.743 116.872 383.283 116.085 382.51C115.299 381.737 114.899 380.723 114.885 379.47H117.125C117.139 380.097 117.325 380.65 117.685 381.13C118.045 381.597 118.559 381.91 119.225 382.07V377.25C119.119 377.223 119.005 377.19 118.885 377.15C118.779 377.11 118.665 377.07 118.545 377.03C117.465 376.67 116.652 376.203 116.105 375.63C115.572 375.057 115.305 374.303 115.305 373.37C115.292 372.277 115.645 371.383 116.365 370.69C117.085 369.997 118.039 369.59 119.225 369.47V367.87H120.585V369.49C121.745 369.623 122.679 370.043 123.385 370.75C124.092 371.457 124.452 372.343 124.465 373.41H122.225C122.212 372.97 122.065 372.557 121.785 372.17C121.519 371.77 121.119 371.497 120.585 371.35V375.63C120.692 375.67 120.799 375.71 120.905 375.75C121.012 375.777 121.119 375.81 121.225 375.85C121.919 376.077 122.539 376.35 123.085 376.67C123.632 376.99 124.065 377.41 124.385 377.93C124.719 378.45 124.885 379.11 124.885 379.91C124.885 380.577 124.725 381.203 124.405 381.79C124.085 382.363 123.605 382.843 122.965 383.23C122.325 383.617 121.532 383.843 120.585 383.91V385.43H119.225ZM117.505 373.19C117.505 373.723 117.659 374.137 117.965 374.43C118.272 374.71 118.692 374.957 119.225 375.17V371.29C118.719 371.383 118.305 371.597 117.985 371.93C117.665 372.25 117.505 372.67 117.505 373.19ZM122.645 380.05C122.645 379.397 122.452 378.903 122.065 378.57C121.679 378.223 121.185 377.937 120.585 377.71V382.11C121.239 382.03 121.745 381.803 122.105 381.43C122.465 381.057 122.645 380.597 122.645 380.05ZM126.923 383.69V382.17C127.83 381.45 128.697 380.723 129.523 379.99C130.35 379.257 131.083 378.537 131.723 377.83C132.377 377.11 132.89 376.41 133.263 375.73C133.637 375.037 133.823 374.37 133.823 373.73C133.823 373.303 133.75 372.903 133.603 372.53C133.457 372.143 133.217 371.837 132.883 371.61C132.55 371.37 132.103 371.25 131.543 371.25C130.703 371.25 130.07 371.517 129.643 372.05C129.23 372.583 129.03 373.223 129.043 373.97H126.983C126.997 372.983 127.203 372.157 127.603 371.49C128.017 370.823 128.563 370.317 129.243 369.97C129.937 369.623 130.717 369.45 131.583 369.45C132.903 369.45 133.957 369.823 134.743 370.57C135.543 371.303 135.943 372.33 135.943 373.65C135.943 374.437 135.75 375.217 135.363 375.99C134.99 376.763 134.497 377.51 133.883 378.23C133.283 378.937 132.637 379.603 131.943 380.23C131.25 380.857 130.59 381.423 129.963 381.93H136.363V383.69H126.923ZM144.775 383.69V380.89H137.755V379.21L144.435 369.69H146.875V379.05H148.835V380.89H146.875V383.69H144.775ZM140.055 379.05H144.895V372.03L140.055 379.05ZM155.336 383.93C154.429 383.93 153.602 383.77 152.856 383.45C152.122 383.117 151.536 382.617 151.096 381.95C150.656 381.283 150.422 380.45 150.396 379.45H152.496C152.522 380.197 152.776 380.83 153.256 381.35C153.749 381.857 154.442 382.11 155.336 382.11C156.189 382.11 156.842 381.877 157.296 381.41C157.749 380.93 157.976 380.337 157.976 379.63C157.976 378.777 157.669 378.143 157.056 377.73C156.456 377.317 155.716 377.11 154.836 377.11H153.796V375.35H154.856C155.642 375.35 156.276 375.163 156.756 374.79C157.249 374.417 157.496 373.89 157.496 373.21C157.496 372.637 157.302 372.17 156.916 371.81C156.542 371.45 156.009 371.27 155.316 371.27C154.596 371.27 154.029 371.483 153.616 371.91C153.202 372.323 152.976 372.843 152.936 373.47H150.836C150.862 372.657 151.062 371.95 151.436 371.35C151.822 370.75 152.349 370.283 153.016 369.95C153.682 369.617 154.449 369.45 155.316 369.45C156.249 369.45 157.029 369.617 157.656 369.95C158.296 370.27 158.776 370.71 159.096 371.27C159.429 371.817 159.596 372.417 159.596 373.07C159.596 373.817 159.389 374.47 158.976 375.03C158.562 375.59 158.009 375.963 157.316 376.15C158.116 376.323 158.776 376.717 159.296 377.33C159.816 377.93 160.076 378.71 160.076 379.67C160.076 380.443 159.896 381.157 159.536 381.81C159.176 382.45 158.642 382.963 157.936 383.35C157.229 383.737 156.362 383.93 155.336 383.93ZM163.451 383.81C163.051 383.81 162.718 383.683 162.451 383.43C162.198 383.163 162.071 382.85 162.071 382.49C162.071 382.117 162.198 381.803 162.451 381.55C162.718 381.283 163.051 381.15 163.451 381.15C163.851 381.15 164.178 381.283 164.431 381.55C164.685 381.803 164.811 382.117 164.811 382.49C164.811 382.85 164.685 383.163 164.431 383.43C164.178 383.683 163.851 383.81 163.451 383.81ZM171.907 383.93C170.921 383.93 170.067 383.757 169.347 383.41C168.627 383.05 168.054 382.563 167.627 381.95C167.214 381.323 166.961 380.617 166.867 379.83H168.947C169.081 380.497 169.414 381.05 169.947 381.49C170.481 381.917 171.141 382.13 171.927 382.13C172.514 382.13 173.021 381.99 173.447 381.71C173.874 381.417 174.207 381.03 174.447 380.55C174.687 380.07 174.807 379.53 174.807 378.93C174.807 377.983 174.541 377.23 174.007 376.67C173.474 376.097 172.801 375.81 171.987 375.81C171.294 375.81 170.701 375.977 170.207 376.31C169.714 376.63 169.354 377.037 169.127 377.53H167.107L168.307 369.69H175.867V371.55H169.907L169.187 375.29C169.494 374.943 169.914 374.657 170.447 374.43C170.994 374.19 171.607 374.07 172.287 374.07C173.234 374.07 174.047 374.29 174.727 374.73C175.407 375.157 175.927 375.737 176.287 376.47C176.661 377.203 176.847 378.017 176.847 378.91C176.847 379.843 176.647 380.69 176.247 381.45C175.847 382.21 175.274 382.817 174.527 383.27C173.794 383.71 172.921 383.93 171.907 383.93ZM184.952 383.93C183.685 383.93 182.592 383.63 181.672 383.03C180.765 382.417 180.065 381.57 179.572 380.49C179.092 379.397 178.852 378.13 178.852 376.69C178.852 375.25 179.092 373.99 179.572 372.91C180.065 371.817 180.765 370.97 181.672 370.37C182.592 369.757 183.685 369.45 184.952 369.45C186.218 369.45 187.305 369.757 188.212 370.37C189.118 370.97 189.812 371.817 190.292 372.91C190.785 373.99 191.032 375.25 191.032 376.69C191.032 378.13 190.785 379.397 190.292 380.49C189.812 381.57 189.118 382.417 188.212 383.03C187.305 383.63 186.218 383.93 184.952 383.93ZM184.952 382.03C185.712 382.03 186.385 381.817 186.972 381.39C187.572 380.963 188.038 380.35 188.372 379.55C188.705 378.75 188.872 377.797 188.872 376.69C188.872 375.583 188.705 374.63 188.372 373.83C188.038 373.03 187.572 372.417 186.972 371.99C186.385 371.563 185.712 371.35 184.952 371.35C184.178 371.35 183.498 371.563 182.912 371.99C182.325 372.417 181.865 373.03 181.532 373.83C181.198 374.63 181.032 375.583 181.032 376.69C181.032 377.797 181.198 378.75 181.532 379.55C181.865 380.35 182.325 380.963 182.912 381.39C183.498 381.817 184.178 382.03 184.952 382.03Z" fill="#262A2E"/>
<rect x="113.225" y="424.72" width="8" height="8" rx="4" fill="#6BB4BA"/>
<path d="M130.611 432.69V422.89H131.983L135.511 429.722L139.011 422.89H140.397V432.69H139.221V424.99L135.945 431.29H135.063L131.787 425.004V432.69H130.611ZM144.704 432.858C144.125 432.858 143.645 432.76 143.262 432.564C142.879 432.368 142.595 432.107 142.408 431.78C142.221 431.453 142.128 431.099 142.128 430.716C142.128 430.007 142.399 429.461 142.94 429.078C143.481 428.695 144.219 428.504 145.152 428.504H147.028V428.42C147.028 427.813 146.869 427.356 146.552 427.048C146.235 426.731 145.81 426.572 145.278 426.572C144.821 426.572 144.424 426.689 144.088 426.922C143.761 427.146 143.556 427.477 143.472 427.916H142.268C142.315 427.412 142.483 426.987 142.772 426.642C143.071 426.297 143.439 426.035 143.878 425.858C144.317 425.671 144.783 425.578 145.278 425.578C146.249 425.578 146.977 425.839 147.462 426.362C147.957 426.875 148.204 427.561 148.204 428.42V432.69H147.154L147.084 431.444C146.888 431.836 146.599 432.172 146.216 432.452C145.843 432.723 145.339 432.858 144.704 432.858ZM144.886 431.864C145.334 431.864 145.717 431.747 146.034 431.514C146.361 431.281 146.608 430.977 146.776 430.604C146.944 430.231 147.028 429.839 147.028 429.428V429.414H145.25C144.559 429.414 144.069 429.535 143.78 429.778C143.5 430.011 143.36 430.305 143.36 430.66C143.36 431.024 143.491 431.318 143.752 431.542C144.023 431.757 144.401 431.864 144.886 431.864ZM149.968 432.69V425.746H151.032L151.13 427.076C151.345 426.619 151.672 426.255 152.11 425.984C152.549 425.713 153.09 425.578 153.734 425.578V426.81H153.412C153.002 426.81 152.624 426.885 152.278 427.034C151.933 427.174 151.658 427.417 151.452 427.762C151.247 428.107 151.144 428.583 151.144 429.19V432.69H149.968ZM155.054 432.69V422.61H156.23V428.672L159.072 425.746H160.514L157.434 428.882L160.906 432.69H159.408L156.23 429.092V432.69H155.054ZM164.725 432.858C164.062 432.858 163.474 432.709 162.961 432.41C162.448 432.102 162.042 431.677 161.743 431.136C161.454 430.595 161.309 429.955 161.309 429.218C161.309 428.49 161.454 427.855 161.743 427.314C162.032 426.763 162.434 426.339 162.947 426.04C163.47 425.732 164.072 425.578 164.753 425.578C165.425 425.578 166.004 425.732 166.489 426.04C166.984 426.339 167.362 426.735 167.623 427.23C167.884 427.725 168.015 428.257 168.015 428.826C168.015 428.929 168.01 429.031 168.001 429.134C168.001 429.237 168.001 429.353 168.001 429.484H162.471C162.499 430.016 162.62 430.459 162.835 430.814C163.059 431.159 163.334 431.421 163.661 431.598C163.997 431.775 164.352 431.864 164.725 431.864C165.21 431.864 165.616 431.752 165.943 431.528C166.27 431.304 166.508 431.001 166.657 430.618H167.819C167.632 431.262 167.273 431.799 166.741 432.228C166.218 432.648 165.546 432.858 164.725 432.858ZM164.725 426.572C164.165 426.572 163.666 426.745 163.227 427.09C162.798 427.426 162.55 427.921 162.485 428.574H166.853C166.825 427.949 166.61 427.459 166.209 427.104C165.808 426.749 165.313 426.572 164.725 426.572ZM172.085 432.69C171.451 432.69 170.951 432.536 170.587 432.228C170.223 431.92 170.041 431.365 170.041 430.562V426.74H168.837V425.746H170.041L170.195 424.08H171.217V425.746H173.261V426.74H171.217V430.562C171.217 431.001 171.306 431.299 171.483 431.458C171.661 431.607 171.973 431.682 172.421 431.682H173.149V432.69H172.085ZM175.469 424.206C175.236 424.206 175.04 424.131 174.881 423.982C174.732 423.823 174.657 423.627 174.657 423.394C174.657 423.17 174.732 422.983 174.881 422.834C175.04 422.685 175.236 422.61 175.469 422.61C175.693 422.61 175.885 422.685 176.043 422.834C176.202 422.983 176.281 423.17 176.281 423.394C176.281 423.627 176.202 423.823 176.043 423.982C175.885 424.131 175.693 424.206 175.469 424.206ZM174.881 432.69V425.746H176.057V432.69H174.881ZM178.105 432.69V425.746H179.169L179.239 426.992C179.463 426.553 179.785 426.208 180.205 425.956C180.625 425.704 181.101 425.578 181.633 425.578C182.454 425.578 183.108 425.83 183.593 426.334C184.088 426.829 184.335 427.594 184.335 428.63V432.69H183.159V428.756C183.159 427.309 182.562 426.586 181.367 426.586C180.77 426.586 180.27 426.805 179.869 427.244C179.477 427.673 179.281 428.289 179.281 429.092V432.69H178.105ZM188.861 430.506C188.469 430.506 188.109 430.455 187.783 430.352L187.083 431.01C187.185 431.085 187.311 431.15 187.461 431.206C187.619 431.253 187.843 431.299 188.133 431.346C188.422 431.383 188.828 431.425 189.351 431.472C190.284 431.537 190.951 431.752 191.353 432.116C191.754 432.48 191.955 432.956 191.955 433.544C191.955 433.945 191.843 434.328 191.619 434.692C191.404 435.056 191.068 435.355 190.611 435.588C190.163 435.821 189.584 435.938 188.875 435.938C188.249 435.938 187.694 435.854 187.209 435.686C186.723 435.527 186.345 435.28 186.075 434.944C185.804 434.617 185.669 434.202 185.669 433.698C185.669 433.437 185.739 433.152 185.879 432.844C186.019 432.545 186.28 432.261 186.663 431.99C186.457 431.906 186.28 431.817 186.131 431.724C185.991 431.621 185.86 431.509 185.739 431.388V431.066L186.929 429.89C186.378 429.423 186.103 428.807 186.103 428.042C186.103 427.585 186.21 427.169 186.425 426.796C186.639 426.423 186.952 426.129 187.363 425.914C187.773 425.69 188.273 425.578 188.861 425.578C189.262 425.578 189.626 425.634 189.953 425.746H192.515V426.628L191.213 426.684C191.483 427.076 191.619 427.529 191.619 428.042C191.619 428.499 191.507 428.915 191.283 429.288C191.068 429.661 190.755 429.96 190.345 430.184C189.943 430.399 189.449 430.506 188.861 430.506ZM188.861 429.54C189.355 429.54 189.747 429.414 190.037 429.162C190.335 428.901 190.485 428.527 190.485 428.042C190.485 427.566 190.335 427.202 190.037 426.95C189.747 426.689 189.355 426.558 188.861 426.558C188.357 426.558 187.955 426.689 187.657 426.95C187.367 427.202 187.223 427.566 187.223 428.042C187.223 428.527 187.367 428.901 187.657 429.162C187.955 429.414 188.357 429.54 188.861 429.54ZM186.817 433.586C186.817 434.053 187.013 434.398 187.405 434.622C187.797 434.855 188.287 434.972 188.875 434.972C189.453 434.972 189.915 434.846 190.261 434.594C190.615 434.342 190.793 434.006 190.793 433.586C190.793 433.287 190.671 433.026 190.429 432.802C190.186 432.587 189.738 432.461 189.085 432.424C188.571 432.387 188.128 432.34 187.755 432.284C187.372 432.489 187.12 432.709 186.999 432.942C186.877 433.185 186.817 433.399 186.817 433.586Z" fill="#6F6F6F"/>
<path d="M130.497 467.43V465.89C129.19 465.743 128.144 465.283 127.357 464.51C126.57 463.737 126.17 462.723 126.157 461.47H128.397C128.41 462.097 128.597 462.65 128.957 463.13C129.317 463.597 129.83 463.91 130.497 464.07V459.25C130.39 459.223 130.277 459.19 130.157 459.15C130.05 459.11 129.937 459.07 129.817 459.03C128.737 458.67 127.924 458.203 127.377 457.63C126.844 457.057 126.577 456.303 126.577 455.37C126.564 454.277 126.917 453.383 127.637 452.69C128.357 451.997 129.31 451.59 130.497 451.47V449.87H131.857V451.49C133.017 451.623 133.95 452.043 134.657 452.75C135.364 453.457 135.724 454.343 135.737 455.41H133.497C133.484 454.97 133.337 454.557 133.057 454.17C132.79 453.77 132.39 453.497 131.857 453.35V457.63C131.964 457.67 132.07 457.71 132.177 457.75C132.284 457.777 132.39 457.81 132.497 457.85C133.19 458.077 133.81 458.35 134.357 458.67C134.904 458.99 135.337 459.41 135.657 459.93C135.99 460.45 136.157 461.11 136.157 461.91C136.157 462.577 135.997 463.203 135.677 463.79C135.357 464.363 134.877 464.843 134.237 465.23C133.597 465.617 132.804 465.843 131.857 465.91V467.43H130.497ZM128.777 455.19C128.777 455.723 128.93 456.137 129.237 456.43C129.544 456.71 129.964 456.957 130.497 457.17V453.29C129.99 453.383 129.577 453.597 129.257 453.93C128.937 454.25 128.777 454.67 128.777 455.19ZM133.917 462.05C133.917 461.397 133.724 460.903 133.337 460.57C132.95 460.223 132.457 459.937 131.857 459.71V464.11C132.51 464.03 133.017 463.803 133.377 463.43C133.737 463.057 133.917 462.597 133.917 462.05ZM139.915 465.69V454.09L137.655 454.61V453.05L140.755 451.69H142.115V465.69H139.915ZM151.339 465.69V462.89H144.319V461.21L150.999 451.69H153.439V461.05H155.399V462.89H153.439V465.69H151.339ZM146.619 461.05H151.459V454.03L146.619 461.05ZM162.56 465.93C161.533 465.93 160.667 465.737 159.96 465.35C159.253 464.963 158.68 464.45 158.24 463.81C157.813 463.17 157.507 462.45 157.32 461.65C157.133 460.85 157.04 460.03 157.04 459.19C157.04 457.643 157.253 456.29 157.68 455.13C158.12 453.97 158.747 453.07 159.56 452.43C160.373 451.777 161.36 451.45 162.52 451.45C163.44 451.45 164.227 451.63 164.88 451.99C165.533 452.35 166.04 452.83 166.4 453.43C166.773 454.03 167 454.683 167.08 455.39H165.1C164.98 454.697 164.693 454.163 164.24 453.79C163.787 453.417 163.207 453.23 162.5 453.23C161.527 453.23 160.72 453.69 160.08 454.61C159.453 455.517 159.12 456.917 159.08 458.81C159.4 458.223 159.893 457.723 160.56 457.31C161.24 456.897 162.02 456.69 162.9 456.69C163.687 456.69 164.42 456.877 165.1 457.25C165.793 457.623 166.353 458.15 166.78 458.83C167.22 459.497 167.44 460.29 167.44 461.21C167.44 462.023 167.24 462.79 166.84 463.51C166.44 464.23 165.873 464.817 165.14 465.27C164.42 465.71 163.56 465.93 162.56 465.93ZM162.44 464.09C163 464.09 163.5 463.97 163.94 463.73C164.38 463.49 164.727 463.163 164.98 462.75C165.233 462.323 165.36 461.843 165.36 461.31C165.36 460.457 165.08 459.777 164.52 459.27C163.973 458.763 163.273 458.51 162.42 458.51C161.86 458.51 161.353 458.637 160.9 458.89C160.46 459.143 160.113 459.483 159.86 459.91C159.607 460.323 159.48 460.783 159.48 461.29C159.48 461.837 159.607 462.323 159.86 462.75C160.127 463.163 160.48 463.49 160.92 463.73C161.373 463.97 161.88 464.09 162.44 464.09ZM174.366 465.93C173.446 465.93 172.66 465.75 172.006 465.39C171.353 465.03 170.84 464.55 170.466 463.95C170.106 463.35 169.886 462.697 169.806 461.99H171.786C171.906 462.683 172.193 463.217 172.646 463.59C173.1 463.963 173.68 464.15 174.386 464.15C175.36 464.15 176.16 463.697 176.786 462.79C177.426 461.87 177.766 460.463 177.806 458.57C177.486 459.157 176.986 459.657 176.306 460.07C175.64 460.483 174.866 460.69 173.986 460.69C173.2 460.69 172.46 460.503 171.766 460.13C171.073 459.757 170.513 459.237 170.086 458.57C169.66 457.89 169.446 457.09 169.446 456.17C169.446 455.357 169.646 454.59 170.046 453.87C170.446 453.15 171.006 452.57 171.726 452.13C172.46 451.677 173.326 451.45 174.326 451.45C175.353 451.45 176.22 451.643 176.926 452.03C177.633 452.417 178.2 452.93 178.626 453.57C179.053 454.21 179.36 454.93 179.546 455.73C179.746 456.53 179.846 457.35 179.846 458.19C179.846 459.737 179.626 461.09 179.186 462.25C178.76 463.41 178.14 464.317 177.326 464.97C176.513 465.61 175.526 465.93 174.366 465.93ZM174.466 458.87C175.026 458.87 175.526 458.743 175.966 458.49C176.406 458.237 176.753 457.903 177.006 457.49C177.273 457.063 177.406 456.597 177.406 456.09C177.406 455.543 177.273 455.063 177.006 454.65C176.753 454.223 176.4 453.89 175.946 453.65C175.506 453.41 175.006 453.29 174.446 453.29C173.886 453.29 173.386 453.41 172.946 453.65C172.506 453.89 172.153 454.223 171.886 454.65C171.633 455.063 171.506 455.537 171.506 456.07C171.506 456.923 171.786 457.603 172.346 458.11C172.906 458.617 173.613 458.87 174.466 458.87Z" fill="#262A2E"/>
<rect x="0.5" y="0.5" width="305" height="504" rx="7.5" stroke="#EAEAEA"/>
<defs>
<clipPath id="clip0_1_434">
<rect width="16" height="16" fill="white" transform="translate(258 24)"/>
</clipPath>
<clipPath id="clip1_1_434">
<rect width="264" height="233.69" fill="white" transform="translate(21 84)"/>
</clipPath>
</defs>
</svg>
